<svg xmlns="http://www.w3.org/2000/svg" xmlns:xlink="http://www.w3.org/1999/xlink" fill="none" version="1.1" width="40" height="40" viewBox="0 0 40 40"><defs><clipPath id="master_svg0_207_327"><rect x="0" y="0" width="40" height="40" rx="0"/></clipPath></defs><g clip-path="url(#master_svg0_207_327)"><g><path d="M40,0L0,0L0,40L40,40L40,0Z" fill="#FFFFFF" fill-opacity="0.009999999776482582"/></g><g><path d="M9.303271953125,10.243034L9.303391953125,10.242536Q9.305141953125,10.235533,9.306791953125,10.228505Q9.333251953125,10.115784,9.333251953125,10Q9.333251953125,9.9169462,9.319551953125,9.83503Q9.305851953125,9.753115,9.278821953125,9.674581Q9.251791953125,9.596048,9.212181953125,9.52305Q9.172571953125,9.450051,9.121461953125,9.384588Q9.070341953125,9.319124,9.009131953125,9.26299Q8.947921953125,9.206855000000001,8.878291953125,9.161588Q8.808651953125,9.11632,8.732511953125,9.083161Q8.656361953125,9.050001,8.575791953125,9.029858Q8.568781953125,9.028107,8.561761953125,9.026457Q8.449031953125,9,8.333251953125,9Q8.056271953125,9,7.818751953125,9.142507Q7.802201953125,9.15244,7.786041953125,9.163005Q7.627931953125,9.266371,7.518431953125,9.420289Q7.408921953125,9.574207,7.363111953125,9.757464L7.362981953125,9.757963L2.363109953125,29.7575Q2.333251953125,29.8769,2.333251953125,30Q2.333251953125,30.0985,2.352466953125,30.1951Q2.371681953125,30.2917,2.409372953125,30.3827Q2.4470639531250002,30.4737,2.501781953125,30.5556Q2.556500953125,30.6375,2.626144953125,30.7071Q2.695788953125,30.7767,2.777681953125,30.8315Q2.859573953125,30.8862,2.950568953125,30.9239Q3.041562953125,30.9616,3.138161953125,30.9808Q3.234760553125,31,3.333251953125,31L13.333251953125,31Q13.431751953125,31,13.528351953125,30.9808Q13.624951953125,30.9616,13.715951953125,30.9239Q13.806951953125,30.8862,13.888851953125,30.8315Q13.970751953125,30.7767,14.040351953125,30.7071Q14.109951953125,30.6375,14.164751953125,30.5556Q14.219451953125,30.4737,14.257151953125,30.3827Q14.294851953125,30.2917,14.314051953125,30.1951Q14.333251953125,30.0985,14.333251953125,30Q14.333251953125,29.9015,14.314051953125,29.8049Q14.294851953125,29.7083,14.257151953125,29.6173Q14.219451953125,29.5263,14.164751953125,29.4444Q14.109951953125,29.3625,14.040351953125,29.2929Q13.970751953125,29.2232,13.888851953125,29.1685Q13.806951953125,29.1138,13.715951953125,29.0761Q13.624951953125,29.0384,13.528351953125,29.0192Q13.431751953125,29,13.333251953125,29L4.614031953125,29L9.303271953125,10.243034Z" fill-rule="evenodd" fill="#222222" fill-opacity="1"/></g><g><path d="M37.666551953125,30Q37.666551953125,29.8769,37.636751953125,29.7575L32.636751953125,9.757464Q32.616551953125,9.67689,32.583451953125,9.600743Q32.550251953125,9.524596,32.504951953125,9.454963Q32.459751953125,9.38533,32.403551953125,9.324118Q32.347451953125,9.262907,32.281951953125,9.211795Q32.216551953125,9.160682,32.143551953125,9.12107Q32.070551953125005,9.081457,31.992051953125,9.05443Q31.913451953125,9.027403,31.831551953125,9.013701Q31.749651953125,9,31.666551953125,9L8.333251953125,9Q8.234760553125,9,8.138161953125,9.019214999999999Q8.041562953125,9.03843,7.950568953125,9.076121Q7.859573953125,9.113812,7.777681953125,9.16853Q7.695788953125,9.223249,7.626144953125,9.292893Q7.556500953125,9.362537,7.501781953125,9.44443Q7.447063953125,9.526322,7.409372953125,9.617317Q7.371681953125,9.708311,7.352466953125,9.80491Q7.333251953125,9.9015086,7.333251953125,10Q7.333251953125,10.123106,7.363109953125,10.242536L12.363111953125,30.2425Q12.383251953125,30.3231,12.416411953125,30.3993Q12.449571953125,30.4754,12.494841953125,30.545Q12.540111953124999,30.6147,12.596241953125,30.6759Q12.652371953125,30.7371,12.717841953125,30.7882Q12.783301953125001,30.8393,12.856301953125,30.8789Q12.929301953125,30.9185,13.007831953124999,30.9456Q13.086371953125,30.9726,13.168281953125,30.9863Q13.250201953125,31,13.333251953125,31L36.666551953125,31Q36.765051953124996,31,36.861651953125005,30.9808Q36.958251953125,30.9616,37.049251953125,30.9239Q37.140251953125,30.8862,37.222151953125,30.8315Q37.304051953125,30.7767,37.373651953125005,30.7071Q37.443351953125,30.6375,37.498051953125,30.5556Q37.552751953125,30.4737,37.590451953125,30.3827Q37.628151953125,30.2917,37.647351953124996,30.1951Q37.666551953125,30.0985,37.666551953125,30ZM35.385851953125,29L30.885851953125,11L9.614031953125,11L14.114031953125,29L35.385851953125,29Z" fill-rule="evenodd" fill="#222222" fill-opacity="1"/></g><g><path d="M10,16L32.5,16Q32.5985,16,32.6951,15.980785000000001Q32.7917,15.96157,32.8827,15.923879Q32.9737,15.886188,33.0556,15.83147Q33.1375,15.776751,33.2071,15.707107Q33.276700000000005,15.637463,33.3315,15.55557Q33.3862,15.473678,33.4239,15.382683Q33.461600000000004,15.291689,33.4808,15.19509Q33.5,15.0984914,33.5,15Q33.5,14.9015086,33.4808,14.80491Q33.461600000000004,14.708311,33.4239,14.617317Q33.3862,14.526322,33.3315,14.44443Q33.276700000000005,14.362537,33.2071,14.292893Q33.1375,14.223249,33.0556,14.16853Q32.9737,14.113812,32.8827,14.076121Q32.7917,14.03843,32.6951,14.019214999999999Q32.5985,14,32.5,14L10,14Q9.9015086,14,9.80491,14.019214999999999Q9.708311,14.03843,9.617317,14.076121Q9.526322,14.113812,9.44443,14.16853Q9.362537,14.223249,9.292893,14.292893Q9.223249,14.362537,9.16853,14.44443Q9.113812,14.526322,9.076121,14.617317Q9.03843,14.708311,9.019214999999999,14.80491Q9,14.9015086,9,15Q9,15.0984914,9.019214999999999,15.19509Q9.03843,15.291689,9.076121,15.382683Q9.113812,15.473678,9.16853,15.55557Q9.223249,15.637463,9.292893,15.707107Q9.362537,15.776751,9.44443,15.83147Q9.526322,15.886188,9.617317,15.923879Q9.708311,15.96157,9.80491,15.980785000000001Q9.9015086,16,10,16Z" fill-rule="evenodd" fill="#222222" fill-opacity="1"/></g><g><path d="M9.863061953125,20.2423L9.863111953125,20.2425Q9.883251953125,20.3231,9.916411953125,20.3993Q9.949571953125,20.4754,9.994841953125,20.545Q10.040111953125,20.6147,10.096241953125,20.6759Q10.152371953125,20.737099999999998,10.217841953125,20.7882Q10.283301953125001,20.8393,10.356301953125,20.8789Q10.429301953125,20.9185,10.507831953125,20.9456Q10.586361953125,20.9726,10.668281953125,20.9863Q10.750201953125,21,10.833251953125,21L10.847691953125,20.9999Q10.963461953125,20.9982,11.075791953125,20.970100000000002Q11.156361953125,20.95,11.232511953125,20.916800000000002Q11.308651953125,20.883699999999997,11.378291953125,20.8384Q11.447921953125,20.793100000000003,11.509131953125,20.737000000000002Q11.570341953125,20.6809,11.621461953125,20.6154Q11.672571953125,20.5499,11.712181953125,20.477Q11.751791953125,20.404,11.778821953125,20.325400000000002Q11.805851953125,20.2469,11.819551953125,20.165Q11.833251953125,20.0831,11.833251953125,20L11.833151953125,19.98556Q11.831471953125,19.869790000000002,11.803391953125,19.757460000000002L11.803261953125,19.75695L9.303437953125,9.757639L9.303393953125,9.757464Q9.283250953125,9.67689,9.250090953125,9.600744Q9.216931953125,9.524597,9.171663953125,9.454963Q9.126396953124999,9.38533,9.070261953125,9.324119Q9.014127953125,9.262907,8.948664953125,9.211795Q8.883200953125,9.160683,8.810202953125,9.12107Q8.737203953125,9.081457,8.658670953125,9.05443Q8.580137953125,9.027403,8.498221953125,9.013702Q8.416306553125,9,8.333252793583,9L8.318815753125,9.000104Q8.203043953125,9.001776,8.090715953125,9.029858Q8.010141953125,9.050001,7.933994953125,9.083161Q7.857847953125,9.11632,7.788214953125,9.161588Q7.718581953125,9.206855000000001,7.657369953125,9.26299Q7.596158953125,9.319124,7.545046953125,9.384588Q7.4939339531249995,9.450051,7.454321953125,9.52305Q7.414708953125,9.596048,7.387681953125,9.674581Q7.360654953125,9.753115,7.346952953125,9.83503Q7.333251953125,9.9169462,7.333251953125,10L7.333355953125,10.0144362Q7.3350279531249996,10.130208,7.363109953125,10.242536L7.363152953125,10.24271L9.863061953125,20.2423Z" fill-rule="evenodd" fill="#222222" fill-opacity="1"/></g><g><path d="M33.196558046875,20.2423L33.196608046875,20.2425Q33.216748046875,20.3231,33.249908046875,20.3993Q33.283068046875,20.4754,33.328338046875,20.545Q33.373608046875,20.6147,33.429738046875,20.6759Q33.485868046875,20.737099999999998,33.551338046875,20.7882Q33.616798046875,20.8393,33.689798046875,20.8789Q33.762798046875,20.9185,33.841328046875,20.9456Q33.919858046875,20.9726,34.001778046875,20.9863Q34.083698046875,21,34.166748046875,21L34.181188046875,20.9999Q34.296958046875,20.9982,34.409288046875,20.970100000000002Q34.489858046875,20.95,34.566008046875,20.916800000000002Q34.642148046875,20.883699999999997,34.711788046875,20.8384Q34.781418046875,20.793100000000003,34.842628046875,20.737000000000002Q34.903838046875,20.6809,34.954958046875,20.6154Q35.006068046875,20.5499,35.045678046875,20.477Q35.085288046875,20.404,35.112318046875004,20.325400000000002Q35.139348046875,20.2469,35.153048046875,20.165Q35.166748046875,20.0831,35.166748046875,20L35.166648046875,19.98556Q35.164968046875,19.869790000000002,35.136888046875,19.757460000000002L35.136758046875,19.75695L32.636934046875,9.757639L32.636890046875,9.757464Q32.616747046875,9.67689,32.583587046875,9.600744Q32.550428046875,9.524597,32.505160046875,9.454963Q32.459893046875,9.38533,32.403758046875,9.324119Q32.347624046875,9.262907,32.282161046875,9.211795Q32.216697046875,9.160683,32.143699046875,9.12107Q32.070700046875,9.081457,31.992167046875,9.05443Q31.913634046875,9.027403,31.831718046875,9.013702Q31.749802646875,9,31.666748887333,9L31.652311846875,9.000104Q31.536540046875,9.001776,31.424212046875,9.029858Q31.343638046875,9.050001,31.267491046875,9.083161Q31.191344046875,9.11632,31.121711046875,9.161588Q31.052078046875,9.206855000000001,30.990866046875,9.26299Q30.929655046875,9.319124,30.878543046875,9.384588Q30.827430046875,9.450051,30.787818046875,9.52305Q30.748205046875,9.596048,30.721178046875,9.674581Q30.694151046875,9.753115,30.680449046875,9.83503Q30.666748046875,9.9169462,30.666748046875,10L30.666852046875,10.0144362Q30.668524046875,10.130208,30.696606046875,10.242536L30.696649046875,10.24271L33.196558046875,20.2423Z" fill-rule="evenodd" fill="#222222" fill-opacity="1"/></g></g></svg>