<svg xmlns="http://www.w3.org/2000/svg" xmlns:xlink="http://www.w3.org/1999/xlink" fill="none" version="1.1" width="40" height="40" viewBox="0 0 40 40"><defs><clipPath id="master_svg0_166_250"><rect x="0" y="0" width="40" height="40" rx="0"/></clipPath></defs><g clip-path="url(#master_svg0_166_250)"><g><ellipse cx="13" cy="34" rx="2" ry="2" fill="#222222" fill-opacity="1"/></g><g><ellipse cx="29" cy="34" rx="2" ry="2" fill="#222222" fill-opacity="1"/></g><g><path d="M17.8333,8.16667L31.156,8.16667Q32.6017,8.16667,33.5025,9.29744Q34.4033,10.42822,34.0801,11.83733L30.8309,26.004Q30.5964,27.0263,29.776,27.6798Q28.9556,28.3333,27.9068,28.3333L14.53408,28.3333Q13.43098,28.3333,12.59064,27.6187Q11.7503,26.9041,11.57306,25.8154L9.569980000000001,13.51073Q9.54149,13.3357,9.45455,13.18115L5.128424,5.490261Q5.080138,5.404419,5.049526,5.310805Q5.018915,5.217192,5.007155,5.119405Q4.99539,5.021618,5.002937,4.9234159Q5.01048,4.825214,5.037036,4.73037Q5.063592,4.635526,5.108141,4.547686Q5.15269,4.459846,5.21352,4.382384Q5.27435,4.3049230000000005,5.349123,4.240817Q5.423896,4.176711,5.509739,4.128424Q5.595581,4.080138,5.689195,4.049526Q5.782808,4.018915,5.880595,4.007155Q5.978382,3.99539,6.0765841,4.002937Q6.174786,4.01048,6.26963,4.037036Q6.364474,4.063592,6.452314,4.108141Q6.540154,4.15269,6.617616,4.21352Q6.6950769999999995,4.27435,6.759183,4.349123Q6.823289,4.423896,6.871576,4.509739L11.197700000000001,12.20062Q11.45851,12.6643,11.54399,13.18938L13.547080000000001,25.494Q13.60616,25.8569,13.88627,26.0951Q14.16638,26.3333,14.53408,26.3333L27.9068,26.3333Q28.2564,26.3333,28.5299,26.1155Q28.8033,25.8977,28.8815,25.5569L32.130700000000004,11.390229999999999Q32.2384,10.92052,31.9382,10.5436Q31.6379,10.16667,31.156,10.16667L17.8333,10.16667Q17.7349,10.16667,17.6383,10.147459999999999Q17.5417,10.12824,17.450699999999998,10.09055Q17.3597,10.052859999999999,17.2778,9.99814Q17.1959,9.94342,17.1262,9.87378Q17.0566,9.80413,17.0019,9.72224Q16.947200000000002,9.64035,16.9095,9.54935Q16.8718,9.458359999999999,16.852600000000002,9.36176Q16.8333,9.26516,16.8333,9.16667Q16.8333,9.06818,16.852600000000002,8.97158Q16.8718,8.87498,16.9095,8.78399Q16.947200000000002,8.69299,17.0019,8.6111Q17.0566,8.529209999999999,17.1262,8.45956Q17.1959,8.38992,17.2778,8.3352Q17.3597,8.28048,17.450699999999998,8.24279Q17.5417,8.2051,17.6383,8.18589Q17.7349,8.16667,17.8333,8.16667ZM18.8333,9.16667Q18.8333,9.26516,18.8141,9.36176Q18.7949,9.458359999999999,18.757199999999997,9.54935Q18.7195,9.64035,18.6648,9.72224Q18.6101,9.80413,18.540399999999998,9.87378Q18.4708,9.94342,18.3889,9.99814Q18.307000000000002,10.052859999999999,18.216,10.09055Q18.125,10.12824,18.028399999999998,10.147459999999999Q17.931800000000003,10.16667,17.8333,10.16667Q17.7349,10.16667,17.6383,10.147459999999999Q17.5417,10.12824,17.450699999999998,10.09055Q17.3597,10.052859999999999,17.2778,9.99814Q17.1959,9.94342,17.1262,9.87378Q17.0566,9.80413,17.0019,9.72224Q16.947200000000002,9.64035,16.9095,9.54935Q16.8718,9.458359999999999,16.852600000000002,9.36176Q16.8333,9.26516,16.8333,9.16667Q16.8333,9.06818,16.852600000000002,8.97158Q16.8718,8.87498,16.9095,8.78399Q16.947200000000002,8.69299,17.0019,8.6111Q17.0566,8.529209999999999,17.1262,8.45956Q17.1959,8.38992,17.2778,8.3352Q17.3597,8.28048,17.450699999999998,8.24279Q17.5417,8.2051,17.6383,8.18589Q17.7349,8.16667,17.8333,8.16667Q17.931800000000003,8.16667,18.028399999999998,8.18589Q18.125,8.2051,18.216,8.24279Q18.307000000000002,8.28048,18.3889,8.3352Q18.4708,8.38992,18.540399999999998,8.45956Q18.6101,8.529209999999999,18.6648,8.6111Q18.7195,8.69299,18.757199999999997,8.78399Q18.7949,8.87498,18.8141,8.97158Q18.8333,9.06818,18.8333,9.16667ZM7,5Q7,5.0984914,6.980785,5.19509Q6.96157,5.291689,6.923879,5.382683Q6.886188,5.473678,6.83147,5.55557Q6.776751,5.637463,6.707107,5.707107Q6.637463,5.776751,6.55557,5.83147Q6.473678,5.886188,6.382683,5.923879Q6.291689,5.96157,6.19509,5.980785Q6.0984914,6,6,6Q5.9015086,6,5.80491,5.980785Q5.708311,5.96157,5.617317,5.923879Q5.526322,5.886188,5.44443,5.83147Q5.362537,5.776751,5.292893,5.707107Q5.223249,5.637463,5.16853,5.55557Q5.113812,5.473678,5.076121,5.382683Q5.03843,5.291689,5.019215,5.19509Q5,5.0984914,5,5Q5,4.9015086,5.019215,4.80491Q5.03843,4.708311,5.076121,4.617317Q5.113812,4.526322,5.16853,4.44443Q5.223249,4.362537,5.292893,4.292893Q5.362537,4.223249,5.44443,4.16853Q5.526322,4.113812,5.617317,4.076121Q5.708311,4.03843,5.80491,4.019215Q5.9015086,4,6,4Q6.0984914,4,6.19509,4.019215Q6.291689,4.03843,6.382683,4.076121Q6.473678,4.113812,6.55557,4.16853Q6.637463,4.223249,6.707107,4.292893Q6.776751,4.362537,6.83147,4.44443Q6.886188,4.526322,6.923879,4.617317Q6.96157,4.708311,6.980785,4.80491Q7,4.9015086,7,5Z" fill="#222222" fill-opacity="1"/></g><g><path d="M31.3333,18L24.06058,18L18,18Q17.9015086,18,17.80491,17.980785Q17.708311,17.961570000000002,17.617317,17.923879Q17.526322,17.886188,17.44443,17.83147Q17.362537,17.776751,17.292893,17.707107Q17.223249,17.637463,17.16853,17.55557Q17.113812,17.473678,17.076121,17.382683Q17.038429999999998,17.291689,17.019215,17.19509Q17,17.0984914,17,17Q17,16.9015086,17.019215,16.80491Q17.038429999999998,16.708311,17.076121,16.617317Q17.113812,16.526322,17.16853,16.44443Q17.223249,16.362537,17.292893,16.292893Q17.362537,16.223249,17.44443,16.16853Q17.526322,16.113812,17.617317,16.076121Q17.708311,16.038429999999998,17.80491,16.019215Q17.9015086,16,18,16L24.06058,16L31.3333,16Q31.431800000000003,16,31.528399999999998,16.019215Q31.625,16.038429999999998,31.716,16.076121Q31.807000000000002,16.113812,31.8889,16.16853Q31.9708,16.223249,32.0404,16.292893Q32.1101,16.362537,32.1648,16.44443Q32.2195,16.526322,32.2572,16.617317Q32.2949,16.708311,32.314099999999996,16.80491Q32.3333,16.9015086,32.3333,17Q32.3333,17.0984914,32.314099999999996,17.19509Q32.2949,17.291689,32.2572,17.382683Q32.2195,17.473678,32.1648,17.55557Q32.1101,17.637463,32.0404,17.707107Q31.9708,17.776751,31.8889,17.83147Q31.807000000000002,17.886188,31.716,17.923879Q31.625,17.961570000000002,31.528399999999998,17.980785Q31.431800000000003,18,31.3333,18ZM32.3333,17Q32.3333,17.0984914,32.314099999999996,17.19509Q32.2949,17.291689,32.2572,17.382683Q32.2195,17.473678,32.1648,17.55557Q32.1101,17.637463,32.0404,17.707107Q31.9708,17.776751,31.8889,17.83147Q31.807000000000002,17.886188,31.716,17.923879Q31.625,17.961570000000002,31.528399999999998,17.980785Q31.431800000000003,18,31.3333,18Q31.2348,18,31.138199999999998,17.980785Q31.041600000000003,17.961570000000002,30.9506,17.923879Q30.8597,17.886188,30.7778,17.83147Q30.6959,17.776751,30.6262,17.707107Q30.5566,17.637463,30.5019,17.55557Q30.4471,17.473678,30.4095,17.382683Q30.3718,17.291689,30.3525,17.19509Q30.3333,17.0984914,30.3333,17Q30.3333,16.9015086,30.3525,16.80491Q30.3718,16.708311,30.4095,16.617317Q30.4471,16.526322,30.5019,16.44443Q30.5566,16.362537,30.6262,16.292893Q30.6959,16.223249,30.7778,16.16853Q30.8597,16.113812,30.9506,16.076121Q31.041600000000003,16.038429999999998,31.138199999999998,16.019215Q31.2348,16,31.3333,16Q31.431800000000003,16,31.528399999999998,16.019215Q31.625,16.038429999999998,31.716,16.076121Q31.807000000000002,16.113812,31.8889,16.16853Q31.9708,16.223249,32.0404,16.292893Q32.1101,16.362537,32.1648,16.44443Q32.2195,16.526322,32.2572,16.617317Q32.2949,16.708311,32.314099999999996,16.80491Q32.3333,16.9015086,32.3333,17ZM19,17Q19,17.0984914,18.980785,17.19509Q18.961570000000002,17.291689,18.923879,17.382683Q18.886188,17.473678,18.83147,17.55557Q18.776751,17.637463,18.707107,17.707107Q18.637463,17.776751,18.55557,17.83147Q18.473678,17.886188,18.382683,17.923879Q18.291689,17.961570000000002,18.19509,17.980785Q18.0984914,18,18,18Q17.9015086,18,17.80491,17.980785Q17.708311,17.961570000000002,17.617317,17.923879Q17.526322,17.886188,17.44443,17.83147Q17.362537,17.776751,17.292893,17.707107Q17.223249,17.637463,17.16853,17.55557Q17.113812,17.473678,17.076121,17.382683Q17.038429999999998,17.291689,17.019215,17.19509Q17,17.0984914,17,17Q17,16.9015086,17.019215,16.80491Q17.038429999999998,16.708311,17.076121,16.617317Q17.113812,16.526322,17.16853,16.44443Q17.223249,16.362537,17.292893,16.292893Q17.362537,16.223249,17.44443,16.16853Q17.526322,16.113812,17.617317,16.076121Q17.708311,16.038429999999998,17.80491,16.019215Q17.9015086,16,18,16Q18.0984914,16,18.19509,16.019215Q18.291689,16.038429999999998,18.382683,16.076121Q18.473678,16.113812,18.55557,16.16853Q18.637463,16.223249,18.707107,16.292893Q18.776751,16.362537,18.83147,16.44443Q18.886188,16.526322,18.923879,16.617317Q18.961570000000002,16.708311,18.980785,16.80491Q19,16.9015086,19,17Z" fill="#222222" fill-opacity="1"/></g></g></svg>