<svg xmlns="http://www.w3.org/2000/svg" xmlns:xlink="http://www.w3.org/1999/xlink" viewBox="0 0 471.72 471.72"><defs><style>.cls-1{fill:none;}.cls-2{clip-path:url(#clip-path);}</style><clipPath id="clip-path" transform="translate(0 -0.3)"><rect class="cls-1" x="0.07" width="472.09" height="472.59"/></clipPath></defs><title>图层 1</title><g id="图层_2" data-name="图层 2"><g id="图层_1-2" data-name="图层 1"><g class="cls-2"><path d="M448.13,189H424.55C424.55,84.78,340.07.3,235.86.3S47.17,84.78,47.17,189H23.59A23.59,23.59,0,0,0,0,212.57v94.35A23.59,23.59,0,0,0,23.59,330.5H94.34V189a141.52,141.52,0,1,1,283,0V365.88a59,59,0,0,1-59,59H235.86V472h82.55A106.14,106.14,0,0,0,424.55,365.88V330.5h23.58a23.59,23.59,0,0,0,23.59-23.58V212.57A23.58,23.58,0,0,0,448.13,189Z" transform="translate(0 -0.3)"/></g><path d="M330.2,259.74H283a47.17,47.17,0,1,1-94.34,0H141.52a94.34,94.34,0,1,0,188.68,0Z" transform="translate(0 -0.3)"/></g></g></svg>