<svg xmlns="http://www.w3.org/2000/svg" xmlns:xlink="http://www.w3.org/1999/xlink" fill="none" version="1.1" width="40" height="40" viewBox="0 0 40 40"><defs><clipPath id="master_svg0_41_61"><rect x="0" y="0" width="40" height="40" rx="0"/></clipPath></defs><g clip-path="url(#master_svg0_41_61)"><g><path d="M35.102199999999996,13.44035L30.688,4.440352L31.5858,4L31.896,4.950683L4.310165,13.95068Q4.216531,13.98123,4.118736,13.99292Q4.0209414,14.0046,3.9227443,13.99701Q3.824547,13.9894,3.7297219999999998,13.96278Q3.634896,13.93616,3.547085,13.89155Q3.459275,13.84694,3.381855,13.78606Q3.304434,13.72518,3.240379,13.65036Q3.176323,13.57555,3.128094,13.48967Q3.079866,13.4038,3.0493170000000003,13.31016Q3.018769,13.21653,3.0070740000000002,13.11873Q2.99538,13.02094,3.002989,12.92274Q3.010598,12.82455,3.037218,12.72972Q3.063838,12.63489,3.108446,12.54708Q3.153054,12.45927,3.213936,12.38185Q3.274819,12.30443,3.349635,12.24038Q3.424451,12.17632,3.510326,12.12809Q3.5962009999999998,12.07987,3.689835,12.04932L31.2756,3.0493170000000003Q31.3608,3.021519,31.4496,3.009314Q31.5384,2.99711,31.628,3.000889Q31.7175,3.004668,31.805,3.02431Q31.8924,3.043952,31.975,3.07883Q32.057500000000005,3.113708,32.1326,3.162711Q32.2076,3.211715,32.2727,3.273281Q32.337900000000005,3.334847,32.391,3.407014Q32.444199999999995,3.47918,32.483599999999996,3.559648L36.8978,12.55965Q36.9412,12.64808,36.9665,12.74327Q36.9918,12.83846,36.998,12.93675Q37.0042,13.03504,36.9912,13.13266Q36.9781,13.23029,36.9462,13.32348Q36.9144,13.41668,36.8649,13.50187Q36.8155,13.58706,36.7504,13.66097Q36.6853,13.73487,36.607,13.79466Q36.5288,13.85445,36.4404,13.89783Q36.3519,13.9412,36.2567,13.96648Q36.1615,13.99177,36.0632,13.998Q35.965,14.0042,35.8673,13.99116Q35.7697,13.97809,35.676500000000004,13.94623Q35.5833,13.91437,35.4981,13.86494Q35.4129,13.81551,35.339,13.75041Q35.265100000000004,13.68531,35.2053,13.60705Q35.1455,13.52878,35.102199999999996,13.44035ZM37,13Q37,13.09849,36.9808,13.19509Q36.9616,13.29169,36.9239,13.38268Q36.8862,13.47368,36.8315,13.55557Q36.7767,13.63746,36.7071,13.70711Q36.6375,13.77675,36.5556,13.83147Q36.4737,13.88619,36.3827,13.92388Q36.2917,13.96157,36.1951,13.98078Q36.0985,14,36,14Q35.9015,14,35.8049,13.98078Q35.7083,13.96157,35.6173,13.92388Q35.5263,13.88619,35.4444,13.83147Q35.3625,13.77675,35.2929,13.70711Q35.2232,13.63746,35.1685,13.55557Q35.1138,13.47368,35.0761,13.38268Q35.038399999999996,13.29169,35.0192,13.19509Q35,13.09849,35,13Q35,12.90151,35.0192,12.80491Q35.038399999999996,12.70831,35.0761,12.61732Q35.1138,12.52632,35.1685,12.44443Q35.2232,12.36254,35.2929,12.29289Q35.3625,12.22325,35.4444,12.16853Q35.5263,12.11381,35.6173,12.07612Q35.7083,12.03843,35.8049,12.01921Q35.9015,12,36,12Q36.0985,12,36.1951,12.01921Q36.2917,12.03843,36.3827,12.07612Q36.4737,12.11381,36.5556,12.16853Q36.6375,12.22325,36.7071,12.29289Q36.7767,12.36254,36.8315,12.44443Q36.8862,12.52632,36.9239,12.61732Q36.9616,12.70831,36.9808,12.80491Q37,12.90151,37,13ZM5,13Q5,13.09849,4.980785,13.19509Q4.96157,13.29169,4.923879,13.38268Q4.886188,13.47368,4.83147,13.55557Q4.776751,13.63746,4.707107,13.70711Q4.637463,13.77675,4.55557,13.83147Q4.473678,13.88619,4.382683,13.92388Q4.291689,13.96157,4.19509,13.98078Q4.0984914,14,4,14Q3.9015086,14,3.80491,13.98078Q3.708311,13.96157,3.617317,13.92388Q3.526322,13.88619,3.44443,13.83147Q3.362537,13.77675,3.292893,13.70711Q3.223249,13.63746,3.16853,13.55557Q3.1138120000000002,13.47368,3.076121,13.38268Q3.03843,13.29169,3.019215,13.19509Q3,13.09849,3,13Q3,12.90151,3.019215,12.80491Q3.03843,12.70831,3.076121,12.61732Q3.1138120000000002,12.52632,3.16853,12.44443Q3.223249,12.36254,3.292893,12.29289Q3.362537,12.22325,3.44443,12.16853Q3.526322,12.11381,3.617317,12.07612Q3.708311,12.03843,3.80491,12.01921Q3.9015086,12,4,12Q4.0984914,12,4.19509,12.01921Q4.291689,12.03843,4.382683,12.07612Q4.473678,12.11381,4.55557,12.16853Q4.637463,12.22325,4.707107,12.29289Q4.776751,12.36254,4.83147,12.44443Q4.886188,12.52632,4.923879,12.61732Q4.96157,12.70831,4.980785,12.80491Q5,12.90151,5,13Z" fill="#333333" fill-opacity="1"/></g><g><path d="M3,18.5L3,13Q3,12.9015086,3.019215,12.80491Q3.03843,12.708311,3.076121,12.617317Q3.1138120000000002,12.526322,3.16853,12.44443Q3.223249,12.362537,3.292893,12.292893Q3.362537,12.223249,3.44443,12.16853Q3.526322,12.113812,3.617317,12.076121Q3.708311,12.03843,3.80491,12.019214999999999Q3.9015086,12,4,12L36,12Q36.0985,12,36.1951,12.019214999999999Q36.2917,12.03843,36.3827,12.076121Q36.4737,12.113812,36.5556,12.16853Q36.6375,12.223249,36.7071,12.292893Q36.7767,12.362537,36.8315,12.44443Q36.8862,12.526322,36.9239,12.617317Q36.9616,12.708311,36.9808,12.80491Q37,12.9015086,37,13L37,18.5Q37,18.598489999999998,36.9808,18.69509Q36.9616,18.79169,36.9239,18.88268Q36.8862,18.97368,36.8315,19.05557Q36.7767,19.13746,36.7071,19.20711Q36.6375,19.27675,36.5556,19.33147Q36.4737,19.38619,36.3827,19.42388Q36.2917,19.461570000000002,36.1951,19.48078Q36.0985,19.5,36,19.5Q34.4808,19.5,33.3906,20.54095Q32.2,21.677799999999998,32.2,23.5417Q32.2,25.5499,33.4707,27.0868Q34.6392,28.5,36,28.5Q36.0985,28.5,36.1951,28.519199999999998Q36.2917,28.5384,36.3827,28.5761Q36.4737,28.613799999999998,36.5556,28.6685Q36.6375,28.7232,36.7071,28.7929Q36.7767,28.8625,36.8315,28.9444Q36.8862,29.0263,36.9239,29.1173Q36.9616,29.2083,36.9808,29.3049Q37,29.4015,37,29.5L37,35Q37,35.0985,36.9808,35.1951Q36.9616,35.2917,36.9239,35.3827Q36.8862,35.4737,36.8315,35.5556Q36.7767,35.6375,36.7071,35.7071Q36.6375,35.7768,36.5556,35.8315Q36.4737,35.8862,36.3827,35.9239Q36.2917,35.961600000000004,36.1951,35.9808Q36.0985,36,36,36L4,36Q3.9015086,36,3.80491,35.9808Q3.708311,35.961600000000004,3.617317,35.9239Q3.526322,35.8862,3.44443,35.8315Q3.362537,35.7768,3.292893,35.7071Q3.223249,35.6375,3.16853,35.5556Q3.1138120000000002,35.4737,3.076121,35.3827Q3.03843,35.2917,3.019215,35.1951Q3,35.0985,3,35L3,29.5Q3,29.4015,3.019215,29.3049Q3.03843,29.2083,3.076121,29.1173Q3.1138120000000002,29.0263,3.16853,28.9444Q3.223249,28.8625,3.292893,28.7929Q3.362537,28.7232,3.44443,28.6685Q3.526322,28.613799999999998,3.617317,28.5761Q3.708311,28.5384,3.80491,28.519199999999998Q3.9015086,28.5,4,28.5Q5.53047,28.5,6.58648,27.4244Q7.8,26.1884,7.8,24Q7.8,21.81163,6.58644,20.57559Q5.5304,19.5,3.999999324481,19.5Q3.901508,19.5,3.804909,19.48078Q3.70831,19.461570000000002,3.6173159999999998,19.42388Q3.526322,19.38619,3.44443,19.33147Q3.362537,19.27675,3.292893,19.20711Q3.223249,19.13746,3.16853,19.05557Q3.113811,18.97368,3.076121,18.88268Q3.03843,18.79169,3.019215,18.69509Q3,18.598489999999998,3,18.5ZM5,18.5L4,18.5L3.999999721845,17.5Q6.3696,17.5,8.01356,19.17441Q9.8,20.99393,9.8,24Q9.8,27.0061,8.01362,28.8256Q6.36967,30.5,4,30.5L4,29.5L5,29.5L5,35L4,35L4,34L36,34L36,35L35,35L35,29.5L36,29.5L36,30.5Q34.8581,30.5,33.7573,29.8973Q32.7381,29.3394,31.9293,28.3612Q30.2,26.2696,30.2,23.5417Q30.2,20.8222,32.0094,19.09447Q33.6792,17.5,36,17.5L36,18.5L35,18.5L35,13L36,13L36,14L4,14L4,13L5,13L5,18.5Z" fill="#333333" fill-opacity="1"/></g><g><path d="M19,22L14,22Q13.9015086,22,13.80491,21.980785Q13.708311,21.961570000000002,13.617317,21.923879Q13.526322,21.886188,13.44443,21.83147Q13.362537,21.776751,13.292893,21.707107Q13.223249,21.637463,13.16853,21.55557Q13.113812,21.473678,13.076121,21.382683Q13.03843,21.291689,13.019214999999999,21.19509Q13,21.0984914,13,21Q13,20.9015086,13.019214999999999,20.80491Q13.03843,20.708311,13.076121,20.617317Q13.113812,20.526322,13.16853,20.44443Q13.223249,20.362537,13.292893,20.292893Q13.362537,20.223249,13.44443,20.16853Q13.526322,20.113812,13.617317,20.076121Q13.708311,20.038429999999998,13.80491,20.019215Q13.9015086,20,14,20L19,20Q19.098489999999998,20,19.19509,20.019215Q19.29169,20.038429999999998,19.38268,20.076121Q19.47368,20.113812,19.55557,20.16853Q19.63746,20.223249,19.70711,20.292893Q19.77675,20.362537,19.83147,20.44443Q19.88619,20.526322,19.92388,20.617317Q19.961570000000002,20.708311,19.98078,20.80491Q20,20.9015086,20,21Q20,21.0984914,19.98078,21.19509Q19.961570000000002,21.291689,19.92388,21.382683Q19.88619,21.473678,19.83147,21.55557Q19.77675,21.637463,19.70711,21.707107Q19.63746,21.776751,19.55557,21.83147Q19.47368,21.886188,19.38268,21.923879Q19.29169,21.961570000000002,19.19509,21.980785Q19.098489999999998,22,19,22ZM20,21Q20,21.0984914,19.98078,21.19509Q19.961570000000002,21.291689,19.92388,21.382683Q19.88619,21.473678,19.83147,21.55557Q19.77675,21.637463,19.70711,21.707107Q19.63746,21.776751,19.55557,21.83147Q19.47368,21.886188,19.38268,21.923879Q19.29169,21.961570000000002,19.19509,21.980785Q19.098489999999998,22,19,22Q18.901510000000002,22,18.80491,21.980785Q18.70831,21.961570000000002,18.61732,21.923879Q18.52632,21.886188,18.44443,21.83147Q18.36254,21.776751,18.29289,21.707107Q18.22325,21.637463,18.16853,21.55557Q18.11381,21.473678,18.07612,21.382683Q18.038429999999998,21.291689,18.01921,21.19509Q18,21.0984914,18,21Q18,20.9015086,18.01921,20.80491Q18.038429999999998,20.708311,18.07612,20.617317Q18.11381,20.526322,18.16853,20.44443Q18.22325,20.362537,18.29289,20.292893Q18.36254,20.223249,18.44443,20.16853Q18.52632,20.113812,18.61732,20.076121Q18.70831,20.038429999999998,18.80491,20.019215Q18.901510000000002,20,19,20Q19.098489999999998,20,19.19509,20.019215Q19.29169,20.038429999999998,19.38268,20.076121Q19.47368,20.113812,19.55557,20.16853Q19.63746,20.223249,19.70711,20.292893Q19.77675,20.362537,19.83147,20.44443Q19.88619,20.526322,19.92388,20.617317Q19.961570000000002,20.708311,19.98078,20.80491Q20,20.9015086,20,21ZM15,21Q15,21.0984914,14.980785000000001,21.19509Q14.96157,21.291689,14.923879,21.382683Q14.886188,21.473678,14.83147,21.55557Q14.776751,21.637463,14.707107,21.707107Q14.637463,21.776751,14.55557,21.83147Q14.473678,21.886188,14.382683,21.923879Q14.291689,21.961570000000002,14.19509,21.980785Q14.0984914,22,14,22Q13.9015086,22,13.80491,21.980785Q13.708311,21.961570000000002,13.617317,21.923879Q13.526322,21.886188,13.44443,21.83147Q13.362537,21.776751,13.292893,21.707107Q13.223249,21.637463,13.16853,21.55557Q13.113812,21.473678,13.076121,21.382683Q13.03843,21.291689,13.019214999999999,21.19509Q13,21.0984914,13,21Q13,20.9015086,13.019214999999999,20.80491Q13.03843,20.708311,13.076121,20.617317Q13.113812,20.526322,13.16853,20.44443Q13.223249,20.362537,13.292893,20.292893Q13.362537,20.223249,13.44443,20.16853Q13.526322,20.113812,13.617317,20.076121Q13.708311,20.038429999999998,13.80491,20.019215Q13.9015086,20,14,20Q14.0984914,20,14.19509,20.019215Q14.291689,20.038429999999998,14.382683,20.076121Q14.473678,20.113812,14.55557,20.16853Q14.637463,20.223249,14.707107,20.292893Q14.776751,20.362537,14.83147,20.44443Q14.886188,20.526322,14.923879,20.617317Q14.96157,20.708311,14.980785000000001,20.80491Q15,20.9015086,15,21Z" fill="#333333" fill-opacity="1"/></g><g><path d="M26,28L13,28Q12.9015086,28,12.80491,27.980785Q12.708311,27.961570000000002,12.617317,27.923879Q12.526322,27.886188,12.44443,27.83147Q12.362537,27.776751,12.292893,27.707107Q12.223249,27.637463,12.16853,27.55557Q12.113812,27.473678,12.076121,27.382683Q12.03843,27.291689,12.019214999999999,27.19509Q12,27.0984914,12,27Q12,26.9015086,12.019214999999999,26.80491Q12.03843,26.708311,12.076121,26.617317Q12.113812,26.526322,12.16853,26.44443Q12.223249,26.362537,12.292893,26.292893Q12.362537,26.223249,12.44443,26.16853Q12.526322,26.113812,12.617317,26.076121Q12.708311,26.038429999999998,12.80491,26.019215Q12.9015086,26,13,26L26,26Q26.0985,26,26.1951,26.019215Q26.2917,26.038429999999998,26.3827,26.076121Q26.4737,26.113812,26.5556,26.16853Q26.6375,26.223249,26.7071,26.292893Q26.776699999999998,26.362537,26.8315,26.44443Q26.886200000000002,26.526322,26.9239,26.617317Q26.9616,26.708311,26.980800000000002,26.80491Q27,26.9015086,27,27Q27,27.0984914,26.980800000000002,27.19509Q26.9616,27.291689,26.9239,27.382683Q26.886200000000002,27.473678,26.8315,27.55557Q26.776699999999998,27.637463,26.7071,27.707107Q26.6375,27.776751,26.5556,27.83147Q26.4737,27.886188,26.3827,27.923879Q26.2917,27.961570000000002,26.1951,27.980785Q26.0985,28,26,28ZM27,27Q27,27.0984914,26.980800000000002,27.19509Q26.9616,27.291689,26.9239,27.382683Q26.886200000000002,27.473678,26.8315,27.55557Q26.776699999999998,27.637463,26.7071,27.707107Q26.6375,27.776751,26.5556,27.83147Q26.4737,27.886188,26.3827,27.923879Q26.2917,27.961570000000002,26.1951,27.980785Q26.0985,28,26,28Q25.9015,28,25.8049,27.980785Q25.7083,27.961570000000002,25.6173,27.923879Q25.5263,27.886188,25.4444,27.83147Q25.3625,27.776751,25.2929,27.707107Q25.2232,27.637463,25.1685,27.55557Q25.113799999999998,27.473678,25.0761,27.382683Q25.0384,27.291689,25.019199999999998,27.19509Q25,27.0984914,25,27Q25,26.9015086,25.019199999999998,26.80491Q25.0384,26.708311,25.0761,26.617317Q25.113799999999998,26.526322,25.1685,26.44443Q25.2232,26.362537,25.2929,26.292893Q25.3625,26.223249,25.4444,26.16853Q25.5263,26.113812,25.6173,26.076121Q25.7083,26.038429999999998,25.8049,26.019215Q25.9015,26,26,26Q26.0985,26,26.1951,26.019215Q26.2917,26.038429999999998,26.3827,26.076121Q26.4737,26.113812,26.5556,26.16853Q26.6375,26.223249,26.7071,26.292893Q26.776699999999998,26.362537,26.8315,26.44443Q26.886200000000002,26.526322,26.9239,26.617317Q26.9616,26.708311,26.980800000000002,26.80491Q27,26.9015086,27,27ZM14,27Q14,27.0984914,13.980785000000001,27.19509Q13.96157,27.291689,13.923879,27.382683Q13.886188,27.473678,13.83147,27.55557Q13.776751,27.637463,13.707107,27.707107Q13.637463,27.776751,13.55557,27.83147Q13.473678,27.886188,13.382683,27.923879Q13.291689,27.961570000000002,13.19509,27.980785Q13.0984914,28,13,28Q12.9015086,28,12.80491,27.980785Q12.708311,27.961570000000002,12.617317,27.923879Q12.526322,27.886188,12.44443,27.83147Q12.362537,27.776751,12.292893,27.707107Q12.223249,27.637463,12.16853,27.55557Q12.113812,27.473678,12.076121,27.382683Q12.03843,27.291689,12.019214999999999,27.19509Q12,27.0984914,12,27Q12,26.9015086,12.019214999999999,26.80491Q12.03843,26.708311,12.076121,26.617317Q12.113812,26.526322,12.16853,26.44443Q12.223249,26.362537,12.292893,26.292893Q12.362537,26.223249,12.44443,26.16853Q12.526322,26.113812,12.617317,26.076121Q12.708311,26.038429999999998,12.80491,26.019215Q12.9015086,26,13,26Q13.0984914,26,13.19509,26.019215Q13.291689,26.038429999999998,13.382683,26.076121Q13.473678,26.113812,13.55557,26.16853Q13.637463,26.223249,13.707107,26.292893Q13.776751,26.362537,13.83147,26.44443Q13.886188,26.526322,13.923879,26.617317Q13.96157,26.708311,13.980785000000001,26.80491Q14,26.9015086,14,27Z" fill="#333333" fill-opacity="1"/></g></g></svg>