<svg width="16" height="17" viewBox="0 0 16 17" fill="none" xmlns="http://www.w3.org/2000/svg">
<g id="Frame">
<path id="Vector" d="M7.99992 12.5C10.4005 12.5 12.5047 10.7996 13.6785 9.61615C14.302 8.98762 14.302 8.01238 13.6785 7.38385C12.5047 6.20036 10.4005 4.5 7.99992 4.5C5.59936 4.5 3.49515 6.20036 2.3213 7.38385C1.69789 8.01238 1.69789 8.98762 2.3213 9.61615C3.49515 10.7996 5.59936 12.5 7.99992 12.5Z" stroke="#666666" stroke-linejoin="round"/>
<path id="Vector_2" d="M7.99992 10.1668C8.92039 10.1668 9.66659 9.42063 9.66659 8.50016C9.66659 7.5797 8.92039 6.8335 7.99992 6.8335C7.07945 6.8335 6.33325 7.5797 6.33325 8.50016C6.33325 9.42063 7.07945 10.1668 7.99992 10.1668Z" stroke="#666666" stroke-linejoin="round"/>
</g>
</svg>
