<svg xmlns="http://www.w3.org/2000/svg" xmlns:xlink="http://www.w3.org/1999/xlink" fill="none" version="1.1" width="40" height="40" viewBox="0 0 40 40"><defs><clipPath id="master_svg0_207_358"><rect x="0" y="0" width="40" height="40" rx="0"/></clipPath></defs><g clip-path="url(#master_svg0_207_358)"><g><rect x="0" y="0" width="40" height="40" rx="0" fill="#FFFFFF" fill-opacity="0.009999999776482582"/></g><g><path d="M4,13L4,17.8797Q4,18.02021,4.0387260000000005,18.15529Q4.077451,18.29037,4.151903,18.40954Q4.226355,18.52871,4.330767,18.62275Q4.435179,18.71679,4.561464,18.77841L5.610346,19.290219999999998Q7.0648599999999995,20,8.75001,20Q10.43515,20,11.889669999999999,19.29023L12.5,18.9924L13.11033,19.290219999999998Q14.56485,20,16.25,20Q17.9351,20,19.389699999999998,19.29023L20,18.9924L20.610300000000002,19.290219999999998Q22.0648,20,23.75,20Q25.4351,20,26.8897,19.29023L27.5,18.9924L28.1103,19.290219999999998Q29.5649,20,31.25,20Q32.935199999999995,20,34.389700000000005,19.29023L35.438500000000005,18.77841Q35.564800000000005,18.71678,35.669200000000004,18.62275Q35.773700000000005,18.52871,35.8481,18.40954Q35.9226,18.29036,35.9613,18.15529Q36,18.02021,36,17.8797L36,13Q36,12.9015086,35.9808,12.80491Q35.961600000000004,12.708311,35.9239,12.617317Q35.8862,12.526322,35.8315,12.44443Q35.776700000000005,12.362537,35.7071,12.292893Q35.6375,12.223249,35.5556,12.16853Q35.4737,12.113812,35.3827,12.076121Q35.2917,12.03843,35.1951,12.019214999999999Q35.0985,12,35,12L5,12Q4.9015086,12,4.80491,12.019214999999999Q4.708311,12.03843,4.617317,12.076121Q4.526322,12.113812,4.44443,12.16853Q4.362537,12.223249,4.292893,12.292893Q4.223249,12.362537,4.16853,12.44443Q4.113812,12.526322,4.076121,12.617317Q4.03843,12.708311,4.019215,12.80491Q4,12.9015086,4,13ZM6,17.25496L6.48745,17.49281Q7.526809999999999,18,8.75001,18Q9.9732,18,11.01258,17.49281L12.06146,16.98099Q12.1639,16.931,12.27496,16.90535Q12.38602,16.8797,12.5,16.8797Q12.61398,16.8797,12.72504,16.90535Q12.8361,16.931,12.93854,16.98099L13.98742,17.49281Q15.0268,18,16.25,18Q17.4732,18,18.5126,17.49281L19.561500000000002,16.98099Q19.663899999999998,16.931,19.775,16.90535Q19.886,16.8797,20,16.8797Q20.114,16.8797,20.225,16.90535Q20.336100000000002,16.931,20.438499999999998,16.98099L21.4874,17.49281Q22.5268,18,23.75,18Q24.9732,18,26.0126,17.49281L27.0615,16.98099Q27.1639,16.931,27.275,16.90535Q27.386,16.8797,27.5,16.8797Q27.614,16.8797,27.725,16.90535Q27.8361,16.931,27.9385,16.98099L28.9874,17.49281Q30.0268,18,31.25,18Q32.4732,18,33.5126,17.49281L34,17.25496L34,14L6,14L6,17.25496Z" fill-rule="evenodd" fill="#222222" fill-opacity="1"/></g><g><path d="M33,32L33,19Q33,18.9015086,32.9808,18.80491Q32.961600000000004,18.708311,32.9239,18.617317Q32.8862,18.526322,32.8315,18.44443Q32.776700000000005,18.362537,32.7071,18.292893Q32.6375,18.223249,32.5556,18.16853Q32.4737,18.113812,32.3827,18.076121Q32.2917,18.038429999999998,32.1951,18.019215Q32.0985,18,32,18Q31.9015,18,31.8049,18.019215Q31.7083,18.038429999999998,31.6173,18.076121Q31.5263,18.113812,31.4444,18.16853Q31.3625,18.223249,31.2929,18.292893Q31.2232,18.362537,31.1685,18.44443Q31.1138,18.526322,31.0761,18.617317Q31.0384,18.708311,31.0192,18.80491Q31,18.9015086,31,19L31,31L9,31L9,19.288895Q9,19.190404,8.980785000000001,19.0938047Q8.96157,18.99720575,8.923879,18.9062116Q8.886188,18.815217,8.83147,18.733325Q8.776751,18.651432,8.707107,18.581788Q8.637463,18.512144,8.55557,18.457425Q8.473678,18.402707,8.382683,18.365016Q8.291689,18.327325,8.19509,18.30811Q8.0984914,18.288895,8,18.288895Q7.9015086,18.288895,7.80491,18.30811Q7.708311,18.327325,7.617317,18.365016Q7.526322,18.402707,7.44443,18.457425Q7.362537,18.512144,7.292893,18.581788Q7.223249,18.651432,7.16853,18.733325Q7.113812,18.815217,7.076121,18.9062116Q7.03843,18.99720575,7.019215,19.0938047Q7,19.190404,7,19.288895L7,32Q7,32.0985,7.019215,32.1951Q7.03843,32.2917,7.076121,32.3827Q7.113812,32.4737,7.16853,32.5556Q7.223249,32.6375,7.292893,32.7071Q7.362537,32.7767,7.44443,32.8315Q7.526322,32.8862,7.617317,32.9239Q7.708311,32.961600000000004,7.80491,32.9808Q7.9015086,33,8,33L32,33Q32.0985,33,32.1951,32.9808Q32.2917,32.961600000000004,32.3827,32.9239Q32.4737,32.8862,32.5556,32.8315Q32.6375,32.7767,32.7071,32.7071Q32.776700000000005,32.6375,32.8315,32.5556Q32.8862,32.4737,32.9239,32.3827Q32.961600000000004,32.2917,32.9808,32.1951Q33,32.0985,33,32Z" fill-rule="evenodd" fill="#222222" fill-opacity="1"/></g><g><path d="M30,9L30,13Q30,13.09849,30.0192,13.19509Q30.0384,13.29169,30.0761,13.38268Q30.1138,13.47368,30.1685,13.55557Q30.2232,13.63746,30.2929,13.70711Q30.3625,13.77675,30.4444,13.83147Q30.5263,13.88619,30.6173,13.92388Q30.7083,13.96157,30.8049,13.98078Q30.9015,14,31,14Q31.0985,14,31.1951,13.98078Q31.2917,13.96157,31.3827,13.92388Q31.4737,13.88619,31.5556,13.83147Q31.6375,13.77675,31.7071,13.70711Q31.7768,13.63746,31.8315,13.55557Q31.8862,13.47368,31.9239,13.38268Q31.9616,13.29169,31.9808,13.19509Q32,13.09849,32,13L32,8Q32,7.9015086,31.9808,7.80491Q31.9616,7.708311,31.9239,7.617317Q31.8862,7.526322,31.8315,7.44443Q31.7768,7.362537,31.7071,7.292893Q31.6375,7.223249,31.5556,7.16853Q31.4737,7.113812,31.3827,7.076121Q31.2917,7.03843,31.1951,7.019215Q31.0985,7,31,7L9,7Q8.9015086,7,8.80491,7.019215Q8.708311,7.03843,8.617317,7.076121Q8.526322,7.113812,8.44443,7.16853Q8.362537,7.223249,8.292893,7.292893Q8.223249,7.362537,8.16853,7.44443Q8.113812,7.526322,8.076121,7.617317Q8.03843,7.708311,8.019214999999999,7.80491Q8,7.9015086,8,8L8,12.88888Q8,12.98737,8.019214999999999,13.08397Q8.03843,13.18056,8.076121,13.271560000000001Q8.113812,13.362549999999999,8.16853,13.44444Q8.223249,13.526340000000001,8.292893,13.59598Q8.362537,13.66563,8.44443,13.72034Q8.526322,13.77506,8.617317,13.812750000000001Q8.708311,13.850439999999999,8.80491,13.86966Q8.9015086,13.88887,9,13.88888Q9.0984914,13.88887,9.19509,13.86966Q9.291689,13.850439999999999,9.382683,13.812750000000001Q9.473678,13.77506,9.55557,13.72034Q9.637463,13.66563,9.707107,13.59598Q9.776751,13.526340000000001,9.83147,13.44444Q9.886188,13.362549999999999,9.923879,13.271560000000001Q9.96157,13.18056,9.980785000000001,13.08397Q10,12.98737,10,12.88888L10,9L30,9Z" fill-rule="evenodd" fill="#222222" fill-opacity="1"/></g><g><path d="M15,32L15,25Q15,24.9015086,15.019214999999999,24.80491Q15.03843,24.708311,15.076121,24.617317Q15.113812,24.526322,15.16853,24.44443Q15.223249,24.362537,15.292893,24.292893Q15.362537,24.223249,15.44443,24.16853Q15.526322,24.113812,15.617317,24.076121Q15.708311,24.038429999999998,15.80491,24.019215Q15.9015086,24,16,24L24,24Q24.098489999999998,24,24.19509,24.019215Q24.29169,24.038429999999998,24.38268,24.076121Q24.47368,24.113812,24.55557,24.16853Q24.63746,24.223249,24.70711,24.292893Q24.77675,24.362537,24.83147,24.44443Q24.88619,24.526322,24.92388,24.617317Q24.961570000000002,24.708311,24.98078,24.80491Q25,24.9015086,25,25L25,32Q25,32.09849,24.98078,32.19509Q24.961570000000002,32.29169,24.92388,32.38268Q24.88619,32.47368,24.83147,32.55557Q24.77675,32.63746,24.70711,32.70711Q24.63746,32.77675,24.55557,32.83147Q24.47368,32.88619,24.38268,32.92388Q24.29169,32.96157,24.19509,32.98078Q24.098489999999998,33,24,33L16,33Q15.9015086,33,15.80491,32.98078Q15.708311,32.96157,15.617317,32.92388Q15.526322,32.88619,15.44443,32.83147Q15.362537,32.77675,15.292893,32.70711Q15.223249,32.63746,15.16853,32.55557Q15.113812,32.47368,15.076121,32.38268Q15.03843,32.29169,15.019214999999999,32.19509Q15,32.09849,15,32ZM17,26L17,31L23,31L23,26L17,26Z" fill="#222222" fill-opacity="1"/></g></g></svg>