<svg xmlns="http://www.w3.org/2000/svg" xmlns:xlink="http://www.w3.org/1999/xlink" fill="none" version="1.1" width="40" height="40" viewBox="0 0 40 40"><defs><clipPath id="master_svg0_207_375"><rect x="0" y="0" width="40" height="40" rx="0"/></clipPath></defs><g clip-path="url(#master_svg0_207_375)"><g><path d="M27.77668828125,6.29986L30.73888828125,13.70476Q30.81278828125,13.88944,30.95168828125,14.03179Q31.09068828125,14.17414,31.27348828125,14.25249Q31.46218828125,14.33333,31.66738828125,14.33333L31.68008828125,14.33325Q31.86608828125,14.33089,32.03878828125,14.2618Q32.10798828125,14.23412,32.172288281250005,14.19648Q32.23668828125,14.15885,32.294688281250004,14.1121Q32.352688281249996,14.06534,32.403188281249996,14.0105Q32.453688281249995,13.95567,32.495488281250005,13.89395Q32.537188281249996,13.83224,32.56938828125,13.76501Q32.60158828125,13.69778,32.62338828125,13.62653Q32.645288281250004,13.55528,32.65628828125,13.48157Q32.66738828125,13.40787,32.66738828125,13.33334L32.66738828125,13.32975Q32.66668828125,13.13901,32.59588828125,12.96191L29.26218828125,4.628577Q29.22558828125,4.537134,29.17188828125,4.4545829999999995Q29.11818828125,4.372033,29.04938828125,4.301548Q28.98058828125,4.231064,28.89938828125,4.175353Q28.81818828125,4.119643,28.72758828125,4.080848Q28.63708828125,4.042053,28.54068828125,4.021663Q28.44438828125,4.001274,28.34588828125,4.000074Q28.24738828125,3.99887,28.15058828125,4.01691Q28.05378828125,4.034946,27.96228828125,4.071524L7.12961328125,12.40465L7.12909628125,12.40486Q6.94441028125,12.478729999999999,6.80205428125,12.61766Q6.65969828125,12.75659,6.58134228125,12.939409999999999Q6.50048828125,13.12808,6.50048828125,13.33333L6.50056828125,13.346Q6.5029252812500005,13.53201,6.57201228125,13.70473Q6.64588628125,13.88941,6.78481428125,14.03177Q6.92374128125,14.17412,7.10657028125,14.25248Q7.29523128125,14.33333,7.50048828125,14.33333L7.51315988125,14.33325Q7.69916528125,14.3309,7.87188028125,14.26181L27.77668828125,6.29986Z" fill-rule="evenodd" fill="#D91B1B" fill-opacity="1"/></g><g><path d="M3.333251953125,13.33331298828125L36.666551953125,13.33331298828125L36.666551953125,18.33331298828125C34.166551953125,18.33331298828125,31.666551953125,19.99998298828125,31.666551953125,22.91664298828125C31.666551953125,25.83331298828125,34.166551953125,28.33331298828125,36.666551953125,28.33331298828125L36.666551953125,33.33331298828125L3.333251953125,33.33331298828125L3.333251953125,28.33331298828125C5.833381953125,28.33331298828125,8.333251953125,26.66661298828125,8.333251953125,23.33331298828125C8.333251953125,19.99998298828125,5.833251953125,18.33331298828125,3.333251953125,18.33331298828125L3.333251953125,13.33331298828125Z" fill="#D91B1B" fill-opacity="1"/><path d="M2.333251953125,13.33331298828125L2.333251953125,18.33331298828125Q2.333251953125,18.431802988281248,2.352466953125,18.52840298828125Q2.371681953125,18.62500298828125,2.409372953125,18.71599298828125Q2.4470639531250002,18.80699298828125,2.501781953125,18.88888298828125Q2.556500953125,18.97077298828125,2.626144953125,19.04042298828125Q2.695788953125,19.11006298828125,2.777681953125,19.16478298828125Q2.859573953125,19.21950298828125,2.950568953125,19.25719298828125Q3.041562953125,19.294882988281252,3.138161953125,19.31409298828125Q3.234760553125,19.33331298828125,3.333251953125,19.33331298828125Q4.984301953125,19.33331298828125,6.106391953125,20.330722988281252Q7.333251953125,21.421272988281252,7.333251953125,23.33331298828125Q7.333251953125,25.245412988281252,6.106431953125,26.33591298828125Q4.984371953125,27.33331298828125,3.333251953125,27.33331298828125Q3.234760553125,27.33331298828125,3.138161953125,27.352512988281248Q3.041562953125,27.37171298828125,2.950568953125,27.40941298828125Q2.859573953125,27.447112988281248,2.777681953125,27.50181298828125Q2.695788953125,27.55651298828125,2.626144953125,27.62621298828125Q2.556500953125,27.69581298828125,2.501781953125,27.77771298828125Q2.4470639531250002,27.85961298828125,2.409372953125,27.95061298828125Q2.371681953125,28.04161298828125,2.352466953125,28.13821298828125Q2.333251953125,28.23481298828125,2.333251953125,28.33331298828125L2.333251953125,33.33331298828125Q2.333251953125,33.43181298828125,2.352466953125,33.52841298828125Q2.371681953125,33.62501298828125,2.409372953125,33.71601298828125Q2.4470639531250002,33.80701298828125,2.501781953125,33.88891298828125Q2.556500953125,33.97081298828125,2.626144953125,34.04041298828125Q2.695788953125,34.110012988281255,2.777681953125,34.16481298828125Q2.859573953125,34.21951298828125,2.950568953125,34.25721298828125Q3.041562953125,34.294912988281254,3.138161953125,34.31411298828125Q3.234760553125,34.33331298828125,3.333251953125,34.33331298828125L36.666551953125,34.33331298828125Q36.765051953125,34.33331298828125,36.861651953125,34.31411298828125Q36.958251953125,34.294912988281254,37.049251953125,34.25721298828125Q37.140251953125,34.21951298828125,37.222151953125,34.16481298828125Q37.304051953125,34.110012988281255,37.373651953125,34.04041298828125Q37.443351953125,33.97081298828125,37.498051953125,33.88891298828125Q37.552751953125,33.80701298828125,37.590451953125,33.71601298828125Q37.628151953125,33.62501298828125,37.647351953125,33.52841298828125Q37.666551953125,33.43181298828125,37.666551953125,33.33331298828125L37.666551953125,28.33331298828125Q37.666551953125,28.23481298828125,37.647351953125,28.13821298828125Q37.628151953125,28.04161298828125,37.590451953125,27.95061298828125Q37.552751953125,27.85961298828125,37.498051953125,27.77771298828125Q37.443351953125,27.69581298828125,37.373651953125,27.62621298828125Q37.304051953125,27.55651298828125,37.222151953125,27.50181298828125Q37.140251953125,27.447112988281248,37.049251953125,27.40941298828125Q36.958251953125,27.37171298828125,36.861651953125,27.352512988281248Q36.765051953125,27.33331298828125,36.666551953125,27.33331298828125Q35.188851953124995,27.33331298828125,33.955051953125,26.031012988281248Q32.666551953125,24.670912988281252,32.666551953125,22.91664298828125Q32.666551953125,21.30169298828125,33.869251953125,20.29945298828125Q35.028651953125,19.33331298828125,36.666551953125,19.33331298828125Q36.765051953125,19.33331298828125,36.861651953125,19.31409298828125Q36.958251953125,19.294882988281252,37.049251953125,19.25719298828125Q37.140251953125,19.21950298828125,37.222151953125,19.16478298828125Q37.304051953125,19.11006298828125,37.373651953125,19.04042298828125Q37.443351953125,18.97077298828125,37.498051953125,18.88888298828125Q37.552751953125,18.80699298828125,37.590451953125,18.71599298828125Q37.628151953125,18.62500298828125,37.647351953125,18.52840298828125Q37.666551953125,18.431802988281248,37.666551953125,18.33331298828125L37.666551953125,13.33331298828125Q37.666551953125,13.23482158828125,37.647351953125,13.13822298828125Q37.628151953125,13.04162398828125,37.590451953125,12.95062998828125Q37.552751953125,12.85963498828125,37.498051953125,12.77774298828125Q37.443351953125,12.69584998828125,37.373651953125,12.62620598828125Q37.304051953125,12.55656198828125,37.222151953125,12.50184298828125Q37.140251953125,12.44712498828125,37.049251953125,12.40943398828125Q36.958251953125,12.37174298828125,36.861651953125,12.352527988281249Q36.765051953125,12.33331298828125,36.666551953125,12.33331298828125L3.333251953125,12.33331298828125Q3.234760553125,12.33331298828125,3.138161953125,12.352527988281249Q3.041562953125,12.37174298828125,2.950568953125,12.40943398828125Q2.859573953125,12.44712498828125,2.777681953125,12.50184298828125Q2.695788953125,12.55656198828125,2.626144953125,12.62620598828125Q2.556500953125,12.69584998828125,2.501781953125,12.77774298828125Q2.4470639531250002,12.85963498828125,2.409372953125,12.95062998828125Q2.371681953125,13.04162398828125,2.352466953125,13.13822298828125Q2.333251953125,13.23482158828125,2.333251953125,13.33331298828125ZM4.333251953125,17.402252988281248Q6.106791953125001,17.65517298828125,7.435111953125,18.835902988281248Q9.333251953125,20.52313298828125,9.333251953125,23.33331298828125Q9.333251953125,26.143512988281252,7.435171953125,27.83071298828125Q6.106861953125,29.01141298828125,4.333251953125,29.26441298828125L4.333251953125,32.33331298828125L35.666551953125,32.33331298828125L35.666551953125,29.24081298828125Q33.928551953125,28.91111298828125,32.503151953125,27.40651298828125Q30.666551953125,25.46791298828125,30.666551953125,22.91664298828125Q30.666551953125,20.36494298828125,32.588851953125,18.76301298828125Q33.930151953125005,17.64526298828125,35.666551953125,17.40138298828125L35.666551953125,14.33331298828125L4.333251953125,14.33331298828125L4.333251953125,17.402252988281248Z" fill-rule="evenodd" fill="#D91B1B" fill-opacity="1"/></g><g><path d="M14.166748046875,22.15399169921875L19.166748046875,22.15399169921875Q19.265238046874998,22.15399169921875,19.361838046875,22.13477669921875Q19.458438046875,22.115561699218752,19.549428046875,22.07787069921875Q19.640428046875,22.04017969921875,19.722318046875,21.98546169921875Q19.804208046875,21.93074269921875,19.873858046875,21.86109869921875Q19.943498046875,21.79145469921875,19.998218046875,21.70956169921875Q20.052938046875,21.62766969921875,20.090628046875,21.53667469921875Q20.128318046875002,21.44568069921875,20.147528046875,21.34908169921875Q20.166748046875,21.25248309921875,20.166748046875,21.15399169921875Q20.166748046875,21.05550029921875,20.147528046875,20.95890169921875Q20.128318046875002,20.86230269921875,20.090628046875,20.77130869921875Q20.052938046875,20.68031369921875,19.998218046875,20.59842169921875Q19.943498046875,20.51652869921875,19.873858046875,20.44688469921875Q19.804208046875,20.37724069921875,19.722318046875,20.32252169921875Q19.640428046875,20.26780369921875,19.549428046875,20.23011269921875Q19.458438046875,20.192421699218748,19.361838046875,20.17320669921875Q19.265238046874998,20.15399169921875,19.166748046875,20.15399169921875L14.166748046875,20.15399169921875Q14.068256646875,20.15399169921875,13.971658046875,20.17320669921875Q13.875059046875,20.192421699218748,13.784065046875,20.23011269921875Q13.693070046875,20.26780369921875,13.611178046875,20.32252169921875Q13.529285046875,20.37724069921875,13.459641046875,20.44688469921875Q13.389997046875,20.51652869921875,13.335278046875,20.59842169921875Q13.280560046875,20.68031369921875,13.242869046875,20.77130869921875Q13.205178046875,20.86230269921875,13.185963046874999,20.95890169921875Q13.166748046875,21.05550029921875,13.166748046875,21.15399169921875Q13.166748046875,21.25248309921875,13.185963046874999,21.34908169921875Q13.205178046875,21.44568069921875,13.242869046875,21.53667469921875Q13.280560046875,21.62766969921875,13.335278046875,21.70956169921875Q13.389997046875,21.79145469921875,13.459641046875,21.86109869921875Q13.529285046875,21.93074269921875,13.611178046875,21.98546169921875Q13.693070046875,22.04017969921875,13.784065046875,22.07787069921875Q13.875059046875,22.115561699218752,13.971658046875,22.13477669921875Q14.068256646875,22.15399169921875,14.166748046875,22.15399169921875Z" fill-rule="evenodd" fill="#FFFFFF" fill-opacity="1"/></g><g><path d="M14.166748046875,27.15399169921875L25.833448046875,27.15399169921875Q25.931948046875,27.15399169921875,26.028548046875002,27.13477669921875Q26.125148046874997,27.115561699218752,26.216048046875002,27.07787069921875Q26.307048046875,27.04017969921875,26.388948046875,26.98546169921875Q26.470848046875,26.93074269921875,26.540548046875,26.86109869921875Q26.610148046875,26.79145469921875,26.664848046875,26.70956169921875Q26.719648046875,26.62766969921875,26.757248046875,26.53667469921875Q26.794948046875,26.44568069921875,26.814248046875,26.34908169921875Q26.833448046875,26.25248309921875,26.833448046875,26.15399169921875Q26.833448046875,26.05550029921875,26.814248046875,25.95890169921875Q26.794948046875,25.86230269921875,26.757248046875,25.77130869921875Q26.719648046875,25.68031369921875,26.664848046875,25.59842169921875Q26.610148046875,25.51652869921875,26.540548046875,25.44688469921875Q26.470848046875,25.37724069921875,26.388948046875,25.32252169921875Q26.307048046875,25.26780369921875,26.216048046875002,25.23011269921875Q26.125148046874997,25.192421699218748,26.028548046875002,25.17320669921875Q25.931948046875,25.15399169921875,25.833448046875,25.15399169921875L14.166748046875,25.15399169921875Q14.068256646875,25.15399169921875,13.971658046875,25.17320669921875Q13.875059046875,25.192421699218748,13.784065046875,25.23011269921875Q13.693070046875,25.26780369921875,13.611178046875,25.32252169921875Q13.529285046875,25.37724069921875,13.459641046875,25.44688469921875Q13.389997046875,25.51652869921875,13.335278046875,25.59842169921875Q13.280560046875,25.68031369921875,13.242869046875,25.77130869921875Q13.205178046875,25.86230269921875,13.185963046874999,25.95890169921875Q13.166748046875,26.05550029921875,13.166748046875,26.15399169921875Q13.166748046875,26.25248309921875,13.185963046874999,26.34908169921875Q13.205178046875,26.44568069921875,13.242869046875,26.53667469921875Q13.280560046875,26.62766969921875,13.335278046875,26.70956169921875Q13.389997046875,26.79145469921875,13.459641046875,26.86109869921875Q13.529285046875,26.93074269921875,13.611178046875,26.98546169921875Q13.693070046875,27.04017969921875,13.784065046875,27.07787069921875Q13.875059046875,27.115561699218752,13.971658046875,27.13477669921875Q14.068256646875,27.15399169921875,14.166748046875,27.15399169921875Z" fill-rule="evenodd" fill="#FFFFFF" fill-opacity="1"/></g></g></svg>