<svg xmlns="http://www.w3.org/2000/svg" xmlns:xlink="http://www.w3.org/1999/xlink" fill="none" version="1.1" width="40" height="40" viewBox="0 0 40 40"><defs><clipPath id="master_svg0_209_356"><rect x="0" y="0" width="40" height="40" rx="0"/></clipPath></defs><g clip-path="url(#master_svg0_209_356)"><g><rect x="0" y="0" width="40" height="40" rx="0" fill="#FFFFFF" fill-opacity="0.009999999776482582"/></g><g><path d="M13.333418046875,24.58333Q13.333418046875,24.68568,13.323388046875,24.78754Q13.313348046875,24.88939,13.293388046875,24.98977Q13.273418046875001,25.09015,13.243708046875,25.18809Q13.213998046875,25.28603,13.174828046875,25.38059Q13.135668046875,25.47515,13.087418046875,25.56541Q13.039168046875,25.65567,12.982308046875,25.74077Q12.925448046875001,25.825870000000002,12.860518046875,25.90499Q12.795588046875,25.9841,12.723218046875001,26.05647Q12.650848046875,26.12884,12.571738046875,26.19377Q12.492618046875,26.2587,12.407518046875,26.31556Q12.322418046875,26.372419999999998,12.232158046875,26.42067Q12.141898046875,26.46892,12.047338046875,26.50808Q11.952778046875,26.54725,11.854838046874999,26.57696Q11.756898046875,26.60667,11.656518046875,26.626640000000002Q11.556138046875,26.6466,11.454288046875,26.65664Q11.352428046875,26.66667,11.250078046875,26.66667Q11.147738046875,26.66667,11.045878046875,26.65664Q10.944028046875,26.6466,10.843648046875,26.626640000000002Q10.743258046875,26.60667,10.645318046875,26.57696Q10.547378046875,26.54725,10.452828046875,26.50808Q10.358268046875,26.46892,10.268008046875,26.42067Q10.177738046875,26.372419999999998,10.092643046875,26.31556Q10.007544046875,26.2587,9.928429046875,26.19377Q9.849313046875,26.12884,9.776942046875,26.05647Q9.704572046875,25.9841,9.639643046875,25.90499Q9.574714046875,25.825870000000002,9.517853046875,25.74077Q9.460992046875,25.65567,9.412745046875,25.56541Q9.364499046875,25.47515,9.325332046875,25.38059Q9.286166046875,25.28603,9.256455646875,25.18809Q9.226745746875,25.09015,9.206778746875,24.98977Q9.186811646875,24.88939,9.176779846875,24.78754Q9.166748046875,24.68568,9.166748046875,24.58333Q9.166748046875,24.48099,9.176779846875,24.37913Q9.186811646875,24.27728,9.206778746875,24.1769Q9.226745746875,24.07651,9.256455646875,23.97857Q9.286166046875,23.88063,9.325332046875,23.78608Q9.364499046875,23.69152,9.412745046875,23.60126Q9.460992046875,23.51099,9.517853046875,23.425895Q9.574714046875,23.340796,9.639643046875,23.261681Q9.704572046875,23.182565,9.776942046875,23.110194Q9.849313046875,23.037824,9.928429046875,22.972895Q10.007544046875,22.907966,10.092643046875,22.851105Q10.177738046875,22.794244,10.268008046875,22.745997Q10.358268046875,22.697751,10.452828046875,22.658584Q10.547378046875,22.619418,10.645318046875,22.5897076Q10.743258046875,22.5599977,10.843648046875,22.5400307Q10.944028046875,22.5200636,11.045878046875,22.5100318Q11.147738046875,22.5,11.250078046875,22.5Q11.352428046875,22.5,11.454288046875,22.5100318Q11.556138046875,22.5200636,11.656518046875,22.5400307Q11.756898046875,22.5599977,11.854838046874999,22.5897076Q11.952778046875,22.619418,12.047338046875,22.658584Q12.141898046875,22.697751,12.232158046875,22.745997Q12.322418046875,22.794244,12.407518046875,22.851105Q12.492618046875,22.907966,12.571738046875,22.972895Q12.650848046875,23.037824,12.723218046875001,23.110194Q12.795588046875,23.182565,12.860518046875,23.261681Q12.925448046875001,23.340796,12.982308046875,23.425895Q13.039168046875,23.51099,13.087418046875,23.60126Q13.135668046875,23.69152,13.174828046875,23.78608Q13.213998046875,23.88063,13.243708046875,23.97857Q13.273418046875001,24.07651,13.293388046875,24.1769Q13.313348046875,24.27728,13.323388046875,24.37913Q13.333418046875,24.48099,13.333418046875,24.58333Z" fill="#222222" fill-opacity="1"/></g><g><path d="M30.833418046875,24.58333Q30.833418046875,24.68568,30.823388046875,24.78754Q30.813348046875,24.88939,30.793388046875002,24.98977Q30.773418046875,25.09015,30.743708046875,25.18809Q30.713998046875,25.28603,30.674828046875,25.38059Q30.635668046875,25.47515,30.587418046875,25.56541Q30.539168046874998,25.65567,30.482308046875,25.74077Q30.425448046875,25.825870000000002,30.360518046875,25.90499Q30.295588046875,25.9841,30.223218046875,26.05647Q30.150848046875,26.12884,30.071738046875,26.19377Q29.992618046875002,26.2587,29.907518046875,26.31556Q29.822418046875,26.372419999999998,29.732158046875,26.42067Q29.641898046875,26.46892,29.547338046875,26.50808Q29.452778046875,26.54725,29.354838046875,26.57696Q29.256898046875,26.60667,29.156518046875,26.626640000000002Q29.056138046875,26.6466,28.954288046875,26.65664Q28.852428046875,26.66667,28.750078046875,26.66667Q28.647738046875,26.66667,28.545878046875,26.65664Q28.444028046875,26.6466,28.343648046875,26.626640000000002Q28.243258046875,26.60667,28.145318046875,26.57696Q28.047378046875,26.54725,27.952828046875,26.50808Q27.858268046875,26.46892,27.768008046875,26.42067Q27.677738046875,26.372419999999998,27.592643046875,26.31556Q27.507544046875,26.2587,27.428429046875,26.19377Q27.349313046875,26.12884,27.276942046875,26.05647Q27.204572046875,25.9841,27.139643046875,25.90499Q27.074714046875,25.825870000000002,27.017853046875,25.74077Q26.960992046875,25.65567,26.912745046875,25.56541Q26.864499046875,25.47515,26.825332046875,25.38059Q26.786166046875,25.28603,26.756455646875,25.18809Q26.726745746875,25.09015,26.706778746875,24.98977Q26.686811646875,24.88939,26.676779846875,24.78754Q26.666748046875,24.68568,26.666748046875,24.58333Q26.666748046875,24.48099,26.676779846875,24.37913Q26.686811646875,24.27728,26.706778746875,24.1769Q26.726745746875,24.07651,26.756455646875,23.97857Q26.786166046875,23.88063,26.825332046875,23.78608Q26.864499046875,23.69152,26.912745046875,23.60126Q26.960992046875,23.51099,27.017853046875,23.425895Q27.074714046875,23.340796,27.139643046875,23.261681Q27.204572046875,23.182565,27.276942046875,23.110194Q27.349313046875,23.037824,27.428429046875,22.972895Q27.507544046875,22.907966,27.592643046875,22.851105Q27.677738046875,22.794244,27.768008046875,22.745997Q27.858268046875,22.697751,27.952828046875,22.658584Q28.047378046875,22.619418,28.145318046875,22.5897076Q28.243258046875,22.5599977,28.343648046875,22.5400307Q28.444028046875,22.5200636,28.545878046875,22.5100318Q28.647738046875,22.5,28.750078046875,22.5Q28.852428046875,22.5,28.954288046875,22.5100318Q29.056138046875,22.5200636,29.156518046875,22.5400307Q29.256898046875,22.5599977,29.354838046875,22.5897076Q29.452778046875,22.619418,29.547338046875,22.658584Q29.641898046875,22.697751,29.732158046875,22.745997Q29.822418046875,22.794244,29.907518046875,22.851105Q29.992618046875002,22.907966,30.071738046875,22.972895Q30.150848046875,23.037824,30.223218046875,23.110194Q30.295588046875,23.182565,30.360518046875,23.261681Q30.425448046875,23.340796,30.482308046875,23.425895Q30.539168046874998,23.51099,30.587418046875,23.60126Q30.635668046875,23.69152,30.674828046875,23.78608Q30.713998046875,23.88063,30.743708046875,23.97857Q30.773418046875,24.07651,30.793388046875002,24.1769Q30.813348046875,24.27728,30.823388046875,24.37913Q30.833418046875,24.48099,30.833418046875,24.58333Z" fill="#222222" fill-opacity="1"/></g><g><path d="M6.5031219531249995,31.8333L5.833251953125,31.8333Q4.383501953125,31.8333,3.358383553125,30.8082Q2.333251953125,29.7831,2.333251953125,28.3333L2.333251953125,20.5914Q2.333251953125,18.886400000000002,3.229897953125,17.4361Q4.126563953125,15.9858,5.651881953125001,15.2239L5.799801953125,15.15L7.618111953125,7.349600000000001Q7.961071953125,5.878351,9.144311953125001,4.9391822Q10.327561953124999,4,11.838251953125,4L28.245151953125,4Q29.767151953125,4,30.954851953125,4.9517201Q32.142651953125,5.903468,32.474351953125,7.38888L34.208151953125,15.1527L34.349951953125,15.2235Q35.874451953125,15.9859,36.770551953125,17.4358Q37.666551953125,18.8857,37.666551953125,20.5901L37.666551953125,28.3333Q37.666551953125,29.7831,36.641451953125,30.8082Q35.616351953125,31.8333,34.166551953125,31.8333L33.499751953125,31.8333Q33.443151953124996,33.5209,32.232451953125,34.731Q30.962751953125,36,29.167951953125,36Q27.373051953125,36,26.103251953125,34.731Q24.892651953125,33.5209,24.836051953125,31.8333L15.163851953125,31.8333Q15.107351953125,33.521,13.897451953125,34.7309Q12.628341953125,36,10.833501953125001,36Q9.038661953125,36,7.769521953125,34.7309Q6.559601953125,33.521,6.5031219531249995,31.8333ZM8.500361953125001,30.8333Q8.500361953125001,30.7348,8.481141953125,30.6382Q8.461931953125,30.5416,8.424241953125,30.4506Q8.386551953125,30.3597,8.331831953125,30.2778Q8.277111953125,30.1959,8.207471953125001,30.1262Q8.137821953125,30.0566,8.055931953125,30.0019Q7.974041953125,29.9471,7.883041953125,29.9095Q7.792051953125,29.8718,7.695451953125,29.8526Q7.598851953125,29.8333,7.500361953125,29.8333L5.833251953125,29.8333Q5.211921953125,29.8333,4.772591953125,29.394Q4.333251953125,28.9547,4.333251953125,28.3333L4.333251953125,20.5914Q4.333251953125,19.454700000000003,4.931021953125,18.4879Q5.528781953125,17.521,6.545621953125,17.0131L7.113961953125,16.729100000000003Q7.212591953125,16.6799,7.298111953125,16.610300000000002Q7.383631953125,16.5407,7.451941953125,16.4542Q7.520251953125,16.3677,7.568071953125,16.2683Q7.615891953125,16.169,7.640921953125,16.0616L9.565891953125,7.80364Q9.750561953125,7.01141,10.387691953125,6.5057Q11.024821953124999,6,11.838251953125,6L28.245151953125,6Q29.064751953125,6,29.704251953125,6.51247Q30.343751953125,7.0249299999999995,30.522351953125,7.82472L32.359851953125,16.052500000000002Q32.384151953125,16.1613,32.431751953125,16.262Q32.479351953125004,16.3627,32.547951953125,16.450400000000002Q32.616551953125,16.5382,32.702851953125,16.6087Q32.789051953124996,16.6792,32.888651953125,16.729L33.455551953124996,17.0125Q34.471851953125,17.5206,35.069251953125004,18.4872Q35.666551953125,19.4538,35.666551953125,20.5901L35.666551953125,28.3333Q35.666551953125,28.9547,35.227251953125,29.394Q34.787951953125,29.8333,34.166551953125,29.8333L32.502551953125,29.8333Q32.404051953125,29.8333,32.307451953124996,29.8526Q32.210851953125,29.8718,32.119851953125,29.9095Q32.028851953125,29.9471,31.946951953125,30.0019Q31.865051953125,30.0566,31.795351953125,30.1262Q31.725751953125,30.1959,31.671051953125,30.2778Q31.616351953125,30.3597,31.578651953125,30.4506Q31.540951953125,30.5416,31.521751953125,30.6382Q31.502551953125,30.7348,31.502551953125,30.8333L31.502551953125,31.6667Q31.502551953125,32.6329,30.818651953125,33.3164Q30.134651953125,34,29.167951953125,34Q28.201151953125,34,27.517151953125,33.3164Q26.833251953125,32.6329,26.833251953125,31.6667L26.833251953125,30.8333Q26.833251953125,30.7348,26.814051953125,30.6382Q26.794851953125,30.5416,26.757151953125,30.4506Q26.719451953125,30.3597,26.664751953125,30.2778Q26.610051953125,30.1959,26.540351953125,30.1262Q26.470751953125,30.0566,26.388851953125,30.0019Q26.306951953125,29.9471,26.215951953125,29.9095Q26.124951953125,29.8718,26.028351953125,29.8526Q25.931751953125,29.8333,25.833251953125,29.8333L14.166551953125,29.8333Q14.068051953125,29.8333,13.971451953125,29.8526Q13.874851953125,29.8718,13.783951953125,29.9095Q13.692951953125,29.9471,13.611051953125,30.0019Q13.529151953125,30.0566,13.459451953125,30.1262Q13.389851953125,30.1959,13.335151953125,30.2778Q13.280391953125,30.3597,13.242701953125,30.4506Q13.205011953125,30.5416,13.185801953125,30.6382Q13.166581953125,30.7348,13.166581953125,30.8333L13.166581953125,31.6669Q13.166581953125,32.6333,12.483251953125,33.3167Q11.799911953125,34,10.833501953125001,34Q9.867081953125,34,9.183711953125,33.3167Q8.500361953125001,32.6333,8.500361953125001,31.6669L8.500361953125001,30.8333Z" fill-rule="evenodd" fill="#222222" fill-opacity="1"/></g><g><path d="M13.001728046875,10.4199470234375Q12.270546046875,11.0065000234375,12.067229046875,11.9215240234375L12.067220046875,11.9215640234375L10.690562046875,18.116444023437502Q10.669196046875,18.2125840234375,10.666997046875,18.3110540234375Q10.664798046875,18.4095240234375,10.681853046875,18.5065240234375Q10.698906046875,18.6035240234375,10.734557046875,18.6953440234375Q10.770208046875,18.787154023437502,10.823085046875,18.8702440234375Q10.875962046875,18.953344023437502,10.944035046875,19.0245240234375Q11.012107046875,19.0957040234375,11.092757046875,19.1522340234375Q11.173408046875,19.2087640234375,11.263539046875,19.2484840234375Q11.353669046875,19.288194023437498,11.449815046875,19.309564023437503Q11.556974046875,19.3333740234375,11.666748046875,19.3333740234375L28.333448046875,19.3333740234375Q28.431948046875,19.3333740234375,28.528548046875,19.3141540234375Q28.625148046875,19.294944023437502,28.716048046875,19.2572540234375Q28.807048046875,19.2195640234375,28.888948046875,19.1648440234375Q28.970848046875,19.1101240234375,29.040548046875,19.0404840234375Q29.110148046875,18.9708340234375,29.164848046875,18.8889440234375Q29.219648046875,18.8070540234375,29.257248046875,18.7160540234375Q29.294948046875,18.6250640234375,29.314148046875,18.5284640234375Q29.333448046875,18.431864023437498,29.333448046875,18.3333740234375Q29.333448046875,18.2236040234375,29.309648046875,18.116444023437502L27.932948046875,11.9215240234375Q27.729648046875,11.0065110234375,26.998448046874998,10.4199470234375Q26.267248046875,9.8333740234375,25.329848046875,9.8333740234375L14.670328046875,9.8333740234375Q13.732928046875,9.8333740234375,13.001728046875,10.4199470234375ZM12.913368046875,17.3333740234375L14.019598046875,12.3553940234375L14.019608046875,12.3553540234375Q14.135588046875,11.8333740234375,14.670328046875,11.8333740234375L25.329848046875,11.8333740234375Q25.864548046875,11.8333740234375,25.980548046875,12.3553940234375L27.086748046875,17.3333740234375L12.913368046875,17.3333740234375Z" fill-rule="evenodd" fill="#222222" fill-opacity="1"/></g></g></svg>