<svg xmlns="http://www.w3.org/2000/svg" xmlns:xlink="http://www.w3.org/1999/xlink" fill="none" version="1.1" width="40" height="40" viewBox="0 0 40 40"><defs><clipPath id="master_svg0_28_22"><rect x="0" y="0" width="40" height="40" rx="0"/></clipPath></defs><g clip-path="url(#master_svg0_28_22)"><g><rect x="2" y="2" width="37" height="37" rx="0" fill="#FFFFFF" fill-opacity="0.009999999776482582"/></g><g><path d="M4,17L4,33.434799999999996Q4,34.5096,4.785603,35.2632Q5.553648,36,6.63158,36L34.3684,36Q35.4464,36,36.2144,35.2632Q37,34.5096,37,33.434799999999996L37,17Q37,16.9015086,36.9808,16.80491Q36.961600000000004,16.708311,36.9239,16.617317Q36.8862,16.526322,36.8315,16.44443Q36.776700000000005,16.362537,36.7071,16.292893Q36.6375,16.223249,36.5556,16.16853Q36.4737,16.113812,36.3827,16.076121Q36.2917,16.038429999999998,36.1951,16.019215Q36.0985,16,36,16L5,16Q4.9015086,16,4.80491,16.019215Q4.708311,16.038429999999998,4.617317,16.076121Q4.526322,16.113812,4.44443,16.16853Q4.362537,16.223249,4.292893,16.292893Q4.223249,16.362537,4.16853,16.44443Q4.113812,16.526322,4.076121,16.617317Q4.03843,16.708311,4.019215,16.80491Q4,16.9015086,4,17ZM6.17015,33.819900000000004Q6,33.6567,6,33.434799999999996L6,18L35,18L35,33.434799999999996Q35,33.6567,34.8298,33.819900000000004Q34.6422,34,34.3684,34L6.63158,34Q6.3578600000000005,34,6.17015,33.819900000000004Z" fill-rule="evenodd" fill="#222222" fill-opacity="1"/></g><g><path d="M4,9.5L4,17Q4,17.098489999999998,4.019215,17.19509Q4.03843,17.29169,4.076121,17.38268Q4.113812,17.47368,4.16853,17.55557Q4.223249,17.63746,4.292893,17.70711Q4.362537,17.77675,4.44443,17.83147Q4.526322,17.88619,4.617317,17.92388Q4.708311,17.961570000000002,4.80491,17.98078Q4.9015086,18,5,18L36,18Q36.0985,18,36.1951,17.98078Q36.2917,17.961570000000002,36.3827,17.92388Q36.4737,17.88619,36.5556,17.83147Q36.6375,17.77675,36.7071,17.70711Q36.776700000000005,17.63746,36.8315,17.55557Q36.8862,17.47368,36.9239,17.38268Q36.961600000000004,17.29169,36.9808,17.19509Q37,17.098489999999998,37,17L37,9.5Q37,8.439648,36.198899999999995,7.703176Q35.4341,7,34.3684,7L6.63158,7Q5.565933,7,4.801079,7.703172Q4,8.439648,4,9.5ZM6,16L35,16L35,9.5Q35,9.3177,34.8453,9.1755Q34.654399999999995,9,34.3684,9L6.63158,9Q6.34558,9,6.15468,9.17551Q6,9.31771,6,9.5L6,16Z" fill-rule="evenodd" fill="#222222" fill-opacity="1"/></g><g><path d="M13,5L13,11Q13,11.09849,13.019214999999999,11.19509Q13.03843,11.29169,13.076121,11.38268Q13.113812,11.47368,13.16853,11.55557Q13.223249,11.63746,13.292893,11.70711Q13.362537,11.77675,13.44443,11.83147Q13.526322,11.88619,13.617317,11.92388Q13.708311,11.96157,13.80491,11.98078Q13.9015086,12,14,12Q14.0984914,12,14.19509,11.98078Q14.291689,11.96157,14.382683,11.92388Q14.473678,11.88619,14.55557,11.83147Q14.637463,11.77675,14.707107,11.70711Q14.776751,11.63746,14.83147,11.55557Q14.886188,11.47368,14.923879,11.38268Q14.96157,11.29169,14.980785000000001,11.19509Q15,11.09849,15,11L15,5Q15,4.9015086,14.980785000000001,4.80491Q14.96157,4.708311,14.923879,4.617317Q14.886188,4.526322,14.83147,4.44443Q14.776751,4.362537,14.707107,4.292893Q14.637463,4.223249,14.55557,4.16853Q14.473678,4.113812,14.382683,4.076121Q14.291689,4.03843,14.19509,4.019215Q14.0984914,4,14,4Q13.9015086,4,13.80491,4.019215Q13.708311,4.03843,13.617317,4.076121Q13.526322,4.113812,13.44443,4.16853Q13.362537,4.223249,13.292893,4.292893Q13.223249,4.362537,13.16853,4.44443Q13.113812,4.526322,13.076121,4.617317Q13.03843,4.708311,13.019214999999999,4.80491Q13,4.9015086,13,5Z" fill-rule="evenodd" fill="#222222" fill-opacity="1"/></g><g><path d="M26,5L26,11Q26,11.09849,26.019215,11.19509Q26.038429999999998,11.29169,26.076121,11.38268Q26.113812,11.47368,26.16853,11.55557Q26.223249,11.63746,26.292893,11.70711Q26.362537,11.77675,26.44443,11.83147Q26.526322,11.88619,26.617317,11.92388Q26.708311,11.96157,26.80491,11.98078Q26.9015086,12,27,12Q27.0984914,12,27.19509,11.98078Q27.291689,11.96157,27.382683,11.92388Q27.473678,11.88619,27.55557,11.83147Q27.637463,11.77675,27.707107,11.70711Q27.776751,11.63746,27.83147,11.55557Q27.886188,11.47368,27.923879,11.38268Q27.961570000000002,11.29169,27.980785,11.19509Q28,11.09849,28,11L28,5Q28,4.9015086,27.980785,4.80491Q27.961570000000002,4.708311,27.923879,4.617317Q27.886188,4.526322,27.83147,4.44443Q27.776751,4.362537,27.707107,4.292893Q27.637463,4.223249,27.55557,4.16853Q27.473678,4.113812,27.382683,4.076121Q27.291689,4.03843,27.19509,4.019215Q27.0984914,4,27,4Q26.9015086,4,26.80491,4.019215Q26.708311,4.03843,26.617317,4.076121Q26.526322,4.113812,26.44443,4.16853Q26.362537,4.223249,26.292893,4.292893Q26.223249,4.362537,26.16853,4.44443Q26.113812,4.526322,26.076121,4.617317Q26.038429999999998,4.708311,26.019215,4.80491Q26,4.9015086,26,5Z" fill-rule="evenodd" fill="#222222" fill-opacity="1"/></g><g><path d="M23,29L28,29Q28.098489999999998,29,28.19509,28.980785Q28.29169,28.961570000000002,28.38268,28.923879Q28.47368,28.886188,28.55557,28.83147Q28.63746,28.776751,28.70711,28.707107Q28.77675,28.637463,28.83147,28.55557Q28.88619,28.473678,28.92388,28.382683Q28.961570000000002,28.291689,28.98078,28.19509Q29,28.0984914,29,28Q29,27.9015086,28.98078,27.80491Q28.961570000000002,27.708311,28.92388,27.617317Q28.88619,27.526322,28.83147,27.44443Q28.77675,27.362537,28.70711,27.292893Q28.63746,27.223249,28.55557,27.16853Q28.47368,27.113812,28.38268,27.076121Q28.29169,27.038429999999998,28.19509,27.019215Q28.098489999999998,27,28,27L23,27Q22.9015086,27,22.80491,27.019215Q22.708311,27.038429999999998,22.617317,27.076121Q22.526322,27.113812,22.44443,27.16853Q22.362537,27.223249,22.292893,27.292893Q22.223249,27.362537,22.16853,27.44443Q22.113812,27.526322,22.076121,27.617317Q22.038429999999998,27.708311,22.019215,27.80491Q22,27.9015086,22,28Q22,28.0984914,22.019215,28.19509Q22.038429999999998,28.291689,22.076121,28.382683Q22.113812,28.473678,22.16853,28.55557Q22.223249,28.637463,22.292893,28.707107Q22.362537,28.776751,22.44443,28.83147Q22.526322,28.886188,22.617317,28.923879Q22.708311,28.961570000000002,22.80491,28.980785Q22.9015086,29,23,29Z" fill-rule="evenodd" fill="#D91B1B" fill-opacity="1"/></g><g><path d="M13,29L18,29Q18.098489999999998,29,18.19509,28.980785Q18.29169,28.961570000000002,18.38268,28.923879Q18.47368,28.886188,18.55557,28.83147Q18.63746,28.776751,18.70711,28.707107Q18.77675,28.637463,18.83147,28.55557Q18.88619,28.473678,18.92388,28.382683Q18.961570000000002,28.291689,18.98078,28.19509Q19,28.0984914,19,28Q19,27.9015086,18.98078,27.80491Q18.961570000000002,27.708311,18.92388,27.617317Q18.88619,27.526322,18.83147,27.44443Q18.77675,27.362537,18.70711,27.292893Q18.63746,27.223249,18.55557,27.16853Q18.47368,27.113812,18.38268,27.076121Q18.29169,27.038429999999998,18.19509,27.019215Q18.098489999999998,27,18,27L13,27Q12.9015086,27,12.80491,27.019215Q12.708311,27.038429999999998,12.617317,27.076121Q12.526322,27.113812,12.44443,27.16853Q12.362537,27.223249,12.292893,27.292893Q12.223249,27.362537,12.16853,27.44443Q12.113812,27.526322,12.076121,27.617317Q12.03843,27.708311,12.019214999999999,27.80491Q12,27.9015086,12,28Q12,28.0984914,12.019214999999999,28.19509Q12.03843,28.291689,12.076121,28.382683Q12.113812,28.473678,12.16853,28.55557Q12.223249,28.637463,12.292893,28.707107Q12.362537,28.776751,12.44443,28.83147Q12.526322,28.886188,12.617317,28.923879Q12.708311,28.961570000000002,12.80491,28.980785Q12.9015086,29,13,29Z" fill-rule="evenodd" fill="#D91B1B" fill-opacity="1"/></g><g><path d="M23,23L28,23Q28.098489999999998,23,28.19509,22.980785Q28.29169,22.961570000000002,28.38268,22.923879Q28.47368,22.886188,28.55557,22.83147Q28.63746,22.776751,28.70711,22.707107Q28.77675,22.637463,28.83147,22.55557Q28.88619,22.473678,28.92388,22.382683Q28.961570000000002,22.291689,28.98078,22.19509Q29,22.0984914,29,22Q29,21.9015086,28.98078,21.80491Q28.961570000000002,21.708311,28.92388,21.617317Q28.88619,21.526322,28.83147,21.44443Q28.77675,21.362537,28.70711,21.292893Q28.63746,21.223249,28.55557,21.16853Q28.47368,21.113812,28.38268,21.076121Q28.29169,21.038429999999998,28.19509,21.019215Q28.098489999999998,21,28,21L23,21Q22.9015086,21,22.80491,21.019215Q22.708311,21.038429999999998,22.617317,21.076121Q22.526322,21.113812,22.44443,21.16853Q22.362537,21.223249,22.292893,21.292893Q22.223249,21.362537,22.16853,21.44443Q22.113812,21.526322,22.076121,21.617317Q22.038429999999998,21.708311,22.019215,21.80491Q22,21.9015086,22,22Q22,22.0984914,22.019215,22.19509Q22.038429999999998,22.291689,22.076121,22.382683Q22.113812,22.473678,22.16853,22.55557Q22.223249,22.637463,22.292893,22.707107Q22.362537,22.776751,22.44443,22.83147Q22.526322,22.886188,22.617317,22.923879Q22.708311,22.961570000000002,22.80491,22.980785Q22.9015086,23,23,23Z" fill-rule="evenodd" fill="#D91B1B" fill-opacity="1"/></g><g><path d="M13,23L18,23Q18.098489999999998,23,18.19509,22.980785Q18.29169,22.961570000000002,18.38268,22.923879Q18.47368,22.886188,18.55557,22.83147Q18.63746,22.776751,18.70711,22.707107Q18.77675,22.637463,18.83147,22.55557Q18.88619,22.473678,18.92388,22.382683Q18.961570000000002,22.291689,18.98078,22.19509Q19,22.0984914,19,22Q19,21.9015086,18.98078,21.80491Q18.961570000000002,21.708311,18.92388,21.617317Q18.88619,21.526322,18.83147,21.44443Q18.77675,21.362537,18.70711,21.292893Q18.63746,21.223249,18.55557,21.16853Q18.47368,21.113812,18.38268,21.076121Q18.29169,21.038429999999998,18.19509,21.019215Q18.098489999999998,21,18,21L13,21Q12.9015086,21,12.80491,21.019215Q12.708311,21.038429999999998,12.617317,21.076121Q12.526322,21.113812,12.44443,21.16853Q12.362537,21.223249,12.292893,21.292893Q12.223249,21.362537,12.16853,21.44443Q12.113812,21.526322,12.076121,21.617317Q12.03843,21.708311,12.019214999999999,21.80491Q12,21.9015086,12,22Q12,22.0984914,12.019214999999999,22.19509Q12.03843,22.291689,12.076121,22.382683Q12.113812,22.473678,12.16853,22.55557Q12.223249,22.637463,12.292893,22.707107Q12.362537,22.776751,12.44443,22.83147Q12.526322,22.886188,12.617317,22.923879Q12.708311,22.961570000000002,12.80491,22.980785Q12.9015086,23,13,23Z" fill-rule="evenodd" fill="#D91B1B" fill-opacity="1"/></g></g></svg>