<svg width="29" height="29" viewBox="0 0 29 29" fill="none" xmlns="http://www.w3.org/2000/svg">
<g id="Frame 1164">
<rect width="28.4444" height="28.4444" rx="14.2222" fill="url(#paint0_linear_1355_9554)"/>
<path id="3RD" d="M10.1206 15.2559L10.9331 15.2637C11.8081 15.2793 12.3394 15.8574 12.3394 16.5762C12.3394 17.3652 11.7144 17.8652 10.9175 17.8652C10.1128 17.8652 9.49561 17.3652 9.49561 16.7324C9.49561 16.7246 9.49561 16.4824 9.49561 16.4668H6.83936C6.81592 16.5996 6.80811 16.748 6.80811 16.8965C6.80811 19.1152 8.91748 20.0293 10.8862 20.0293C13.0112 20.0293 15.1831 18.9746 15.1987 16.8184C15.2065 15.5996 14.519 14.6699 13.1909 14.4199L13.2144 14.3027C14.644 14.1621 15.644 13.1465 15.5972 11.6934C15.5269 9.67773 13.5112 8.97461 11.8315 8.97461C9.93311 8.97461 8.11279 9.86523 7.79248 11.9434H10.4409C10.5737 11.4199 10.9644 10.9824 11.6831 10.9824C12.3784 10.9824 12.9175 11.3887 12.9331 12.0605C12.9487 12.8105 12.3081 13.4121 11.4097 13.4121C11.394 13.4121 10.5269 13.4121 10.4331 13.4043L10.1206 15.2559ZM17.0972 19.8887L17.4374 17.9546H18.3645C18.4618 17.9546 18.5416 17.9512 18.6111 17.9477L19.2256 19.8887H19.8229L19.1631 17.8609C19.7083 17.7255 20.1805 17.3123 20.2743 16.6387C20.2881 16.5414 20.2951 16.4199 20.2951 16.3366C20.2951 15.6526 19.8437 15.1456 18.934 15.1456H17.3749L16.5381 19.8887H17.0972ZM18.802 15.6421C19.4722 15.6421 19.7013 15.9512 19.7013 16.3539C19.7013 16.4234 19.6944 16.5206 19.684 16.5935C19.6215 17.0414 19.3402 17.4581 18.4409 17.4581H17.5243L17.8472 15.6421H18.802ZM21.7569 15.1456L20.9201 19.8887H22.2083C23.7326 19.8887 24.5937 19.2498 24.8194 18.0067L24.9166 17.4685C24.9479 17.288 24.9583 17.0623 24.9583 16.9269C24.9583 15.8644 24.309 15.1456 23.0486 15.1456H21.7569ZM22.2291 15.6421H22.8923C23.8888 15.6421 24.3923 16.1005 24.3923 16.9859C24.3923 17.1144 24.3819 17.3366 24.3576 17.4685L24.2673 17.9512C24.0868 18.913 23.3263 19.3921 22.2118 19.3921H21.5729L22.2291 15.6421Z" fill="white"/>
</g>
<defs>
<linearGradient id="paint0_linear_1355_9554" x1="2.25775" y1="21.3238" x2="27.0171" y2="9.2978" gradientUnits="userSpaceOnUse">
<stop stop-color="#101A38"/>
<stop offset="1" stop-color="#5C6378"/>
</linearGradient>
</defs>
</svg>
