<svg width="31" height="31" viewBox="0 0 31 31" fill="none" xmlns="http://www.w3.org/2000/svg">
<g id="number">
<g id="Frame 1163">
<rect width="17.7778" height="17.7778" rx="8.88889" transform="matrix(-1 0 0 1 17.7778 10.6665)" fill="url(#paint0_linear_1355_9498)"/>
</g>
<g id="Frame 1164">
<rect x="2" y="2" width="28.4444" height="28.4444" rx="14.2222" fill="url(#paint1_linear_1355_9498)"/>
<path id="1ST" d="M13.6597 21.8887L15.5269 11.2324H12.6987L10.0347 12.7168L9.62842 15.1152L12.1519 13.6621H12.2847L10.8394 21.8887H13.6597ZM16.585 20.5727C16.5781 20.6213 16.5746 20.6838 16.5746 20.7324C16.5746 21.3574 17.2135 21.9859 18.2413 21.9859C19.2239 21.9859 19.9288 21.472 19.9288 20.5692C19.9288 19.7914 19.3697 19.531 18.7586 19.288L18.5052 19.1873C17.9982 18.9859 17.5989 18.7671 17.5989 18.3262C17.5989 17.781 18.1302 17.5484 18.6058 17.5484C19.1336 17.5484 19.585 17.8435 19.585 18.3227C19.585 18.3644 19.5815 18.3783 19.5815 18.3783H20.1128C20.1128 18.3783 20.1197 18.2671 20.1197 18.2602C20.1197 17.4755 19.3836 17.0449 18.6128 17.0449C17.7308 17.0449 17.0156 17.5206 17.0156 18.3539C17.0156 19.1248 17.6822 19.4859 18.2899 19.7116L18.4774 19.781C18.9427 19.9546 19.3454 20.1421 19.3454 20.6248C19.3454 21.1352 18.9253 21.4824 18.269 21.4824C17.5503 21.4824 17.1336 21.0658 17.1336 20.6595C17.1336 20.6352 17.1336 20.6005 17.1371 20.5727H16.585ZM22.085 21.8887L22.835 17.6421H24.3142L24.394 17.1456H20.8836L20.7968 17.6421H22.276L21.526 21.8887H22.085Z" fill="white"/>
</g>
</g>
<defs>
<linearGradient id="paint0_linear_1355_9498" x1="1.41109" y1="13.3274" x2="16.8857" y2="5.81113" gradientUnits="userSpaceOnUse">
<stop stop-color="#F8C74C"/>
<stop offset="1" stop-color="#E8A700"/>
</linearGradient>
<linearGradient id="paint1_linear_1355_9498" x1="4.25775" y1="23.3238" x2="29.0171" y2="11.2978" gradientUnits="userSpaceOnUse">
<stop stop-color="#101A38"/>
<stop offset="1" stop-color="#5C6378"/>
</linearGradient>
</defs>
</svg>
