<svg width="351" height="63" viewBox="0 0 351 63" fill="none" xmlns="http://www.w3.org/2000/svg">
<g id="Frame 1982">
<rect y="-0.000976562" width="351" height="63" rx="8" fill="white"/>
<g id="Frame 1980">
<path id="&#228;&#184;&#186;&#230;&#130;&#168;&#228;&#188;&#152;&#233;&#128;&#137;&#229;&#144;&#136;&#233;&#128;&#130;&#230;&#149;&#153;&#231;&#187;&#131;" d="M23.3063 17.199H30.1663L28.8063 26.859C28.7396 27.2457 28.5596 27.5657 28.2663 27.819C27.9729 28.059 27.6329 28.179 27.2463 28.179H23.3063L25.0663 26.339L26.0863 19.099H22.1863L21.3863 20.439H24.0063L24.6263 24.619H21.0463L20.6063 21.779L16.8263 28.179H13.0263L18.3663 19.099H13.9263L14.2063 17.199H19.4863L21.2063 14.299L20.7663 13.779H25.3263L23.3063 17.199ZM18.9463 14.539L19.2463 16.439H15.6263L15.3263 14.539H18.9463ZM37.1647 15.679L37.1047 16.099L36.2047 22.499H32.7847L33.5847 16.779L32.6847 16.939L33.0047 14.639L37.4047 13.819L37.1647 15.679ZM39.2047 14.259L38.7847 13.779H42.5647L42.0647 14.759H49.0247L48.0847 17.619H45.0647L45.5447 16.439H41.1847L40.6247 17.539H37.4647L39.2047 14.259ZM35.0847 27.819L35.8847 23.079H39.2047L38.8047 25.859H43.4047L44.2847 24.999L43.9047 27.819H35.0847ZM44.1447 21.099C44.0914 21.4724 43.9314 21.8057 43.6647 22.099C43.4114 22.379 43.098 22.519 42.7247 22.519H39.9647L40.9847 21.239L41.5647 17.059H44.7047L44.1447 21.099ZM44.5647 23.239H47.6047L47.7047 27.799H44.6647L44.5647 23.239ZM33.9647 27.799H30.9847L32.3847 23.239H35.3647L33.9647 27.799ZM40.8247 17.979L39.4847 22.059H36.9247L38.3647 17.979H40.8247ZM47.6047 17.979L47.9047 22.059H45.3647L45.1847 17.979H47.6047ZM39.9447 22.899H43.0447L43.1447 25.339H40.0247L39.9447 22.899ZM62.3431 13.839L61.3231 17.099H66.6831L66.4231 19.059H60.7231L57.9431 28.119H54.2031L57.2831 19.059H55.8431L56.1031 17.099H57.9431L58.8031 14.579L58.2031 13.839H62.3431ZM55.4431 16.239L53.7831 28.159H50.1231L51.6831 16.899L50.4631 17.099L50.8031 14.679L55.7831 13.819L55.4431 16.239ZM65.5231 28.119H59.8231L61.0231 19.639H64.4831L63.5431 26.259H65.0231L65.8831 25.499L65.5231 28.119ZM63.6031 16.439L63.3231 14.199H66.1831L66.4431 16.439H63.6031ZM78.6616 14.159L78.0616 16.059H79.5216L79.7416 14.539L79.0816 13.779H82.8816L82.5616 16.059H85.2216L84.9816 17.759H82.3216L82.0616 19.679H85.1016L84.8616 21.379H82.9616L82.7416 22.899H84.2616L85.1416 22.139L84.7016 25.179H79.3816L79.9216 21.379H78.7616L77.1016 25.179H74.0616L75.7216 21.379H74.2216L74.4616 19.679H79.0216L79.2816 17.759H77.5416L77.2616 18.719H74.6016L75.8016 14.819L75.2416 14.159H78.6616ZM68.3816 27.839L69.4016 25.939L70.3616 19.099H69.6016L69.8616 17.199H74.0416L72.9416 25.119L75.6816 25.939H84.9816L84.7216 27.839H74.0816L72.1216 27.259L71.8016 27.839H68.3816ZM73.3416 14.159L74.1616 16.439H71.1216L70.3016 14.159H73.3416ZM103.36 21.759L102.5 27.839H86.54L87.4 21.759H103.36ZM99.48 20.999L99.14 19.679H92.18L91.48 20.999H87.12L90.44 14.699L89.98 14.159H102.14L103.84 20.999H99.48ZM98.96 25.939L99.28 23.659H90.92L90.6 25.939H98.96ZM93.2 17.779H98.66L98.24 16.059H94.12L93.2 17.779ZM114.758 19.959L114.898 18.899H110.858L111.118 16.999H115.178L115.318 15.999L111.758 16.079L112.018 14.179L122.338 13.939L122.058 15.839L118.758 15.919L118.598 16.999H122.298L122.038 18.899H118.338L118.198 19.959H121.718L120.978 25.159H110.438L111.178 19.959H114.758ZM104.838 27.839L105.878 25.859L106.838 19.099H106.078L106.338 17.199H110.518L109.398 25.119L112.158 25.939H121.458L121.178 27.839H110.538L108.558 27.259L108.258 27.839H104.838ZM110.018 14.159L110.638 16.439H107.398L106.778 14.159H110.018ZM118.078 23.299L118.278 21.819H114.058L113.858 23.299H118.078ZM126.337 17.199L126.437 16.439H124.917L125.177 14.539H126.697L126.757 14.159L126.437 13.779H129.857L129.737 14.539H130.677L130.417 16.439H129.477L129.377 17.199H130.257L131.257 14.539H133.537L132.537 17.199H132.997L132.717 19.099H128.337L128.057 19.659H132.057L131.797 21.559L130.057 23.079L129.977 23.559L132.137 23.279L131.877 25.179L129.717 25.459L129.537 26.859C129.484 27.2324 129.304 27.5457 128.997 27.799C128.704 28.0524 128.364 28.179 127.977 28.179H125.157L126.077 27.079L126.097 27.119L126.257 25.919L123.157 26.319L123.417 24.419L126.517 24.019L126.657 23.079H126.637L128.357 21.559H127.097L126.237 23.279H123.197L125.297 19.099H123.777L124.057 17.199H126.337ZM137.837 13.779L137.297 15.299H140.837L140.577 17.199H139.997L139.477 20.999L137.597 23.779L139.597 28.179H136.557L135.797 26.499L134.657 28.179H131.237L134.437 23.499L132.797 19.859H135.837L136.257 20.819L136.517 20.439L136.957 17.199H136.617L135.937 19.099H132.897L134.617 14.239L134.237 13.779H137.837ZM152.135 26.359L152.655 22.719H148.675L148.915 20.979L149.415 19.859H148.715L148.975 17.939H150.295L150.815 16.819H148.735L148.995 14.939H151.675L151.955 14.359L151.475 13.819H155.195L154.675 14.939H159.255L158.995 16.819H153.815L153.315 17.939H155.995L155.575 20.979H158.795L158.555 22.719H155.335L154.755 26.859C154.689 27.2457 154.509 27.559 154.215 27.799C153.922 28.0257 153.589 28.139 153.215 28.139H150.395L152.135 26.359ZM142.835 18.359L145.435 14.299L144.995 13.799H149.175L146.255 18.359H148.535L145.615 22.919H147.895L147.635 24.819H141.935L142.195 22.919L143.915 20.259H142.575L142.835 18.359ZM151.995 23.259L150.215 27.779H147.735L149.515 23.259H151.995ZM147.255 27.479L141.515 27.859L141.775 25.959L147.535 25.579L147.255 27.479ZM157.675 23.259L157.815 27.799H155.455L155.395 23.259H157.675ZM152.435 19.859L151.935 20.979H152.895L153.055 19.859H152.435Z" fill="#D91B1B"/>
<path id="&#229;&#173;&#166;&#233;&#169;&#190;&#230;&#138;&#165;&#229;&#144;&#141;&#229;&#141;&#179;&#233;&#128;&#129;VIP&#232;&#175;&#149;&#233;&#162;&#152;" d="M23.4585 43.631H21.1425C21.5985 43.031 22.0305 42.311 22.4505 41.447L21.5745 41.123C21.1905 42.023 20.7345 42.863 20.2065 43.631H13.3305V46.319H14.1705V44.459H22.6065V46.319H23.4585V43.631ZM15.1665 45.479V46.247H20.3985C19.8705 46.535 19.1145 46.895 18.1065 47.339V48.335H13.2465V49.151H18.1065V50.879C18.1065 51.215 17.9505 51.383 17.6625 51.383C17.1465 51.383 16.6665 51.371 16.2345 51.359L16.4385 52.151H17.9625C18.6345 52.151 18.9825 51.827 18.9825 51.179V49.151H23.5545V48.335H18.9825V47.723C19.9665 47.243 20.8425 46.751 21.6345 46.247V45.479H15.1665ZM15.0345 41.303L14.2545 41.687C14.6985 42.239 15.1185 42.863 15.5265 43.559L16.2705 43.187C15.8865 42.503 15.4665 41.879 15.0345 41.303ZM17.9385 41.075L17.1585 41.459C17.5665 42.035 17.9505 42.695 18.3105 43.439L19.0785 43.055C18.7185 42.335 18.3345 41.675 17.9385 41.075ZM31.2825 41.951V45.179H35.0865V41.951H31.2825ZM34.2945 44.447H32.0745V42.683H34.2945V44.447ZM27.0465 41.183V42.011H25.2705V42.767H26.9625C26.7465 43.823 26.0985 44.627 25.0425 45.167L25.6785 45.731C26.8665 45.059 27.5745 44.075 27.8025 42.767H29.4465C29.4225 43.631 29.3745 44.171 29.2785 44.375C29.1825 44.579 28.9425 44.687 28.5705 44.699C28.3545 44.687 28.0665 44.675 27.7305 44.651L27.9345 45.359C28.2465 45.383 28.5105 45.395 28.7385 45.395C29.3025 45.395 29.6985 45.227 29.9265 44.915C30.1425 44.591 30.2625 43.619 30.2865 42.011H27.8745V41.183H27.0465ZM25.2225 49.715V50.471H32.8785V49.715H25.2225ZM32.8905 46.655C32.7705 47.195 32.6265 47.675 32.4585 48.107H28.2825C28.4505 47.795 28.6065 47.447 28.7505 47.063L27.8865 46.967C27.7185 47.507 27.4785 48.131 27.1425 48.839H34.4025C34.3545 50.219 34.1985 50.999 33.9345 51.167C33.7185 51.311 33.2145 51.383 32.4345 51.395C32.0985 51.395 31.7385 51.383 31.3545 51.371L31.5825 52.115H32.4105C33.5145 52.115 34.2345 51.995 34.5705 51.755C34.9785 51.479 35.2065 50.267 35.2425 48.107H33.2745C33.4665 47.615 33.6225 47.027 33.7665 46.331V45.899H26.2665V46.655H32.8905ZM41.0385 46.019C40.5825 46.259 40.1265 46.475 39.6585 46.679V44.231H41.0025V43.403H39.6585V41.231H38.8065V43.403H37.0665V44.231H38.8065V47.015C38.1825 47.231 37.5465 47.423 36.8865 47.579L37.1025 48.431C37.6785 48.251 38.2545 48.059 38.8065 47.855V50.879C38.8065 51.215 38.6385 51.395 38.3145 51.395C37.9905 51.395 37.6545 51.371 37.3065 51.335L37.4985 52.163H38.6145C39.3105 52.163 39.6585 51.803 39.6585 51.083V47.507C40.1265 47.315 40.5825 47.099 41.0385 46.871V46.019ZM42.5145 46.775H43.2105C43.4025 47.927 43.9065 48.995 44.7345 49.979C44.2065 50.579 43.5585 51.071 42.7905 51.455L43.2105 52.211C44.0265 51.803 44.7345 51.263 45.3105 50.603C45.8625 51.155 46.5465 51.671 47.3385 52.175L47.9145 51.515C47.0745 51.047 46.3665 50.543 45.7905 49.991C46.4145 49.091 46.8345 47.999 47.0745 46.727V45.983H42.5145V42.479H46.1385C46.1145 43.223 46.0665 43.715 45.9825 43.943C45.8985 44.087 45.7905 44.171 45.6585 44.219C45.5145 44.243 45.2865 44.267 44.9985 44.267C44.7105 44.267 44.4825 44.255 44.2905 44.255L44.5305 45.011H45.3945C46.1625 45.011 46.6185 44.783 46.7625 44.351C46.8945 43.907 46.9665 43.019 46.9665 41.687H41.6985V52.199H42.5145V46.775ZM43.9905 46.775H46.2465C46.0305 47.759 45.6825 48.623 45.2025 49.355C44.5545 48.575 44.1585 47.711 43.9905 46.775ZM52.6545 51.455H58.0185V52.163H58.8945V47.099H53.8905C56.1465 46.055 57.6945 44.711 58.5585 43.067V42.299H53.8785C54.1185 41.975 54.3345 41.639 54.5265 41.279L53.5785 41.171C52.8585 42.443 51.4785 43.523 49.4265 44.399L50.0025 45.143C51.2745 44.543 52.3065 43.871 53.1225 43.115H57.5625C56.9985 44.099 56.1105 44.951 54.8865 45.683C54.3705 45.239 53.6505 44.735 52.7385 44.171L51.9945 44.639C52.9065 45.155 53.6265 45.635 54.1545 46.079C52.7745 46.775 51.0465 47.327 48.9705 47.759L49.4265 48.587C50.2665 48.383 51.0465 48.167 51.7905 47.927V52.163H52.6545V51.455ZM58.0185 50.615H52.6545V47.903H58.0185V50.615ZM62.4225 44.807H65.2665V46.463H62.4225V44.807ZM65.2665 44.027H62.4225V42.455H65.2665V44.027ZM61.4745 51.839C63.0465 51.455 64.4385 50.999 65.6385 50.495C65.8545 50.879 66.0465 51.263 66.2145 51.635L66.8745 51.155C66.4785 50.291 65.9025 49.271 65.1465 48.107L64.4865 48.527C64.7505 48.935 65.0025 49.355 65.2425 49.775C64.4145 50.099 63.4785 50.411 62.4225 50.723V47.267H66.0825V41.675H61.5705V50.555C61.5705 50.771 61.4385 50.927 61.1745 51.011L61.4745 51.839ZM70.3305 50.543C71.0505 50.543 71.4105 50.171 71.4105 49.427V41.675H67.4985V52.163H68.3625V42.491H70.5465V49.235C70.5465 49.559 70.3785 49.727 70.0425 49.727L69.0225 49.703L69.2505 50.543H70.3305ZM73.9065 41.387L73.3185 41.951C74.1945 42.635 74.8785 43.271 75.3705 43.859L75.9945 43.247C75.4305 42.623 74.7345 42.011 73.9065 41.387ZM80.9265 51.983H83.6505L83.8545 51.119C83.5425 51.143 83.0985 51.155 82.5225 51.167C81.9345 51.179 81.3585 51.191 80.8065 51.191C79.8585 51.191 79.0665 51.179 78.4305 51.167C77.7105 51.143 77.1705 51.047 76.7865 50.879C76.4505 50.723 76.1385 50.471 75.8505 50.123C75.7425 50.003 75.6465 49.919 75.5505 49.847V45.359H73.0425V46.151H74.7465V49.799C74.2545 50.015 73.6905 50.627 73.0545 51.635L73.7025 52.211C74.3625 51.107 74.8425 50.567 75.1305 50.567C75.2745 50.567 75.4305 50.663 75.5985 50.867C75.9705 51.299 76.4025 51.599 76.8825 51.743C77.3625 51.875 77.9985 51.947 78.7785 51.959C79.5465 51.971 80.2665 51.983 80.9265 51.983ZM76.6665 45.923V46.739H79.3785C79.0185 47.939 78.0705 48.899 76.5585 49.643L77.1105 50.339C78.8865 49.391 79.9425 48.191 80.2785 46.739H83.5425V45.923H80.4345C80.5065 45.419 80.5425 44.819 80.5665 44.147H83.1345V43.355H81.5745C81.9105 42.791 82.2105 42.143 82.4745 41.411L81.6585 41.123C81.3945 41.915 81.0705 42.659 80.6985 43.355H77.0745V44.147H79.7145C79.6905 44.819 79.6425 45.407 79.5705 45.923H76.6665ZM78.3105 41.219L77.5305 41.591C77.9505 42.095 78.3465 42.683 78.7065 43.331L79.4385 42.971C79.0785 42.335 78.7065 41.747 78.3105 41.219ZM80.8305 47.447L80.3145 48.023C81.2265 48.695 82.0905 49.475 82.9305 50.363L83.5305 49.715C82.7265 48.899 81.8265 48.143 80.8305 47.447ZM84.4545 42.431L87.6225 50.999H88.8345L92.0025 42.431H90.9225L88.2465 49.931H88.2105L85.5345 42.431H84.4545ZM92.9946 42.431V50.999H93.9666V42.431H92.9946ZM95.7703 42.431V50.999H96.7543V47.495H99.2623C101.23 47.495 102.226 46.643 102.226 44.951C102.226 43.271 101.242 42.431 99.2743 42.431H95.7703ZM96.7543 43.283H99.2143C99.8983 43.283 100.402 43.415 100.738 43.703C101.074 43.955 101.242 44.375 101.242 44.951C101.242 45.527 101.074 45.947 100.75 46.223C100.414 46.499 99.9103 46.643 99.2143 46.643H96.7543V43.283ZM108.245 46.883V50.303C107.861 50.375 107.465 50.435 107.069 50.483L107.285 51.299C108.485 51.095 109.613 50.843 110.657 50.543V49.739C110.153 49.883 109.625 50.015 109.097 50.135V46.883H110.225V46.079H107.117V46.883H108.245ZM112.793 52.019C113.345 52.019 113.813 51.155 114.209 49.427L113.525 48.875C113.285 50.303 113.033 51.035 112.793 51.083C112.433 51.035 112.121 50.339 111.857 48.971C111.665 47.843 111.533 46.259 111.473 44.195H113.849V43.355H111.461C111.437 42.671 111.437 41.939 111.437 41.159H110.597C110.597 41.927 110.597 42.659 110.621 43.355H106.841V44.195H110.645C110.693 45.767 110.777 47.087 110.909 48.143C111.077 49.391 111.341 50.363 111.701 51.083C112.013 51.707 112.385 52.019 112.793 52.019ZM112.469 41.147L111.857 41.519C112.361 42.095 112.769 42.611 113.069 43.079L113.669 42.659C113.381 42.227 112.985 41.723 112.469 41.147ZM104.549 41.315L103.949 41.903C104.765 42.551 105.413 43.175 105.893 43.763L106.481 43.163C105.953 42.539 105.317 41.927 104.549 41.315ZM103.109 44.867V45.695H104.789V50.507C104.789 50.687 104.693 50.855 104.525 50.999L104.861 51.767C105.605 51.215 106.301 50.579 106.961 49.859L106.733 48.947C106.349 49.367 105.989 49.751 105.629 50.099V44.867H103.109ZM123.425 51.191C120.965 51.191 119.393 51.083 118.697 50.867C118.649 50.843 118.589 50.819 118.517 50.795V49.487H120.161V48.719H118.517V47.447H120.461V46.655H115.373V47.447H117.749V50.363C117.377 50.087 117.029 49.703 116.717 49.211C116.777 48.851 116.813 48.479 116.837 48.071L116.069 47.975C116.009 49.343 115.661 50.567 115.013 51.659L115.637 52.211C116.021 51.563 116.321 50.855 116.537 50.087C117.029 50.783 117.593 51.275 118.229 51.539C118.949 51.851 120.737 52.007 123.617 52.007H125.981L126.125 51.143C125.525 51.167 124.625 51.191 123.425 51.191ZM115.913 41.663V45.851H120.005V41.663H115.913ZM119.165 45.131H116.753V44.111H119.165V45.131ZM116.753 43.439V42.383H119.165V43.439H116.753ZM120.629 41.675V42.467H122.873C122.837 42.791 122.789 43.115 122.717 43.427H121.001V48.275H121.769V44.171H124.673V48.275H125.477V43.427H123.497C123.569 43.115 123.617 42.803 123.653 42.467H125.813V41.675H120.629ZM124.085 48.311L123.509 48.863C124.289 49.487 124.901 50.087 125.345 50.639L125.957 50.039C125.453 49.463 124.829 48.887 124.085 48.311ZM122.825 44.735V46.427C122.801 47.327 122.621 48.059 122.309 48.623C121.961 49.163 121.361 49.595 120.497 49.907L120.965 50.651C121.877 50.291 122.549 49.799 122.957 49.163C123.365 48.479 123.593 47.567 123.617 46.427V44.735H122.825Z" fill="#999999"/>
</g>
<g id="Frame 1981">
<rect x="283" y="16.999" width="56" height="29" rx="14.5" fill="#D91B1B"/>
<path id="&#230;&#137;&#190;&#230;&#149;&#153;&#231;&#187;&#131;" d="M303.776 28.595L300.128 29.267C300.056 28.355 300.02 27.323 300.02 26.195H299.144C299.144 27.395 299.192 28.463 299.276 29.423L297.644 29.723L297.776 30.563L299.36 30.263C299.456 31.139 299.588 31.895 299.756 32.543C299.876 33.023 300.02 33.467 300.176 33.887C299.36 34.523 298.424 35.027 297.392 35.387L297.86 36.119C298.82 35.759 299.708 35.291 300.5 34.703C300.704 35.171 300.932 35.579 301.172 35.927C301.724 36.695 302.276 37.079 302.828 37.079C303.176 37.079 303.488 36.791 303.764 36.227C303.98 35.759 304.196 35.171 304.388 34.475L303.62 33.995C303.332 35.375 303.044 36.095 302.78 36.143C302.42 36.131 302.012 35.771 301.556 35.075C301.412 34.823 301.28 34.523 301.136 34.187C302.12 33.311 302.948 32.231 303.62 30.935L302.876 30.539C302.324 31.619 301.64 32.543 300.836 33.311C300.704 32.903 300.584 32.447 300.476 31.955C300.356 31.403 300.272 30.791 300.2 30.107L303.908 29.423L303.776 28.595ZM297.572 30.935C297.092 31.199 296.612 31.439 296.108 31.655V29.231H297.536V28.403H296.108V26.231H295.232V28.403H293.6V29.231H295.232V32.003C294.644 32.219 294.044 32.399 293.444 32.555L293.672 33.455C294.2 33.287 294.716 33.107 295.232 32.903V35.843C295.232 36.167 295.064 36.335 294.752 36.335C294.464 36.335 294.152 36.311 293.828 36.275L294.02 37.127H295.052C295.748 37.127 296.108 36.767 296.108 36.059V32.531C296.6 32.315 297.092 32.087 297.572 31.823V30.935ZM301.82 26.207L301.052 26.567C301.46 27.035 301.832 27.563 302.18 28.151L302.96 27.767C302.6 27.203 302.228 26.687 301.82 26.207ZM312.344 30.323C312.56 31.595 312.908 32.735 313.388 33.743C312.716 34.823 311.804 35.711 310.64 36.383L311.12 37.163C312.224 36.479 313.136 35.615 313.832 34.583C314.42 35.591 315.176 36.455 316.112 37.163L316.544 36.407C315.632 35.699 314.876 34.835 314.3 33.803C315.02 32.435 315.416 30.779 315.488 28.859H316.232V28.031H313.112C313.232 27.503 313.352 26.939 313.448 26.327L312.596 26.183C312.332 28.223 311.816 29.843 311.048 31.043L311.564 31.679C311.852 31.271 312.104 30.827 312.344 30.323ZM314.684 28.859C314.636 30.371 314.348 31.715 313.832 32.879C313.328 31.739 313.016 30.419 312.872 28.931C312.872 28.907 312.884 28.883 312.896 28.859H314.684ZM306.236 27.335V28.103H307.808V29.327H305.672V30.131H308.648C308.3 30.503 307.928 30.863 307.52 31.211H306.248V31.979H306.524C306.188 32.207 305.828 32.435 305.444 32.651L305.984 33.263C306.632 32.903 307.244 32.471 307.844 31.979H309.704C309.296 32.411 308.876 32.783 308.444 33.107V33.983C307.604 34.079 306.692 34.163 305.684 34.211L305.804 35.039C306.764 34.955 307.652 34.859 308.444 34.763V35.807C308.444 36.167 308.264 36.359 307.916 36.359C307.652 36.359 307.292 36.335 306.848 36.299L307.064 37.079H308.24C308.936 37.079 309.284 36.731 309.284 36.035V34.643C310.124 34.523 310.832 34.379 311.42 34.223V33.419C310.796 33.587 310.076 33.743 309.284 33.863V33.275C309.836 32.795 310.316 32.315 310.724 31.835V31.211H308.684C309.02 30.875 309.344 30.515 309.668 30.131H311.168V29.327H310.28C310.76 28.643 311.216 27.887 311.648 27.071L310.976 26.723C310.508 27.659 309.956 28.535 309.332 29.327H308.636V28.103H309.92V27.335H308.636V26.267H307.808V27.335H306.236ZM321.332 34.763C320.252 35.219 318.968 35.591 317.504 35.855L317.612 36.719C319.004 36.431 320.252 36.071 321.332 35.615V34.763ZM319.52 26.219C319.088 27.635 318.584 28.883 317.984 29.975C317.876 30.131 317.756 30.239 317.612 30.311L317.828 31.103C318.452 30.995 319.064 30.875 319.676 30.755C319.076 31.883 318.56 32.675 318.14 33.155C318.032 33.251 317.9 33.335 317.756 33.407L317.984 34.211C319.088 34.043 320.228 33.743 321.428 33.287V32.507C320.624 32.807 319.82 33.047 319.016 33.215C319.664 32.363 320.504 30.935 321.512 28.931L320.72 28.631C320.504 29.099 320.288 29.543 320.072 29.975C319.592 30.071 319.112 30.155 318.632 30.227C319.208 29.303 319.772 28.079 320.348 26.543L319.52 26.219ZM322.784 33.443C322.436 34.427 321.932 35.387 321.272 36.335L322.016 36.755C322.592 35.927 323.096 34.931 323.54 33.755L322.784 33.443ZM327.284 33.431L326.516 33.683C326.996 34.571 327.44 35.591 327.836 36.743L328.568 36.419C328.208 35.363 327.776 34.367 327.284 33.431ZM324.608 37.091C325.292 37.091 325.64 36.767 325.64 36.131V32.747H328.196V31.979H325.64V29.651H324.032C324.176 29.243 324.32 28.799 324.464 28.343H328.196V27.539H324.704C324.812 27.155 324.92 26.759 325.028 26.339L324.188 26.183C324.068 26.651 323.96 27.107 323.84 27.539H321.176V28.343H323.6C323.456 28.799 323.312 29.231 323.168 29.651H321.608V30.431H322.856C322.604 31.007 322.34 31.535 322.076 32.003L322.268 32.747H324.812V35.867C324.812 36.179 324.656 36.335 324.356 36.335L323.204 36.299L323.42 37.091H324.608ZM323.732 30.431H324.812V31.979H323.036C323.276 31.499 323.504 30.983 323.732 30.431Z" fill="white"/>
</g>
</g>
</svg>
