<svg xmlns="http://www.w3.org/2000/svg" xmlns:xlink="http://www.w3.org/1999/xlink" fill="none" version="1.1" width="40" height="40" viewBox="0 0 40 40"><defs><clipPath id="master_svg0_28_18"><rect x="0" y="0" width="40" height="40" rx="0"/></clipPath></defs><g clip-path="url(#master_svg0_28_18)"><g><path d="M36.3695,20.0762L34.9607,17.8246C34.7558,17.4895,34.6008,17.1226,34.5013,16.7369L31.6941,6.84981C31.2,5.14905,29.7207,3.99222899,28.0498,4.000048522L10.94081,4.000048522C9.268699999999999,3.99134189,7.79023,5.15513,7.30668,6.86068L4.49943,16.7913C4.3916900000000005,17.1756,4.2336100000000005,17.541800000000002,4.02985,17.878999999999998L2.621118,20.1088C2.0893418,20.9675,1.888283,22.0114,2.0596663,23.0238L3.8563099999999997,33.3678C4.138920000000001,34.8959,5.39574,35.9982,6.85752,36L7.36793,36C8.62974,36.0007,9.81039,35.3371,10.52227,34.2271L11.931,31.9973L27.1106,31.9973L28.5398,34.2162C29.2485,35.316,30.4216,35.9715,31.6737,35.9674L32.1637,35.9674C33.6107,35.978,34.8574,34.8833,35.1241,33.3678L36.9411,22.9803C37.1122,21.9699,36.9072,20.9282,36.3695,20.0762ZM35.0424,22.6322L33.2355,33.0197C33.1402,33.544399999999996,32.7161,33.9285,32.2147,33.9443L31.7247,33.9443C31.1103,33.942099999999996,30.5353,33.6215,30.1833,33.085L28.7337,30.8335C28.3724,30.2772,27.7762,29.9473,27.1412,29.9524L11.931,29.9524C11.29187,29.9519,10.69306,30.2851,10.32831,30.8443L8.91958,33.0197C8.57377,33.5721,7.99109,33.9029,7.36793,33.9007L6.85752,33.9007C6.31993,33.9009,5.857670000000001,33.495000000000005,5.75504,32.9327L3.95839,22.654C3.8678999999999997,22.1554,3.96705,21.6389,4.23402,21.2182L5.6427499999999995,18.9558C5.9447399999999995,18.4634,6.18175,17.929000000000002,6.34711,17.367800000000003L9.14416,7.42628C9.39006,6.58983,10.11817,6.02119,10.94081,6.02316L28.06,6.02316C28.881,6.01889,29.6073,6.58936,29.8464,7.42628L32.623000000000005,17.346C32.7786,17.906,33.0126,18.4377,33.3172,18.9232L34.7259,21.1856C35.0077,21.6038,35.1216,22.1244,35.0424,22.6322Z" fill="#222222" fill-opacity="1"/><path d="M35.3703,33.411100000000005L37.1874,23.0234L37.1876,23.022Q37.4704,21.3522,36.5809,19.942700000000002L35.1726,17.692Q34.8842,17.220399999999998,34.7434,16.674500000000002L34.7427,16.671599999999998L31.9346,6.78152Q31.5411,5.427,30.4672,4.587273Q29.3886,3.7437810000000002,28.0486,3.750052L10.94081,3.750049Q9.60071,3.743067,8.523399999999999,4.5910779999999995Q7.45095,5.43527,7.06617,6.79249L4.25886,16.723300000000002Q4.10547,17.270400000000002,3.81588,17.7497L2.409765,19.9753Q1.53042,21.3952,1.813173,23.0655L3.6100000000000003,33.4106Q3.83821,34.6447,4.74988,35.444199999999995Q5.6669599999999996,36.2486,6.85722,36.25L7.36793,36.25Q8.37967,36.2506,9.27382,35.748000000000005Q10.16518,35.247,10.73271,34.361999999999995L12.0688,32.247299999999996L26.9743,32.247299999999996L28.3296,34.351600000000005Q28.8949,35.228899999999996,29.781,35.724000000000004Q30.6699,36.2207,31.6745,36.2174L32.1637,36.2174Q33.3424,36.226,34.2515,35.4277Q35.155,34.634299999999996,35.3703,33.411100000000005ZM36.6949,22.9372L36.6946,22.9386L34.8778,33.3245Q34.6931,34.3745,33.9216,35.052Q33.1556,35.724599999999995,32.1637,35.7174L31.6728,35.7174Q30.7993,35.7203,30.0249,35.2875Q29.2477,34.8532,28.7499,34.080799999999996L27.247,31.7473L11.79323,31.7473L10.31183,34.0921Q9.81156,34.8722,9.02883,35.3121Q8.24892,35.7505,7.36793,35.75L6.85783,35.75Q5.8554200000000005,35.7488,5.07957,35.0683Q4.29833,34.3831,4.10262,33.325L2.30616,22.9821Q2.0549216,21.4979,2.83247,20.2423L4.2438199999999995,18.0083Q4.56856,17.4709,4.74,16.859299999999998L7.54721,6.92887Q7.88773,5.72778,8.83266,4.983962Q9.772739999999999,4.24397,10.94081,4.250049L28.0509,4.250046Q29.2173,4.244587,30.1592,4.981148Q31.106,5.72147,31.4536,6.918089999999999L34.26,16.802300000000002Q34.4195,17.418799999999997,34.7488,17.9572L36.158,20.2096Q36.9451,21.4567,36.6949,22.9372ZM34.9359,21.0498Q35.4279,21.7829,35.2894,22.6708L33.4818,33.0626Q33.394800000000004,33.5415,33.0452,33.8582Q32.6905,34.179500000000004,32.2225,34.1941L32.218599999999995,34.1943L31.7247,34.1943Q30.6095,34.1903,29.9743,33.2221L28.5235,30.9688Q28.0211,30.1954,27.1432,30.2024L11.931,30.2024Q11.04597,30.2017,10.53771,30.9809L9.12943,33.1556Q8.50395,34.1547,7.36706,34.1507L6.85752,34.1507Q6.36017,34.1509,5.97822,33.8155Q5.60169,33.484899999999996,5.5091,32.977599999999995L3.71213,22.697Q3.5536399999999997,21.8238,4.022930000000001,21.0843L5.43053,18.823700000000002Q5.86744,18.1112,6.10731,17.2971L8.90351,7.35857Q9.11139,6.65136,9.672329999999999,6.21328Q10.23804,5.77148,10.9414,5.77316L28.06,5.77316Q28.7616,5.76951,29.3258,6.21267Q29.8852,6.65203,30.0868,7.35761L32.8638,17.2787Q33.0888,18.0888,33.528999999999996,18.790300000000002L34.9359,21.0498ZM33.1054,19.0561L34.5161,21.3216L34.5186,21.3253Q34.904,21.8973,34.7954,22.5937L32.9892,32.9769Q32.9333,33.285,32.709599999999995,33.4876Q32.4925,33.684200000000004,32.210499999999996,33.6943L31.7247,33.6943Q30.8801,33.691199999999995,30.3923,32.9478L28.9439,30.6981Q28.2911,29.6932,27.1392,29.7024L11.931,29.7024Q10.77528,29.7014,10.11892,30.7078L8.70974,32.8838Q8.22768,33.6537,7.36881,33.6507L6.85752,33.6507Q6.54848,33.650800000000004,6.30812,33.439800000000005Q6.06233,33.2239,6.00098,32.8878L4.2046600000000005,22.611Q4.08049,21.9268,4.4451,21.3522L5.85497,19.088Q6.32832,18.3161,6.58692,17.438499999999998L9.384820000000001,7.49399Q9.54578,6.94653,9.980080000000001,6.60735Q10.40962,6.27189,10.94021,6.27316L28.06,6.27316Q28.5899,6.27041,29.017,6.60588Q29.449,6.94516,29.606,7.494949999999999L32.3823,17.4134Q32.6265,18.2928,33.1054,19.0561Z" fill-rule="evenodd" fill="#222222" fill-opacity="1"/></g><g><path d="M12.059017,21.38197Q15.795079999999999,23.25,19.5,23.25Q23.204900000000002,23.25,26.941000000000003,21.38197Q27.204900000000002,21.25,27.5,21.25Q27.5614,21.25,27.6225,21.25602Q27.6836,21.26204,27.7439,21.27402Q27.8041,21.286,27.8629,21.30382Q27.9216,21.321649999999998,27.9784,21.34515Q28.0351,21.36865,28.0892,21.3976Q28.1434,21.42655,28.1945,21.46066Q28.2455,21.49478,28.293,21.533737Q28.3405,21.572694,28.3839,21.616117Q28.4273,21.659539,28.4663,21.707008Q28.5052,21.754478,28.5393,21.805537Q28.5735,21.856597,28.6024,21.910754Q28.6313,21.964911999999998,28.6548,22.021646Q28.6783,22.07838,28.6962,22.137144Q28.714,22.195909,28.726,22.256137Q28.738,22.316366,28.744,22.377479Q28.75,22.4385914,28.75,22.5Q28.75,22.5866343,28.738,22.67244Q28.7261,22.758246,28.7024,22.841583Q28.6787,22.92492,28.6438,23.004194Q28.6089,23.083468,28.5633,23.157164Q28.5178,23.230859,28.4625,23.297567Q28.4072,23.364275,28.3433,23.422719Q28.2793,23.481163,28.2079,23.53023Q28.1365,23.57929,28.059,23.61803Q23.795099999999998,25.75,19.5,25.75Q15.20492,25.75,10.940983,23.61803Q10.863495,23.57929,10.792093,23.53023Q10.72069,23.481163,10.656739,23.422719Q10.592788,23.364275,10.53751,23.297567Q10.48223,23.230859,10.43669,23.157164Q10.39114,23.083468,10.3562,23.004194Q10.32125,22.92492,10.29758,22.841583Q10.2739,22.758246,10.26195,22.67244Q10.25,22.5866343,10.25,22.5Q10.25,22.4385914,10.25602,22.377479Q10.26204,22.316366,10.27402,22.256137Q10.286,22.195909,10.30382,22.137144Q10.32165,22.07838,10.34515,22.021646Q10.36865,21.964911999999998,10.3976,21.910754Q10.42655,21.856597,10.46066,21.805537Q10.49478,21.754478,10.533737,21.707008Q10.572694,21.659539,10.616117,21.616117Q10.659539,21.572694,10.707008,21.533737Q10.754478,21.49478,10.805537,21.46066Q10.856597,21.42655,10.910754,21.3976Q10.964912,21.36865,11.021646,21.34515Q11.07838,21.321649999999998,11.137144,21.30382Q11.195909,21.286,11.256137,21.27402Q11.316366,21.26204,11.377479,21.25602Q11.4385914,21.25,11.5,21.25Q11.795085,21.25,12.059017,21.38197Z" fill-rule="evenodd" fill="#D91B1B" fill-opacity="1"/></g></g></svg>