<svg xmlns="http://www.w3.org/2000/svg" xmlns:xlink="http://www.w3.org/1999/xlink" fill="none" version="1.1" width="20" height="8" viewBox="0 0 20 8"><defs><filter id="master_svg0_94_5898" filterUnits="objectBoundingBox" color-interpolation-filters="sRGB" x="0" y="0" width="20" height="2"><feFlood flood-opacity="0" result="BackgroundImageFix"/><feBlend mode="normal" in="SourceGraphic" in2="BackgroundImageFix" result="shape"/><feColorMatrix in="SourceAlpha" type="matrix" result="hardAlpha" values="0 0 0 0 0 0 0 0 0 0 0 0 0 0 0 0 0 0 127 0"/><feOffset dy="1" dx="0"/><feGaussianBlur stdDeviation="0.5"/><feComposite in2="hardAlpha" operator="arithmetic" k2="-1" k3="1"/><feColorMatrix type="matrix" values="0 0 0 0 0 0 0 0 0 0 0 0 0 0 0 0 0 0 0.05000000074505806 0"/><feBlend mode="normal" in2="shape" result="effect1_innerShadow"/></filter><filter id="master_svg1_94_5898" filterUnits="objectBoundingBox" color-interpolation-filters="sRGB" x="0" y="0" width="20" height="2"><feFlood flood-opacity="0" result="BackgroundImageFix"/><feBlend mode="normal" in="SourceGraphic" in2="BackgroundImageFix" result="shape"/><feColorMatrix in="SourceAlpha" type="matrix" result="hardAlpha" values="0 0 0 0 0 0 0 0 0 0 0 0 0 0 0 0 0 0 127 0"/><feOffset dy="1" dx="0"/><feGaussianBlur stdDeviation="0.5"/><feComposite in2="hardAlpha" operator="arithmetic" k2="-1" k3="1"/><feColorMatrix type="matrix" values="0 0 0 0 0 0 0 0 0 0 0 0 0 0 0 0 0 0 0.05000000074505806 0"/><feBlend mode="normal" in2="shape" result="effect1_innerShadow"/></filter><mask id="master_svg2_94_5898"><g filter="url(#master_svg1_94_5898)"><rect x="0" y="3" width="20" height="2" rx="1" fill="#FFFFFF" fill-opacity="1"/></g></mask></defs><g mask="url(#master_svg2_94_5898)"><g filter="url(#master_svg0_94_5898)"><rect x="0" y="3" width="20" height="2" rx="1" fill="#D91B1B" fill-opacity="1"/></g><g><g><path d="M7.646634,5.64626L7.646447,5.64645Q7.57612,5.71677,7.53806,5.80866Q7.5,5.9005399999999995,7.5,6Q7.5,6.01202,7.500577,6.02402Q7.505055,6.11714,7.542791,6.20238Q7.580526,6.28763,7.646447,6.35355Q7.716773,6.42388,7.808658,6.46194Q7.9005438,6.5,8,6.5Q8.0994562,6.5,8.191342,6.46194Q8.283227,6.42388,8.353553,6.35355L8.353741,6.35337L10.35355,4.35355Q10.42388,4.28323,10.46194,4.19134Q10.5,4.0994600000000005,10.5,4Q10.5,3.90054,10.46194,3.8086599999999997Q10.42388,3.71677,10.35355,3.6464499999999997L8.353553,1.646447Q8.283227,1.57612,8.191342,1.53806Q8.0994562,1.5,8,1.5Q7.9005438,1.5,7.808658,1.53806Q7.716773,1.57612,7.646447,1.646447Q7.57612,1.7167729999999999,7.53806,1.8086579999999999Q7.5,1.9005438,7.5,2Q7.5,2.0994562,7.53806,2.191342Q7.57612,2.283227,7.646447,2.353553L9.29289,4L7.646634,5.64626Z" fill-rule="evenodd" fill="#FFFFFF" fill-opacity="1"/></g><g><path d="M9.646634,5.64626L9.646447,5.64645Q9.57612,5.71677,9.53806,5.80866Q9.5,5.9005399999999995,9.5,6Q9.5,6.01202,9.500577,6.02402Q9.505055,6.11714,9.542791,6.20238Q9.580526,6.28763,9.646447,6.35355Q9.716773,6.42388,9.808658,6.46194Q9.9005438,6.5,10,6.5Q10.0994562,6.5,10.191342,6.46194Q10.283227,6.42388,10.353553,6.35355L10.353741,6.35337L12.35355,4.35355Q12.42388,4.28323,12.46194,4.19134Q12.5,4.0994600000000005,12.5,4Q12.5,3.90054,12.46194,3.8086599999999997Q12.42388,3.71677,12.35355,3.6464499999999997L10.353553,1.646447Q10.283227,1.57612,10.191342,1.53806Q10.0994562,1.5,10,1.5Q9.9005438,1.5,9.808658,1.53806Q9.716773,1.57612,9.646447,1.646447Q9.57612,1.7167729999999999,9.53806,1.8086579999999999Q9.5,1.9005438,9.5,2Q9.5,2.0994562,9.53806,2.191342Q9.57612,2.283227,9.646447,2.353553L11.29289,4L9.646634,5.64626Z" fill-rule="evenodd" fill="#FFFFFF" fill-opacity="1"/></g></g></g></svg>