<svg xmlns="http://www.w3.org/2000/svg" xmlns:xlink="http://www.w3.org/1999/xlink" fill="none" version="1.1" width="20" height="20" viewBox="0 0 20 20"><defs><clipPath id="master_svg0_94_5921"><rect x="0" y="0" width="20" height="20" rx="0"/></clipPath></defs><g clip-path="url(#master_svg0_94_5921)"><g><path d="M2.833251953125,2.4999589765625L2.833251953125,17.4999259765625Q2.833251953125,18.0522259765625,3.223777953125,18.4427259765625Q3.614297953125,18.8333259765625,4.166584953125,18.8333259765625L15.833251953125,18.8333259765625Q16.385551953125002,18.8333259765625,16.776051953125,18.4427259765625Q17.166551953125,18.0522259765625,17.166551953125,17.4999259765625L17.166551953125,6.9999959765625Q17.166551953125,6.8965959765625,17.125451953125,6.8016859765625Q17.084451953125,6.7067759765625,17.009151953125,6.6359059765625L11.342691953125,1.3025319765625Q11.273131953124999,1.2370599765625,11.184331953125,1.2018429765625Q11.095531953125,1.1666259765625,11.000001953125,1.1666259765625L4.166584953125,1.1666259765625Q3.614299953125,1.1666259765625,3.223775953125,1.5571499765625Q2.833251953125,1.9476739765625,2.833251953125,2.4999589765625ZM4.166584953125,17.8333259765625Q3.833251953125,17.8333259765625,3.833251953125,17.4999259765625L3.833251953125,2.4999589765625Q3.833251953125,2.3618879765625,3.930882953125,2.2642569765625Q4.028513953125,2.1666259765625,4.166584953125,2.1666259765625L10.801701953125,2.1666259765625L16.166551953125,7.2160359765625L16.166551953125,17.4999259765625Q16.166551953125,17.8333259765625,15.833251953125,17.8333259765625L4.166584953125,17.8333259765625Z" fill-rule="evenodd" fill="#999999" fill-opacity="1"/></g><g><path d="M14.35374,0.6466339999999999L17.35355,3.64645Q17.42388,3.71677,17.46194,3.80866Q17.5,3.90054,17.5,4Q17.5,4.04925,17.490389999999998,4.09754Q17.48078,4.14584,17.46194,4.19134Q17.443089999999998,4.23684,17.41573,4.27778Q17.388370000000002,4.31873,17.35355,4.35355Q17.318730000000002,4.38837,17.27778,4.41573Q17.23684,4.44309,17.19134,4.46194Q17.14584,4.48078,17.097540000000002,4.49039Q17.049239999999998,4.5,17,4.5Q16.90054,4.5,16.80866,4.46194Q16.71677,4.4238800000000005,16.64645,4.35355L13.64663,1.353741L13.64645,1.353553Q13.57612,1.2832270000000001,13.53806,1.1913420000000001Q13.5,1.0994562,13.5,1Q13.5,0.9507543,13.50961,0.9024549Q13.519210000000001,0.854155,13.53806,0.808658Q13.556899999999999,0.763161,13.58426,0.722215Q13.61162,0.681269,13.64645,0.646447Q13.68127,0.611625,13.72221,0.584265Q13.76316,0.556906,13.80866,0.53806Q13.85415,0.519215,13.90245,0.5096069999999999Q13.95075,0.5,14,0.5Q14.09946,0.5,14.19134,0.53806Q14.28323,0.57612,14.35355,0.646447L14.35374,0.6466339999999999ZM7.825,13.9312Q8.58333,14.5,10,14.5Q11.41667,14.5,12.175,13.9312Q13,13.3125,13,12.125Q13,10.09861,10.41603,6.22265L10,5.59861L9.58397,6.22265Q7,10.09861,7,12.125Q7,13.3125,7.825,13.9312ZM11.575,13.1313Q11.08333,13.5,10,13.5Q8.91667,13.5,8.425,13.1313Q8,12.8125,8,12.125Q8,10.55679,10,7.4154Q12,10.55679,12,12.125Q12,12.8125,11.575,13.1313Z" fill-rule="evenodd" fill="#999999" fill-opacity="1"/></g></g></svg>