<svg xmlns="http://www.w3.org/2000/svg" xmlns:xlink="http://www.w3.org/1999/xlink" fill="none" version="1.1" width="20" height="20" viewBox="0 0 20 20"><defs><clipPath id="master_svg0_98_6208"><rect x="0" y="0" width="20" height="20" rx="0"/></clipPath></defs><g clip-path="url(#master_svg0_98_6208)"><g><path d="M2.833251953125,2.4999589765625L2.833251953125,17.4999259765625Q2.833251953125,18.0522259765625,3.223777953125,18.4427259765625Q3.614297953125,18.8333259765625,4.166584953125,18.8333259765625L15.833251953125,18.8333259765625Q16.385551953125002,18.8333259765625,16.776051953125,18.4427259765625Q17.166551953125,18.0522259765625,17.166551953125,17.4999259765625L17.166551953125,5.8332959765625Q17.166551953125,5.7406559765625,17.133351953125,5.6541559765625Q17.100251953125,5.5676659765625,17.038251953125,5.4988059765625L13.288231953125,1.3321439765625Q13.217111953125,1.2531259765625,13.120001953125,1.2098759765625Q13.022891953125,1.1666259765625,12.916581953125,1.1666259765625L4.166584953125,1.1666259765625Q3.614299953125,1.1666259765625,3.223775953125,1.5571499765625Q2.833251953125,1.9476739765625,2.833251953125,2.4999589765625ZM4.166584953125,17.8333259765625Q3.833251953125,17.8333259765625,3.833251953125,17.4999259765625L3.833251953125,2.4999589765625Q3.833251953125,2.3618879765625,3.930882953125,2.2642569765625Q4.028513953125,2.1666259765625,4.166584953125,2.1666259765625L12.693901953125,2.1666259765625L16.166551953125,6.0251559765625L16.166551953125,17.4999259765625Q16.166551953125,17.8333259765625,15.833251953125,17.8333259765625L4.166584953125,17.8333259765625Z" fill-rule="evenodd" fill="#D91B1B" fill-opacity="1"/></g><g><path d="M13.720211953125,9.9000210234375L13.720231953125001,9.8999930234375Q13.833251953125,9.7618560234375,13.833251953125,9.5833740234375L13.833251953125,9.5820423134375Q13.832951953125,9.4699180234375,13.784801953125001,9.3686570234375Q13.736651953125001,9.2673970234375,13.649871953125,9.1963950234375Q13.511731953125,9.0833740234375,13.333251953125,9.0833740234375L13.331921953125,9.0833760234375Q13.219791953125,9.0836740234375,13.118531953125,9.1318250234375Q13.017271953125,9.1799750234375,12.946271953124999,9.2667550234375L12.946251953125,9.2667830234375L9.515761953125,13.4596040234375L7.403343953125,11.6992640234375Q7.264277953125,11.5833740234375,7.083253272355,11.5833740234375L7.083140549125,11.5833740234375Q7.060515853125,11.5833740234375,7.037984153125,11.5854240234375Q6.938935953125,11.5944340234375,6.850873953125,11.6406540234375Q6.762811953125,11.6868740234375,6.699140953125,11.7632840234375Q6.583251953125,11.9023440234375,6.583251953125,12.0833740234375L6.583251953125,12.0834840234375Q6.583256953125,12.1061140234375,6.585304953125,12.1286440234375Q6.594309953125,12.2276940234375,6.640532953125,12.3157540234375Q6.686754953125,12.4038140234375,6.763159953125,12.4674840234375L9.263161953125,14.5508140234375Q9.264891953125,14.5522640234375,9.266631953125,14.5536840234375Q9.304751953124999,14.5848740234375,9.348211953125,14.608024023437501Q9.391681953125,14.631164023437499,9.438821953125,14.6453940234375Q9.485971953125,14.6596140234375,9.534981953125,14.6643740234375Q9.584001953125,14.6691240234375,9.633001953125,14.6642240234375Q9.682001953124999,14.659324023437499,9.729111953124999,14.6449540234375Q9.776211953125,14.6305940234375,9.819611953125,14.6073140234375Q9.863001953125,14.5840340234375,9.901021953125,14.5527340234375Q9.939041953124999,14.5214440234375,9.970231953125,14.4833240234375L13.720211953125,9.9000210234375Z" fill-rule="evenodd" fill="#D91B1B" fill-opacity="1"/></g><g><path d="M12.5,6.3332959765625L16.66667,6.3332959765625Q16.71591,6.3332959765625,16.76421,6.3236859765625Q16.81251,6.3140759765625,16.85801,6.2952359765625Q16.9035,6.2763859765625,16.94445,6.2490259765625Q16.9854,6.2216659765625,17.020220000000002,6.1868459765625Q17.055039999999998,6.1520259765625,17.0824,6.1110759765625Q17.10976,6.0701259765625,17.128610000000002,6.0246359765625Q17.14745,5.9791359765625,17.15706,5.9308359765625Q17.16667,5.8825359765625,17.16667,5.8332959765625Q17.16667,5.7840459765625,17.15706,5.7357459765625Q17.14745,5.6874459765625,17.128610000000002,5.6419459765625Q17.10976,5.5964559765625,17.0824,5.5555059765625Q17.055039999999998,5.5145559765625,17.020220000000002,5.4797359765625Q16.9854,5.4449159765625,16.94445,5.4175559765625Q16.9035,5.3901959765625005,16.85801,5.3713559765625Q16.81251,5.3525059765625,16.76421,5.342895976562501Q16.71591,5.3332959765625,16.66667,5.3332959765625L13,5.3332959765625L13,1.6666259765625Q13,1.6173802765625,12.990393,1.5690808765625Q12.980785000000001,1.5207809765625,12.96194,1.4752839765624999Q12.943094,1.4297869765625,12.915735,1.3888409765625Q12.888375,1.3478949765625,12.853553,1.3130729765625Q12.818731,1.2782509765625,12.777785,1.2508909765625Q12.736839,1.2235319765625001,12.691342,1.2046859765625Q12.645845,1.1858409765625,12.5975451,1.1762329765625Q12.5492457,1.1666259765625,12.5,1.1666259765625Q12.4507543,1.1666259765625,12.4024549,1.1762329765625Q12.354155,1.1858409765625,12.308658,1.2046859765625Q12.263161,1.2235319765625001,12.222215,1.2508909765625Q12.181269,1.2782509765625,12.146447,1.3130729765625Q12.111625,1.3478949765625,12.084265,1.3888409765625Q12.056906,1.4297869765625,12.03806,1.4752839765624999Q12.019214999999999,1.5207809765625,12.009607,1.5690808765625Q12,1.6173802765625,12,1.6666259765625L12,5.8332959765625Q12,5.8825359765625,12.009607,5.9308359765625Q12.019214999999999,5.9791359765625,12.03806,6.0246359765625Q12.056906,6.0701259765625,12.084265,6.1110759765625Q12.111625,6.1520259765625,12.146447,6.1868459765625Q12.181269,6.2216659765625,12.222215,6.2490259765625Q12.263161,6.2763859765625,12.308658,6.2952359765625Q12.354155,6.3140759765625,12.4024549,6.3236859765625Q12.4507543,6.3332959765625,12.5,6.3332959765625Z" fill-rule="evenodd" fill="#D91B1B" fill-opacity="1"/></g></g></svg>