<svg xmlns="http://www.w3.org/2000/svg" xmlns:xlink="http://www.w3.org/1999/xlink" fill="none" version="1.1" width="20" height="20" viewBox="0 0 20 20"><defs><clipPath id="master_svg0_94_5926"><rect x="0" y="0" width="20" height="20" rx="0"/></clipPath></defs><g clip-path="url(#master_svg0_94_5926)"><g><rect x="0" y="0" width="20" height="20" rx="0" fill="#FFFFFF" fill-opacity="0.009999999776482582"/></g><g><path d="M2.5,2Q2.4507543,2,2.4024549,2.009607Q2.354155,2.019215,2.308658,2.0380599999999998Q2.263161,2.056906,2.222215,2.084265Q2.181269,2.111625,2.146447,2.146447Q2.111625,2.181269,2.084265,2.222215Q2.056906,2.263161,2.0380599999999998,2.308658Q2.019215,2.354155,2.009607,2.4024549Q2,2.4507543,2,2.5L2,17.5Q2,17.5492,2.009607,17.5975Q2.019215,17.6458,2.0380599999999998,17.6913Q2.056906,17.736800000000002,2.084265,17.7778Q2.111625,17.8187,2.146447,17.8536Q2.181269,17.8884,2.222215,17.9157Q2.263161,17.9431,2.308658,17.9619Q2.354155,17.980800000000002,2.4024549,17.9904Q2.4507543,18,2.5,18L17.5,18Q17.5492,18,17.5975,17.9904Q17.6458,17.980800000000002,17.6913,17.9619Q17.736800000000002,17.9431,17.7778,17.9157Q17.8187,17.8884,17.8536,17.8536Q17.8884,17.8187,17.9157,17.7778Q17.9431,17.736800000000002,17.9619,17.6913Q17.980800000000002,17.6458,17.9904,17.5975Q18,17.5492,18,17.5L18,2.5Q18,2.4507543,17.9904,2.4024549Q17.980800000000002,2.354155,17.9619,2.308658Q17.9431,2.263161,17.9157,2.222215Q17.8884,2.181269,17.8536,2.146447Q17.8187,2.111625,17.7778,2.084265Q17.736800000000002,2.056906,17.6913,2.0380599999999998Q17.6458,2.019215,17.5975,2.009607Q17.5492,2,17.5,2L12.5,2Q12.42611,2,12.35537,2.021375Q12.28464,2.042749,12.22311,2.083671Q12.16158,2.124592,12.11452,2.181562Q12.06746,2.238532,12.03889,2.30668Q11.33983,3.97408,10,3.97408Q8.660160000000001,3.97408,7.96112,2.30668Q7.93254,2.238533,7.88548,2.181563Q7.83842,2.124593,7.77689,2.083671Q7.71536,2.042749,7.64463,2.021375Q7.57389,2,7.5,2L2.5,2ZM3,3L3,17L17,17L17,3L12.8228,3Q11.86526,4.97408,10,4.97408Q8.13474,4.97408,7.17719,3L3,3Z" fill-rule="evenodd" fill="#999999" fill-opacity="1"/></g><g><path d="M14.10337,7.853741L14.10355,7.853553Q14.17388,7.783227,14.21194,7.691342Q14.25,7.5994562,14.25,7.5Q14.25,7.4005438,14.21194,7.308658Q14.17388,7.216773,14.10355,7.146447L14.10327,7.146161Q14.10126,7.14416,14.09924,7.142182L14.09895,7.1419Q14.02892,7.073663,13.93835,7.036832Q13.84777,7,13.75,7Q13.65054,7,13.55866,7.03806Q13.46677,7.07612,13.39645,7.146447L13.39626,7.146634L8.75,11.79289L6.603741,9.64663L6.603553,9.64645Q6.533227,9.57612,6.441342,9.53806Q6.3494562,9.5,6.25,9.5Q6.1505438,9.5,6.058658,9.53806Q5.966773,9.57612,5.896447,9.64645Q5.82612,9.71677,5.78806,9.80866Q5.75,9.90054,5.75,10Q5.75,10.09946,5.78806,10.19134Q5.82612,10.28323,5.896447,10.35355L5.896634,10.35374L8.39645,12.85355Q8.43127,12.88837,8.47221,12.91573Q8.51316,12.94309,8.55866,12.96194Q8.60416,12.98078,8.65245,12.99039Q8.70075,13,8.75,13Q8.79925,13,8.84754,12.99039Q8.89584,12.98078,8.94134,12.96194Q8.98684,12.94309,9.02778,12.91573Q9.06873,12.88837,9.10355,12.85355L14.10337,7.853741Z" fill-rule="evenodd" fill="#999999" fill-opacity="1"/></g></g></svg>