<svg xmlns="http://www.w3.org/2000/svg" xmlns:xlink="http://www.w3.org/1999/xlink" fill="none" version="1.1" width="20" height="20" viewBox="0 0 20 20"><defs><clipPath id="master_svg0_98_6257"><rect x="0" y="0" width="20" height="20" rx="0"/></clipPath></defs><g clip-path="url(#master_svg0_98_6257)"><g><path d="M2.916584953125,18.4166259765625L9.999921953125,18.4166259765625Q10.049161953125001,18.4166259765625,10.097461953125,18.4070259765625Q10.145761953125,18.397425976562502,10.191261953125,18.3785259765625Q10.236751953125,18.3597259765625,10.277701953125,18.3323259765625Q10.318651953125,18.3050259765625,10.353471953125,18.2702259765625Q10.388291953125,18.2353259765625,10.415651953125,18.1944259765625Q10.443011953125,18.153425976562502,10.461851953125,18.1079259765625Q10.480701953125,18.0624259765625,10.490311953125,18.0141259765625Q10.499921953125,17.9658259765625,10.499921953125,17.9166259765625Q10.499921953125,17.8673759765625,10.490311953125,17.8190759765625Q10.480701953125,17.7707759765625,10.461851953125,17.7252859765625Q10.443011953125,17.6797859765625,10.415651953125,17.6388359765625Q10.388291953125,17.597895976562498,10.353471953125,17.5630759765625Q10.318651953125,17.528245976562502,10.277701953125,17.5008859765625Q10.236751953125,17.4735259765625,10.191261953125,17.4546859765625Q10.145761953125,17.4358359765625,10.097461953125,17.426235976562502Q10.049161953125001,17.4166259765625,9.999921953125,17.4166259765625L2.916584953125,17.4166259765625Q2.583251953125,17.4166259765625,2.583251953125,17.0832959765625L2.583251953125,8.4166259765625L17.416551953125,8.4166259765625L17.416551953125,11.499985976562499Q17.416551953125,11.5120059765625,17.417051953125,11.5240059765625Q17.421551953125,11.6171259765625,17.459251953124998,11.7023759765625Q17.497051953125002,11.7876259765625,17.562951953125,11.8535459765625Q17.633251953125,11.923875976562499,17.725151953125,11.9619359765625Q17.817051953125002,11.9999959765625,17.916451953124998,11.9999959765625Q17.928551953125,11.9999959765625,17.940551953125002,11.999425976562499Q18.033651953125002,11.9949459765625,18.118851953125,11.9572159765625Q18.204151953125,11.919475976562499,18.270051953125,11.8535659765625Q18.340351953125,11.7832359765625,18.378451953125,11.6913459765625Q18.416551953125,11.5994559765625,18.416551953125,11.4999959765625L18.416551953125,7.9166259765625Q18.416551953125,7.8673802765625,18.406951953125,7.8190808765625Q18.397351953125,7.7707809765625,18.378551953125,7.7252839765625Q18.359651953125,7.6797869765625,18.332351953125,7.6388409765625Q18.304951953125,7.5978949765625,18.270151953125,7.5630729765625Q18.235351953125,7.5282509765625,18.194351953125,7.5008909765625Q18.153451953125,7.4735319765625,18.107951953125,7.4546859765625Q18.062451953125,7.4358409765625,18.014151953125,7.4262329765625Q17.965851953125,7.4166259765625,17.916551953125,7.4166259765625L2.083251953125,7.4166259765625Q2.034006253125,7.4166259765625,1.985706853125,7.4262329765625Q1.937406953125,7.4358409765625,1.8919099531249999,7.4546859765625Q1.846412953125,7.4735319765625,1.805466953125,7.5008909765625Q1.764520953125,7.5282509765625,1.729698953125,7.5630729765625Q1.694876953125,7.5978949765625,1.667516953125,7.6388409765625Q1.6401579531250001,7.6797869765625,1.621311953125,7.7252839765625Q1.602466953125,7.7707809765625,1.592858953125,7.8190808765625Q1.583251953125,7.8673802765625,1.583251953125,7.9166259765625L1.583251953125,17.0832959765625Q1.583251953125,17.6355859765625,1.973777953125,18.0261259765625Q2.364299953125,18.4166259765625,2.916584953125,18.4166259765625Z" fill-rule="evenodd" fill="#D91B1B" fill-opacity="1"/></g><g><path d="M1.583251953125,4.1667070234375L1.583251953125,7.9167040234375Q1.583251953125,7.9659540234375,1.592858953125,8.0142540234375Q1.602466953125,8.0625540234375,1.621311953125,8.1080440234375Q1.6401579531250001,8.153544023437501,1.667516953125,8.1944940234375Q1.694876953125,8.235434023437499,1.729698953125,8.2702640234375Q1.764520953125,8.3050840234375,1.805466953125,8.3324440234375Q1.846412953125,8.359804023437501,1.8919099531249999,8.3786440234375Q1.937406953125,8.397494023437499,1.985706853125,8.407104023437501Q2.034006253125,8.4167040234375,2.083251953125,8.4167040234375L17.916551953125,8.4167040234375Q17.965851953125,8.4167040234375,18.014151953125,8.407104023437501Q18.062451953125,8.397494023437499,18.107951953125,8.3786440234375Q18.153451953125,8.359804023437501,18.194351953125,8.3324440234375Q18.235351953125,8.3050840234375,18.270151953125,8.2702640234375Q18.304951953125,8.235434023437499,18.332351953125,8.1944940234375Q18.359651953125,8.153544023437501,18.378551953125,8.1080440234375Q18.397351953125,8.0625540234375,18.406951953125,8.0142540234375Q18.416551953125,7.9659540234375,18.416551953125,7.9167040234375L18.416551953125,4.1667070234375Q18.416551953125,3.6144220234375,18.026051953125,3.2239000234375Q17.635551953125002,2.8333740234375,17.083251953125,2.8333740234375L2.916584953125,2.8333740234375Q2.364299953125,2.8333740234375,1.973775953125,3.2238980234375Q1.583251953125,3.6144220234375,1.583251953125,4.1667070234375ZM2.583251953125,7.4167040234375L17.416551953125,7.4167040234375L17.416551953125,4.1667070234375Q17.416551953125,3.8333740234375,17.083251953125,3.8333740234375L2.916584953125,3.8333740234375Q2.583251953125,3.8333740234375,2.583251953125,4.1667070234375L2.583251953125,7.4167040234375Z" fill-rule="evenodd" fill="#D91B1B" fill-opacity="1"/></g><g><path d="M6.166748046875,2.0833740234375L6.166748046875,5.4167040234375Q6.166748046875,5.4659540234375,6.176355046875,5.5142540234375Q6.185963046875,5.5625540234374995,6.204808046875,5.6080440234375Q6.223654046875,5.6535440234375,6.251013046875,5.6944940234375Q6.278373046875,5.7354340234375005,6.313195046875,5.7702640234375Q6.348017046875,5.8050840234375,6.388963046875,5.8324440234375Q6.429909046875,5.8598040234374995,6.475406046875,5.8786440234375Q6.520903046875,5.8974940234375,6.569202946875,5.907104023437499Q6.617502346875,5.9167040234375,6.666748046875,5.9167040234375Q6.715993746875,5.9167040234375,6.764293146875,5.907104023437499Q6.812593046875,5.8974940234375,6.858090046875,5.8786440234375Q6.903587046875,5.8598040234374995,6.944533046875,5.8324440234375Q6.985479046875,5.8050840234375,7.020301046875,5.7702640234375Q7.055123046875,5.7354340234375005,7.082483046875,5.6944940234375Q7.109842046875,5.6535440234375,7.128688046875,5.6080440234375Q7.147533046875,5.5625540234374995,7.157141046875,5.5142540234375Q7.166748046875,5.4659540234375,7.166748046875,5.4167040234375L7.166748046875,2.0833740234375Q7.166748046875,2.0341283234375,7.157141046875,1.9858289234375Q7.147533046875,1.9375290234375,7.128688046875,1.8920320234374999Q7.109842046875,1.8465350234375,7.082483046875,1.8055890234375Q7.055123046875,1.7646430234375,7.020301046875,1.7298210234375Q6.985479046875,1.6949990234375,6.944533046875,1.6676390234375Q6.903587046875,1.6402800234375001,6.858090046875,1.6214340234375Q6.812593046875,1.6025890234375,6.764293146875,1.5929810234375Q6.715993746875,1.5833740234375,6.666748046875,1.5833740234375Q6.617502346875,1.5833740234375,6.569202946875,1.5929810234375Q6.520903046875,1.6025890234375,6.475406046875,1.6214340234375Q6.429909046875,1.6402800234375001,6.388963046875,1.6676390234375Q6.348017046875,1.6949990234375,6.313195046875,1.7298210234375Q6.278373046875,1.7646430234375,6.251013046875,1.8055890234375Q6.223654046875,1.8465350234375,6.204808046875,1.8920320234374999Q6.185963046875,1.9375290234375,6.176355046875,1.9858289234375Q6.166748046875,2.0341283234375,6.166748046875,2.0833740234375Z" fill-rule="evenodd" fill="#D91B1B" fill-opacity="1"/></g><g><path d="M12.833251953125,2.0833740234375L12.833251953125,5.4167040234375Q12.833251953125,5.4659540234375,12.842858953125,5.5142540234375Q12.852466953124999,5.5625540234374995,12.871311953125,5.6080440234375Q12.890157953125,5.6535440234375,12.917516953125,5.6944940234375Q12.944876953125,5.7354340234375005,12.979698953125,5.7702640234375Q13.014520953125,5.8050840234375,13.055466953125,5.8324440234375Q13.096412953125,5.8598040234374995,13.141909953125,5.8786440234375Q13.187406953125,5.8974940234375,13.235706853125,5.907104023437499Q13.284006253125,5.9167040234375,13.333251953125,5.9167040234375Q13.382497653125,5.9167040234375,13.430797053125,5.907104023437499Q13.479096953125,5.8974940234375,13.524593953125,5.8786440234375Q13.570090953125,5.8598040234374995,13.611036953125,5.8324440234375Q13.651982953125,5.8050840234375,13.686804953125,5.7702640234375Q13.721626953125,5.7354340234375005,13.748986953125,5.6944940234375Q13.776345953125,5.6535440234375,13.795191953125,5.6080440234375Q13.814036953125001,5.5625540234374995,13.823644953125,5.5142540234375Q13.833251953125,5.4659540234375,13.833251953125,5.4167040234375L13.833251953125,2.0833740234375Q13.833251953125,2.0341283234375,13.823644953125,1.9858289234375Q13.814036953125001,1.9375290234375,13.795191953125,1.8920320234374999Q13.776345953125,1.8465350234375,13.748986953125,1.8055890234375Q13.721626953125,1.7646430234375,13.686804953125,1.7298210234375Q13.651982953125,1.6949990234375,13.611036953125,1.6676390234375Q13.570090953125,1.6402800234375001,13.524593953125,1.6214340234375Q13.479096953125,1.6025890234375,13.430797053125,1.5929810234375Q13.382497653125,1.5833740234375,13.333251953125,1.5833740234375Q13.284006253125,1.5833740234375,13.235706853125,1.5929810234375Q13.187406953125,1.6025890234375,13.141909953125,1.6214340234375Q13.096412953125,1.6402800234375001,13.055466953125,1.6676390234375Q13.014520953125,1.6949990234375,12.979698953125,1.7298210234375Q12.944876953125,1.7646430234375,12.917516953125,1.8055890234375Q12.890157953125,1.8465350234375,12.871311953125,1.8920320234374999Q12.852466953124999,1.9375290234375,12.842858953125,1.9858289234375Q12.833251953125,2.0341283234375,12.833251953125,2.0833740234375Z" fill-rule="evenodd" fill="#D91B1B" fill-opacity="1"/></g><g><path d="M18.3737,13.832182Q18.43472,13.763538,18.46736,13.67769Q18.5,13.5918428,18.5,13.5Q18.5,13.4507543,18.490389999999998,13.4024549Q18.48078,13.354155,18.46194,13.308658Q18.443089999999998,13.263161,18.41573,13.222215Q18.388370000000002,13.181269,18.35355,13.146447Q18.318730000000002,13.111625,18.27778,13.084265Q18.23684,13.056906,18.19134,13.03806Q18.14584,13.019214999999999,18.097540000000002,13.009607Q18.04925,13,18,13Q17.89289,13,17.79517,13.04388Q17.69746,13.08776,17.6263,13.167818L13.97859,17.27148L11.853553,15.14645Q11.783227,15.07612,11.691342,15.03806Q11.5994562,15,11.5,15Q11.4507543,15,11.4024549,15.00961Q11.354155,15.01921,11.308658,15.03806Q11.263161,15.05691,11.222215,15.08426Q11.181269,15.11162,11.146447,15.14645Q11.111625,15.18127,11.084265,15.22221Q11.056906,15.26316,11.03806,15.30866Q11.019214999999999,15.35416,11.009607,15.40245Q11,15.45075,11,15.5Q11,15.59946,11.03806,15.69134Q11.07612,15.78323,11.146447,15.85355L11.146634,15.85374L14.02141,18.72852L18.3737,13.832182L18.3737,13.832182Z" fill-rule="evenodd" fill="#D91B1B" fill-opacity="1"/></g></g></svg>