<svg width="24" height="25" viewBox="0 0 24 25" fill="none" xmlns="http://www.w3.org/2000/svg">
<g id="Frame">
<path id="Vector" d="M8.44712 4.5C8.81042 4.5 9.14512 4.69701 9.32142 5.01463L10.5447 7.21803C10.7048 7.50653 10.7123 7.85549 10.5648 8.15064L9.38637 10.5074C9.38637 10.5074 9.72787 12.2632 11.1571 13.6924C12.5863 15.1216 14.3361 15.4572 14.3361 15.4572L16.6926 14.279C16.9879 14.1313 17.3371 14.1389 17.6257 14.2994L19.8354 15.5279C20.1527 15.7043 20.3495 16.0388 20.3495 16.4019V18.9386C20.3495 20.2305 19.1495 21.1635 17.9255 20.7505C15.4115 19.9022 11.5092 18.2871 9.03577 15.8137C6.56232 13.3403 4.94722 9.43793 4.09895 6.92399C3.68594 5.69993 4.61898 4.5 5.91081 4.5H8.44712Z" fill="#D91B1B"/>
</g>
</svg>
