<svg width="29" height="29" viewBox="0 0 29 29" fill="none" xmlns="http://www.w3.org/2000/svg">
<g id="Frame 1164">
<rect width="28.4444" height="28.4444" rx="14.2222" fill="url(#paint0_linear_1355_9527)"/>
<path id="2ND" d="M10.269 12.4043L10.2769 12.2715C10.3394 11.584 10.9019 11.0762 11.6362 11.0762C12.394 11.0762 12.7925 11.6387 12.7925 12.2246C12.7925 13.0449 12.0503 13.709 11.3472 14.2949L7.06592 17.8418L6.71436 19.8887H14.5112L14.9097 17.748H10.6206L10.6519 17.6152L13.1987 15.6152C14.4409 14.6699 15.5034 13.5762 15.5034 11.9668C15.5034 9.7793 13.5112 8.97461 11.7456 8.97461C9.48779 8.97461 7.90186 10.2324 7.79248 12.0605L7.76123 12.4043H10.269ZM19.9253 19.8887L20.7621 15.1456H20.2031L19.5225 18.972H19.4878L17.7308 15.1456H17.1718L16.335 19.8887H16.8906L17.5642 16.0727H17.5989L19.3732 19.8887H19.9253ZM22.1232 15.1456L21.2864 19.8887H22.5746C24.0989 19.8887 24.96 19.2498 25.1857 18.0067L25.2829 17.4685C25.3142 17.288 25.3246 17.0623 25.3246 16.9269C25.3246 15.8644 24.6753 15.1456 23.4149 15.1456H22.1232ZM22.5954 15.6421H23.2586C24.2552 15.6421 24.7586 16.1005 24.7586 16.9859C24.7586 17.1144 24.7482 17.3366 24.7239 17.4685L24.6336 17.9512C24.4531 18.913 23.6927 19.3921 22.5781 19.3921H21.9392L22.5954 15.6421Z" fill="white"/>
</g>
<defs>
<linearGradient id="paint0_linear_1355_9527" x1="2.25775" y1="21.3238" x2="27.0171" y2="9.2978" gradientUnits="userSpaceOnUse">
<stop stop-color="#101A38"/>
<stop offset="1" stop-color="#5C6378"/>
</linearGradient>
</defs>
</svg>
