<svg width="46" height="18" viewBox="0 0 46 18" fill="none" xmlns="http://www.w3.org/2000/svg">
<g id="Frame 820">
<rect x="0.5" width="45" height="18" rx="9" fill="#D91B1B"/>
<g id="Group 135">
<circle id="Ellipse 68" cx="9.5" cy="9" r="6" fill="white"/>
<g id="V">
<path d="M7.47873 6.25027L8.47764 11.8681H9.60564L12.6707 6.25027H11.6547L9.24463 10.8295H9.22063L8.49473 6.25027H7.47873Z" fill="#D91B1B"/>
<path d="M7.47873 6.25027L7.5149 6.05357H7.23147L7.27817 6.31619L7.47873 6.25027ZM8.47764 11.8681L8.27708 11.934L8.30034 12.0648H8.44147L8.47764 11.8681ZM9.60564 11.8681L9.56947 12.0648H9.7106L9.78195 11.934L9.60564 11.8681ZM12.6707 6.25027L12.847 6.31619L12.9903 6.05357H12.7069L12.6707 6.25027ZM11.6547 6.25027L11.6909 6.05357H11.5472L11.4767 6.18749L11.6547 6.25027ZM9.24463 10.8295L9.20846 11.0262H9.35214L9.42263 10.8923L9.24463 10.8295ZM9.22063 10.8295L9.01955 10.8923L9.04077 11.0262H9.18446L9.22063 10.8295ZM8.49473 6.25027L8.69581 6.18749L8.67458 6.05357H8.5309L8.49473 6.25027ZM7.27817 6.31619L8.27708 11.934L8.67819 11.8021L7.67928 6.18434L7.27817 6.31619ZM8.44147 12.0648H9.56947L9.64181 11.6714H8.51381L8.44147 12.0648ZM9.78195 11.934L12.847 6.31619L12.4944 6.18434L9.42933 11.8021L9.78195 11.934ZM12.7069 6.05357H11.6909L11.6186 6.44697H12.6346L12.7069 6.05357ZM11.4767 6.18749L9.06663 10.7667L9.42263 10.8923L11.8327 6.31305L11.4767 6.18749ZM9.2808 10.6328H9.2568L9.18446 11.0262H9.20846L9.2808 10.6328ZM9.42172 10.7667L8.69581 6.18749L8.29364 6.31305L9.01955 10.8923L9.42172 10.7667ZM8.5309 6.05357H7.5149L7.44255 6.44697H8.45855L8.5309 6.05357Z" fill="#D91B1B"/>
</g>
</g>
<path id="&#230;&#149;&#153;&#231;&#187;&#131;" d="M25.62 8.27C25.8 9.33 26.09 10.28 26.49 11.12C25.93 12.02 25.17 12.76 24.2 13.32L24.6 13.97C25.52 13.4 26.28 12.68 26.86 11.82C27.35 12.66 27.98 13.38 28.76 13.97L29.12 13.34C28.36 12.75 27.73 12.03 27.25 11.17C27.85 10.03 28.18 8.65 28.24 7.05H28.86V6.36H26.26C26.36 5.92 26.46 5.45 26.54 4.94L25.83 4.82C25.61 6.52 25.18 7.87 24.54 8.87L24.97 9.4C25.21 9.06 25.42 8.69 25.62 8.27ZM27.57 7.05C27.53 8.31 27.29 9.43 26.86 10.4C26.44 9.45 26.18 8.35 26.06 7.11C26.06 7.09 26.07 7.07 26.08 7.05H27.57ZM20.53 5.78V6.42H21.84V7.44H20.06V8.11H22.54C22.25 8.42 21.94 8.72 21.6 9.01H20.54V9.65H20.77C20.49 9.84 20.19 10.03 19.87 10.21L20.32 10.72C20.86 10.42 21.37 10.06 21.87 9.65H23.42C23.08 10.01 22.73 10.32 22.37 10.59V11.32C21.67 11.4 20.91 11.47 20.07 11.51L20.17 12.2C20.97 12.13 21.71 12.05 22.37 11.97V12.84C22.37 13.14 22.22 13.3 21.93 13.3C21.71 13.3 21.41 13.28 21.04 13.25L21.22 13.9H22.2C22.78 13.9 23.07 13.61 23.07 13.03V11.87C23.77 11.77 24.36 11.65 24.85 11.52V10.85C24.33 10.99 23.73 11.12 23.07 11.22V10.73C23.53 10.33 23.93 9.93 24.27 9.53V9.01H22.57C22.85 8.73 23.12 8.43 23.39 8.11H24.64V7.44H23.9C24.3 6.87 24.68 6.24 25.04 5.56L24.48 5.27C24.09 6.05 23.63 6.78 23.11 7.44H22.53V6.42H23.6V5.78H22.53V4.89H21.84V5.78H20.53ZM33.11 11.97C32.21 12.35 31.14 12.66 29.92 12.88L30.01 13.6C31.17 13.36 32.21 13.06 33.11 12.68V11.97ZM31.6 4.85C31.24 6.03 30.82 7.07 30.32 7.98C30.23 8.11 30.13 8.2 30.01 8.26L30.19 8.92C30.71 8.83 31.22 8.73 31.73 8.63C31.23 9.57 30.8 10.23 30.45 10.63C30.36 10.71 30.25 10.78 30.13 10.84L30.32 11.51C31.24 11.37 32.19 11.12 33.19 10.74V10.09C32.52 10.34 31.85 10.54 31.18 10.68C31.72 9.97 32.42 8.78 33.26 7.11L32.6 6.86C32.42 7.25 32.24 7.62 32.06 7.98C31.66 8.06 31.26 8.13 30.86 8.19C31.34 7.42 31.81 6.4 32.29 5.12L31.6 4.85ZM34.32 10.87C34.03 11.69 33.61 12.49 33.06 13.28L33.68 13.63C34.16 12.94 34.58 12.11 34.95 11.13L34.32 10.87ZM38.07 10.86L37.43 11.07C37.83 11.81 38.2 12.66 38.53 13.62L39.14 13.35C38.84 12.47 38.48 11.64 38.07 10.86ZM35.84 13.91C36.41 13.91 36.7 13.64 36.7 13.11V10.29H38.83V9.65H36.7V7.71H35.36C35.48 7.37 35.6 7 35.72 6.62H38.83V5.95H35.92C36.01 5.63 36.1 5.3 36.19 4.95L35.49 4.82C35.39 5.21 35.3 5.59 35.2 5.95H32.98V6.62H35C34.88 7 34.76 7.36 34.64 7.71H33.34V8.36H34.38C34.17 8.84 33.95 9.28 33.73 9.67L33.89 10.29H36.01V12.89C36.01 13.15 35.88 13.28 35.63 13.28L34.67 13.25L34.85 13.91H35.84ZM35.11 8.36H36.01V9.65H34.53C34.73 9.25 34.92 8.82 35.11 8.36Z" fill="white"/>
</g>
</svg>
