<svg width="16" height="17" viewBox="0 0 16 17" fill="none" xmlns="http://www.w3.org/2000/svg">
<g id="Frame">
<path id="Vector" d="M14.6666 4.5C14.6666 3.39543 13.7712 2.5 12.6666 2.5H3.33325C2.22868 2.5 1.33325 3.39543 1.33325 4.5V11C1.33325 11.8284 2.00482 12.5 2.83325 12.5H3.69664C4.04823 12.5 4.33325 12.785 4.33325 13.1366V13.1366C4.33325 13.6099 4.83128 13.9177 5.25456 13.706L7.24429 12.7111C7.522 12.5723 7.82823 12.5 8.13872 12.5H12.6666C13.7712 12.5 14.6666 11.6046 14.6666 10.5V4.5Z" stroke="#666666" stroke-linecap="round" stroke-linejoin="round"/>
<path id="Vector_2" d="M4.66675 7V8" stroke="#666666" stroke-linecap="round" stroke-linejoin="round"/>
<path id="Vector_3" d="M8 7V8" stroke="#666666" stroke-linecap="round" stroke-linejoin="round"/>
<path id="Vector_4" d="M11.3333 7V8" stroke="#666666" stroke-linecap="round" stroke-linejoin="round"/>
</g>
</svg>
