<svg xmlns="http://www.w3.org/2000/svg" xmlns:xlink="http://www.w3.org/1999/xlink" fill="none" version="1.1" width="24" height="24" viewBox="0 0 24 24"><defs><clipPath id="master_svg0_120_7367"><rect x="0" y="0" width="24" height="24" rx="0"/></clipPath></defs><g clip-path="url(#master_svg0_120_7367)"><g><rect x="0" y="0" width="24" height="24" rx="0" fill="#FFFFFF" fill-opacity="0.009999999776482582"/></g><g><g transform="matrix(-1,0,0,1,30.23681640625,0)"><path d="M15.118408203125,9.14908447265625L21.118408203125,9.14908447265625Q21.177498203125,9.14908447265625,21.235458203125,9.16061347265625Q21.293418203125,9.17214247265625,21.348018203125,9.19475647265625Q21.402608203125,9.21737147265625,21.451748203125,9.25020247265625Q21.500888203125,9.28303447265625,21.542668203125,9.32482047265625Q21.584458203125,9.36660647265625,21.617288203125,9.41574247265625Q21.650118203125,9.46487747265625,21.672738203125,9.51947447265625Q21.695348203125,9.574070472656249,21.706878203125,9.63203047265625Q21.718408203125,9.68998967265625,21.718408203125,9.74908447265625Q21.718408203125,9.80817927265625,21.706878203125,9.86613847265625Q21.695348203125,9.924098472656251,21.672738203125,9.97869447265625Q21.650118203125,10.03329147265625,21.617288203125,10.08242647265625Q21.584458203125,10.13156247265625,21.542668203125,10.17334847265625Q21.500888203125,10.21513447265625,21.451748203125,10.24796647265625Q21.402618203125,10.28079747265625,21.348018203125,10.30341247265625Q21.293418203125,10.32602647265625,21.235458203125,10.33755547265625Q21.177498203125,10.34908447265625,21.118408203125,10.34908447265625L15.118408203125,10.34908447265625Q15.059313403125,10.34908447265625,15.001354203125,10.33755547265625Q14.943394203124999,10.32602647265625,14.888798203125,10.30341247265625Q14.834201203125,10.28079747265625,14.785066203125,10.24796647265625Q14.735930203125,10.21513447265625,14.694144203125,10.17334847265625Q14.652358203125,10.13156247265625,14.619526203125,10.08242647265625Q14.586695203125,10.03329147265625,14.564080203125,9.97869447265625Q14.541466203125,9.924098472656251,14.529937203125,9.86613847265625Q14.518408203125,9.80817927265625,14.518408203125,9.74908447265625Q14.518408203125,9.68998967265625,14.529937203125,9.63203047265625Q14.541466203125,9.574070472656249,14.564080203125,9.51947447265625Q14.586695203125,9.46487747265625,14.619526203125,9.41574247265625Q14.652358203125,9.36660647265625,14.694144203125,9.32482047265625Q14.735930203125,9.28303447265625,14.785066203125,9.25020247265625Q14.834201203125,9.21737147265625,14.888798203125,9.19475647265625Q14.943394203124999,9.17214247265625,15.001354203125,9.16061347265625Q15.059313403125,9.14908447265625,15.118408203125,9.14908447265625Z" fill-rule="evenodd" fill="#222222" fill-opacity="1"/></g><g transform="matrix(-1,0,0,1,30.23681640625,0)"><path d="M15.118408203125,13.14908447265625L21.118408203125,13.14908447265625Q21.177498203125,13.14908447265625,21.235458203125,13.16061347265625Q21.293418203125,13.17214247265625,21.348018203125,13.19475647265625Q21.402608203125,13.21737147265625,21.451748203125,13.25020247265625Q21.500888203125,13.28303447265625,21.542668203125,13.32482047265625Q21.584458203125,13.36660647265625,21.617288203125,13.41574247265625Q21.650118203125,13.46487747265625,21.672738203125,13.51947447265625Q21.695348203125,13.574070472656249,21.706878203125,13.63203047265625Q21.718408203125,13.68998967265625,21.718408203125,13.74908447265625Q21.718408203125,13.80817927265625,21.706878203125,13.86613847265625Q21.695348203125,13.924098472656251,21.672738203125,13.97869447265625Q21.650118203125,14.03329147265625,21.617288203125,14.08242647265625Q21.584458203125,14.13156247265625,21.542668203125,14.17334847265625Q21.500888203125,14.21513447265625,21.451748203125,14.24796647265625Q21.402618203125,14.28079747265625,21.348018203125,14.30341247265625Q21.293418203125,14.32602647265625,21.235458203125,14.33755547265625Q21.177498203125,14.34908447265625,21.118408203125,14.34908447265625L15.118408203125,14.34908447265625Q15.059313403125,14.34908447265625,15.001354203125,14.33755547265625Q14.943394203124999,14.32602647265625,14.888798203125,14.30341247265625Q14.834201203125,14.28079747265625,14.785066203125,14.24796647265625Q14.735930203125,14.21513447265625,14.694144203125,14.17334847265625Q14.652358203125,14.13156247265625,14.619526203125,14.08242647265625Q14.586695203125,14.03329147265625,14.564080203125,13.97869447265625Q14.541466203125,13.924098472656251,14.529937203125,13.86613847265625Q14.518408203125,13.80817927265625,14.518408203125,13.74908447265625Q14.518408203125,13.68998967265625,14.529937203125,13.63203047265625Q14.541466203125,13.574070472656249,14.564080203125,13.51947447265625Q14.586695203125,13.46487747265625,14.619526203125,13.41574247265625Q14.652358203125,13.36660647265625,14.694144203125,13.32482047265625Q14.735930203125,13.28303447265625,14.785066203125,13.25020247265625Q14.834201203125,13.21737147265625,14.888798203125,13.19475647265625Q14.943394203124999,13.17214247265625,15.001354203125,13.16061347265625Q15.059313403125,13.14908447265625,15.118408203125,13.14908447265625Z" fill-rule="evenodd" fill="#222222" fill-opacity="1"/></g><g transform="matrix(-1,0,0,1,30.23681640625,0)"><path d="M15.118408203125,17.14908447265625L21.118408203125,17.14908447265625Q21.177498203125,17.14908447265625,21.235458203125,17.16061347265625Q21.293418203125,17.17214247265625,21.348018203125,17.19475647265625Q21.402608203125,17.21737147265625,21.451748203125,17.25020247265625Q21.500888203125,17.28303447265625,21.542668203125,17.32482047265625Q21.584458203125,17.36660647265625,21.617288203125,17.415742472656248Q21.650118203125,17.46487747265625,21.672738203125,17.51947447265625Q21.695348203125,17.57407047265625,21.706878203125,17.63203047265625Q21.718408203125,17.68998967265625,21.718408203125,17.74908447265625Q21.718408203125,17.80817927265625,21.706878203125,17.86613847265625Q21.695348203125,17.92409847265625,21.672738203125,17.97869447265625Q21.650118203125,18.03329147265625,21.617288203125,18.082426472656252Q21.584458203125,18.13156247265625,21.542668203125,18.17334847265625Q21.500888203125,18.21513447265625,21.451748203125,18.24796647265625Q21.402618203125,18.28079747265625,21.348018203125,18.30341247265625Q21.293418203125,18.32602647265625,21.235458203125,18.33755547265625Q21.177498203125,18.34908447265625,21.118408203125,18.34908447265625L15.118408203125,18.34908447265625Q15.059313403125,18.34908447265625,15.001354203125,18.33755547265625Q14.943394203124999,18.32602647265625,14.888798203125,18.30341247265625Q14.834201203125,18.28079747265625,14.785066203125,18.24796647265625Q14.735930203125,18.21513447265625,14.694144203125,18.17334847265625Q14.652358203125,18.13156247265625,14.619526203125,18.082426472656252Q14.586695203125,18.03329147265625,14.564080203125,17.97869447265625Q14.541466203125,17.92409847265625,14.529937203125,17.86613847265625Q14.518408203125,17.80817927265625,14.518408203125,17.74908447265625Q14.518408203125,17.68998967265625,14.529937203125,17.63203047265625Q14.541466203125,17.57407047265625,14.564080203125,17.51947447265625Q14.586695203125,17.46487747265625,14.619526203125,17.415742472656248Q14.652358203125,17.36660647265625,14.694144203125,17.32482047265625Q14.735930203125,17.28303447265625,14.785066203125,17.25020247265625Q14.834201203125,17.21737147265625,14.888798203125,17.19475647265625Q14.943394203124999,17.17214247265625,15.001354203125,17.16061347265625Q15.059313403125,17.14908447265625,15.118408203125,17.14908447265625Z" fill-rule="evenodd" fill="#222222" fill-opacity="1"/></g></g><g><path d="M16.525,2.9L15.5,2.9Q15.4409,2.9,15.3829,2.911529Q15.325,2.923058,15.2704,2.945672Q15.2158,2.968287,15.1667,3.001118Q15.1175,3.03395,15.0757,3.075736Q15.0339,3.117522,15.0011,3.166658Q14.9683,3.215793,14.9457,3.27039Q14.9231,3.324986,14.9115,3.382946Q14.9,3.4409052,14.9,3.5L14.9,4.4L9.1,4.4L9.1,3.5Q9.1,3.4409052,9.088470000000001,3.382946Q9.07694,3.324986,9.05433,3.27039Q9.03171,3.215793,8.99888,3.166658Q8.96605,3.117522,8.92426,3.075736Q8.882480000000001,3.03395,8.83334,3.001118Q8.78421,2.968287,8.729610000000001,2.945672Q8.67501,2.923058,8.617049999999999,2.911529Q8.559090000000001,2.9,8.5,2.9L5,2.9Q4.337258,2.9,3.868629,3.368629Q3.4,3.837258,3.4,4.5L3.4,21Q3.4,21.6628,3.86863,22.1314Q4.337258,22.6,5,22.6L19,22.6Q19.6628,22.6,20.1314,22.1314Q20.6,21.6628,20.6,21L20.6,4.5Q20.6,3.837258,20.1314,3.368631Q19.6628,2.9,19,2.9L16.525,2.9ZM16.1,4.1L16.1,5Q16.1,5.05909,16.0885,5.11705Q16.076900000000002,5.17501,16.054299999999998,5.22961Q16.0317,5.28421,15.9989,5.33334Q15.966,5.38248,15.9243,5.42426Q15.8825,5.46605,15.8333,5.49888Q15.7842,5.53171,15.7296,5.55433Q15.675,5.5769400000000005,15.6171,5.58847Q15.5591,5.6,15.5,5.6L8.5,5.6Q8.440909999999999,5.6,8.382950000000001,5.58847Q8.32499,5.5769400000000005,8.270389999999999,5.55433Q8.21579,5.53171,8.16666,5.49888Q8.117519999999999,5.46605,8.07574,5.42426Q8.03395,5.38248,8.00112,5.33334Q7.96829,5.28421,7.94567,5.22961Q7.9230599999999995,5.17501,7.91153,5.11705Q7.9,5.05909,7.9,5L7.9,4.1L5,4.1Q4.6,4.1,4.6,4.5L4.6,21Q4.6,21.4,5,21.4L19,21.4Q19.4,21.4,19.4,21L19.4,4.5Q19.4,4.1,19,4.1L16.1,4.1Z" fill-rule="evenodd" fill="#222222" fill-opacity="1"/></g><g><path d="M7.9,5L7.9,2Q7.9,1.9409052,7.911529,1.882946Q7.923058,1.824986,7.945672,1.77039Q7.968287,1.7157930000000001,8.001118,1.666658Q8.03395,1.6175220000000001,8.075736,1.575736Q8.117522,1.53395,8.166658,1.501118Q8.215793,1.4682870000000001,8.27039,1.445672Q8.324985999999999,1.4230580000000002,8.382946,1.411529Q8.4409052,1.4,8.5,1.4L15.5,1.4Q15.559090000000001,1.4,15.617049999999999,1.411529Q15.67501,1.4230580000000002,15.729610000000001,1.445672Q15.78421,1.4682870000000001,15.83334,1.501118Q15.882480000000001,1.53395,15.92426,1.575736Q15.96605,1.6175220000000001,15.99888,1.666658Q16.03171,1.7157930000000001,16.05433,1.77039Q16.07694,1.824986,16.08847,1.882946Q16.1,1.9409052,16.1,2L16.1,5Q16.1,5.059089999999999,16.08847,5.11705Q16.07694,5.17501,16.05433,5.22961Q16.03171,5.28421,15.99888,5.33334Q15.96605,5.38248,15.92426,5.42426Q15.882480000000001,5.46605,15.83334,5.49888Q15.78421,5.53171,15.729610000000001,5.55433Q15.67501,5.5769400000000005,15.617049999999999,5.58847Q15.559090000000001,5.6,15.5,5.6L8.5,5.6Q8.4409052,5.6,8.382946,5.58847Q8.324985999999999,5.5769400000000005,8.27039,5.55433Q8.215793,5.53171,8.166658,5.49888Q8.117522,5.46605,8.075736,5.42426Q8.03395,5.38248,8.001118,5.33334Q7.968287,5.28421,7.945672,5.22961Q7.923058,5.17501,7.911529,5.11705Q7.9,5.059089999999999,7.9,5ZM9.1,2.6L9.1,4.4L14.9,4.4L14.9,2.6L9.1,2.6Z" fill="#222222" fill-opacity="1"/></g></g></svg>