<svg xmlns="http://www.w3.org/2000/svg" xmlns:xlink="http://www.w3.org/1999/xlink" fill="none" version="1.1" width="40" height="40" viewBox="0 0 40 40"><defs><clipPath id="master_svg0_166_257"><rect x="0" y="0" width="40" height="40" rx="0"/></clipPath></defs><g clip-path="url(#master_svg0_166_257)"><g><path d="M9,33.99998474121094L31,33.99998474121094Q31.4142,33.99998474121094,31.7071,33.707084741210934Q32,33.41418474121094,32,32.99998474121094L32,6.4558547412109375Q32,6.267024741210937,31.8665,6.133504741210937Q31.733,5.9999847412109375,31.5441,5.9999847412109375Q31.3216,5.9999847412109375,31.1847,6.175484741210937L25.7224,13.178414741210938Q24.8216,14.333314741210938,23.3569,14.333314741210938L12.246590000000001,14.333314741210938Q11.78996,14.333314741210938,11.4909,14.678384741210937L8.24431,18.42448474121094Q8,18.70638474121094,8,19.079384741210937L8,32.99998474121094Q8,33.41418474121094,8.29289,33.707084741210934Q8.58579,33.99998474121094,9,33.99998474121094ZM9,35.99998474121094Q7.757358,35.99998474121094,6.87868,35.12128474121094Q6,34.24258474121093,6,32.99998474121094L6,19.079384741210937Q6,17.960284741210938,6.732933,17.114584741210937L9.97952,13.368524741210937Q10.8767,12.333314741210938,12.246590000000001,12.333314741210938L23.3569,12.333314741210938Q23.8451,12.333314741210938,24.1454,11.948344741210938L29.6077,4.945417641210938Q30.3451,3.9999847412109375,31.5441,3.9999847412109375Q32.5614,3.9999847412109375,33.280699999999996,4.7192937412109375Q34,5.438601741210937,34,6.4558547412109375L34,32.99998474121094Q34,34.24258474121093,33.121300000000005,35.12128474121094Q32.242599999999996,35.99998474121094,31,35.99998474121094L9,35.99998474121094Z" fill="#222222" fill-opacity="1"/></g><g><path d="M32.5,5.9999847412109375L19.902540000000002,5.9999847412109375Q19.45127,5.9999847412109375,19.1527,6.338364741210937L12.249838,14.161604741210937Q12.184674,14.235454741210937,12.106354,14.295174741210937Q12.028034,14.354894741210938,11.939568,14.398194741210938Q11.851102000000001,14.441484741210937,11.75589,14.466694741210938Q11.660678,14.491894741210938,11.5623783,14.498034741210937Q11.4640787,14.504184741210938,11.366469,14.491024741210937Q11.26886,14.477874741210938,11.175692,14.445934741210937Q11.082524,14.413994741210937,10.997377,14.364494741210937Q10.912231,14.314984741210937,10.838378,14.249824741210938Q10.764526,14.184654741210938,10.704805,14.106334741210938Q10.645085,14.028014741210937,10.601791,13.939554741210937Q10.558497,13.851084741210938,10.533294,13.755874741210938Q10.508091,13.660664741210937,10.501947,13.562364741210937Q10.4958,13.464064741210937,10.508955,13.366454741210937Q10.522107,13.268844741210938,10.554049,13.175674741210937Q10.58599,13.082504741210938,10.635494,12.997364741210937Q10.684998,12.912214741210938,10.750162,12.838364741210938L17.653019999999998,5.015119341210937Q18.54873,3.9999847412109375,19.902540000000002,3.9999847412109375L32.5,3.9999847412109375Q32.5985,3.9999847412109375,32.6951,4.0191997412109375Q32.7917,4.0384147412109375,32.8827,4.076105741210937Q32.9737,4.113796741210938,33.0556,4.168514741210937Q33.1375,4.2232337412109375,33.2071,4.292877741210938Q33.276700000000005,4.362521741210937,33.3315,4.444414741210937Q33.3862,4.526306741210938,33.4239,4.617301741210937Q33.461600000000004,4.708295741210938,33.4808,4.804894741210937Q33.5,4.901493341210937,33.5,4.9999847412109375Q33.5,5.098476141210938,33.4808,5.195074741210938Q33.461600000000004,5.291673741210937,33.4239,5.382667741210938Q33.3862,5.473662741210937,33.3315,5.555554741210938Q33.276700000000005,5.637447741210938,33.2071,5.707091741210937Q33.1375,5.7767357412109375,33.0556,5.831454741210938Q32.9737,5.886172741210937,32.8827,5.923863741210938Q32.7917,5.9615547412109375,32.6951,5.9807697412109375Q32.5985,5.9999847412109375,32.5,5.9999847412109375ZM33.5,4.9999847412109375Q33.5,5.098476141210938,33.4808,5.195074741210938Q33.461600000000004,5.291673741210937,33.4239,5.382667741210938Q33.3862,5.473662741210937,33.3315,5.555554741210938Q33.276700000000005,5.637447741210938,33.2071,5.707091741210937Q33.1375,5.7767357412109375,33.0556,5.831454741210938Q32.9737,5.886172741210937,32.8827,5.923863741210938Q32.7917,5.9615547412109375,32.6951,5.9807697412109375Q32.5985,5.9999847412109375,32.5,5.9999847412109375Q32.4015,5.9999847412109375,32.3049,5.9807697412109375Q32.2083,5.9615547412109375,32.1173,5.923863741210938Q32.0263,5.886172741210937,31.9444,5.831454741210938Q31.8625,5.7767357412109375,31.7929,5.707091741210937Q31.7232,5.637447741210938,31.6685,5.555554741210938Q31.6138,5.473662741210937,31.5761,5.382667741210938Q31.5384,5.291673741210937,31.5192,5.195074741210938Q31.5,5.098476141210938,31.5,4.9999847412109375Q31.5,4.901493341210937,31.5192,4.804894741210937Q31.5384,4.708295741210938,31.5761,4.617301741210937Q31.6138,4.526306741210938,31.6685,4.444414741210937Q31.7232,4.362521741210937,31.7929,4.292877741210938Q31.8625,4.2232337412109375,31.9444,4.168514741210937Q32.0263,4.113796741210938,32.1173,4.076105741210937Q32.2083,4.0384147412109375,32.3049,4.0191997412109375Q32.4015,3.9999847412109375,32.5,3.9999847412109375Q32.5985,3.9999847412109375,32.6951,4.0191997412109375Q32.7917,4.0384147412109375,32.8827,4.076105741210937Q32.9737,4.113796741210938,33.0556,4.168514741210937Q33.1375,4.2232337412109375,33.2071,4.292877741210938Q33.276700000000005,4.362521741210937,33.3315,4.444414741210937Q33.3862,4.526306741210938,33.4239,4.617301741210937Q33.461600000000004,4.708295741210938,33.4808,4.804894741210937Q33.5,4.901493341210937,33.5,4.9999847412109375ZM12.5,13.499984741210938Q12.5,13.598474741210937,12.480785000000001,13.695074741210938Q12.46157,13.791674741210937,12.423879,13.882664741210938Q12.386188,13.973664741210937,12.33147,14.055554741210937Q12.276751,14.137444741210938,12.207107,14.207094741210938Q12.137463,14.276734741210937,12.05557,14.331454741210937Q11.973678,14.386174741210937,11.882683,14.423864741210938Q11.791689,14.461554741210938,11.69509,14.480764741210937Q11.5984914,14.499984741210938,11.5,14.499984741210938Q11.4015086,14.499984741210938,11.30491,14.480764741210937Q11.208311,14.461554741210938,11.117317,14.423864741210938Q11.026322,14.386174741210937,10.94443,14.331454741210937Q10.862537,14.276734741210937,10.792893,14.207094741210938Q10.723249,14.137444741210938,10.66853,14.055554741210937Q10.613812,13.973664741210937,10.576121,13.882664741210938Q10.53843,13.791674741210937,10.519214999999999,13.695074741210938Q10.5,13.598474741210937,10.5,13.499984741210938Q10.5,13.401494741210938,10.519214999999999,13.304894741210937Q10.53843,13.208294741210938,10.576121,13.117304741210937Q10.613812,13.026304741210938,10.66853,12.944414741210938Q10.723249,12.862524741210937,10.792893,12.792874741210937Q10.862537,12.723234741210938,10.94443,12.668514741210938Q11.026322,12.613794741210938,11.117317,12.576104741210937Q11.208311,12.538414741210937,11.30491,12.519194741210939Q11.4015086,12.499984741210938,11.5,12.499984741210938Q11.5984914,12.499984741210938,11.69509,12.519194741210939Q11.791689,12.538414741210937,11.882683,12.576104741210937Q11.973678,12.613794741210938,12.05557,12.668514741210938Q12.137463,12.723234741210938,12.207107,12.792874741210937Q12.276751,12.862524741210937,12.33147,12.944414741210938Q12.386188,13.026304741210938,12.423879,13.117304741210937Q12.46157,13.208294741210938,12.480785000000001,13.304894741210937Q12.5,13.401494741210938,12.5,13.499984741210938Z" fill="#222222" fill-opacity="1"/></g><g><path d="M19.811671752929687,30.166641235351562Q18.684211752929688,30.166641235351562,17.67940175292969,29.466941235351563Q16.77834975292969,28.839591235351563,16.230758752929688,27.832411235351564Q15.666671752929688,26.794901235351563,15.666672752929687,25.695911235351563Q15.666675752929688,24.44043123535156,16.406799752929686,23.46812123535156Q17.532114752929687,21.989641235351563,18.89064175292969,18.77714823535156Q18.929001752929686,18.686434235351562,18.984321752929688,18.604948235351564Q19.039641752929686,18.523462235351563,19.109801752929688,18.454334235351563Q19.17995175292969,18.385206235351564,19.262251752929686,18.331093235351563Q19.344541752929686,18.276980235351562,19.435811752929688,18.239962235351562Q19.52708175292969,18.202944235351563,19.623821752929686,18.18444223535156Q19.720561752929687,18.165941235351564,19.81905175292969,18.166668235351562Q19.917541752929687,18.167395235351563,20.013991752929687,18.187323235351563Q20.110451752929688,18.207250235351562,20.201161752929686,18.24561123535156Q20.452901752929687,18.352068235351563,20.61549175292969,18.571769235351564Q21.43279175292969,19.676149235351563,22.446411752929688,21.346221235351564Q23.662931752929687,23.350611235351565,24.101011752929686,24.50159123535156Q24.476831752929687,25.489151235351564,24.249581752929686,26.563861235351563Q24.04455175292969,27.533541235351564,23.39440175292969,28.363281235351565Q22.756661752929688,29.177141235351563,21.849381752929688,29.65394123535156Q20.873811752929686,30.166641235351562,19.811671752929687,30.166641235351562L19.811671752929687,30.166641235351562ZM19.811671752929687,28.166641235351562Q21.007641752929686,28.166641235351562,21.820121752929687,27.129731235351564Q22.588201752929688,26.149481235351562,22.231821752929687,25.21302123535156Q21.858601752929687,24.232431235351562,20.736671752929688,22.38391123535156Q19.77062175292969,20.792211235351562,19.00785175292969,19.76151323535156L19.811671752929687,19.166641235351562L20.732701752929685,19.556133235351563Q19.276091752929688,23.00056123535156,17.99820175292969,24.679491235351563Q17.29517375292969,25.603081235351564,17.987851752929686,26.877101235351564Q18.309451752929686,27.468621235351563,18.822251752929688,27.82568123535156Q19.31192175292969,28.166641235351562,19.811671752929687,28.166641235351562L19.811671752929687,28.166641235351562Z" fill="#222222" fill-opacity="1"/></g><g><path d="M7.292893,8.126214741210937L13.12623,2.2928777412109373Q13.19587,2.2232337412109375,13.27776,2.1685147412109376Q13.35965,2.1137967412109377,13.45065,2.0761057412109376Q13.541640000000001,2.0384147412109375,13.63824,2.0191997412109375Q13.73484,1.9999847412109375,13.83333,1.9999847412109375Q13.93182,1.9999847412109375,14.02842,2.0191997412109375Q14.12502,2.0384147412109375,14.21602,2.0761057412109376Q14.30701,2.1137967412109377,14.3889,2.1685147412109376Q14.4708,2.2232337412109375,14.54044,2.2928777412109373Q14.61008,2.3625217412109376,14.6648,2.4444147412109376Q14.71952,2.5263067412109375,14.75721,2.6173017412109374Q14.7949,2.7082957412109376,14.814119999999999,2.8048947412109375Q14.83333,2.9014933412109376,14.83333,2.9999847412109375Q14.83333,3.0984761412109374,14.814119999999999,3.1950747412109375Q14.7949,3.2916737412109374,14.75721,3.3826677412109376Q14.71952,3.4736627412109375,14.6648,3.5555547412109374Q14.61008,3.6374477412109374,14.54044,3.7070917412109377L8.707107,9.540424741210938Q8.637463,9.610064741210937,8.55557,9.664784741210937Q8.473678,9.719504741210937,8.382683,9.757194741210938Q8.291689,9.794884741210938,8.19509,9.814104741210937Q8.0984914,9.833314741210938,8,9.833314741210938Q7.9015086,9.833314741210938,7.80491,9.814104741210937Q7.708311,9.794884741210938,7.617317,9.757194741210938Q7.526322,9.719504741210937,7.44443,9.664784741210937Q7.362537,9.610064741210937,7.292893,9.540424741210938Q7.223249,9.470784741210938,7.16853,9.388884741210937Q7.113812,9.306994741210938,7.076121,9.216004741210938Q7.03843,9.125004741210937,7.019215,9.028404741210938Q7,8.931804741210938,7,8.833314741210938Q7,8.734824741210938,7.019215,8.638224741210937Q7.03843,8.541624741210939,7.076121,8.450634741210937Q7.113812,8.359634741210938,7.16853,8.277744741210938Q7.223249,8.195854741210937,7.292893,8.126214741210937ZM9,8.833314741210938Q9,8.931804741210938,8.980785000000001,9.028404741210938Q8.96157,9.125004741210937,8.923879,9.216004741210938Q8.886188,9.306994741210938,8.83147,9.388884741210937Q8.776751,9.470784741210938,8.707107,9.540424741210938Q8.637463,9.610064741210937,8.55557,9.664784741210937Q8.473678,9.719504741210937,8.382683,9.757194741210938Q8.291689,9.794884741210938,8.19509,9.814104741210937Q8.0984914,9.833314741210938,8,9.833314741210938Q7.9015086,9.833314741210938,7.80491,9.814104741210937Q7.708311,9.794884741210938,7.617317,9.757194741210938Q7.526322,9.719504741210937,7.44443,9.664784741210937Q7.362537,9.610064741210937,7.292893,9.540424741210938Q7.223249,9.470774741210938,7.16853,9.388884741210937Q7.113812,9.306994741210938,7.076121,9.216004741210938Q7.03843,9.125004741210937,7.019215,9.028404741210938Q7,8.931804741210938,7,8.833314741210938Q7,8.734824741210938,7.019215,8.638224741210937Q7.03843,8.541624741210939,7.076121,8.450634741210937Q7.113812,8.359634741210938,7.16853,8.277744741210938Q7.223249,8.195854741210937,7.292893,8.126214741210937Q7.362537,8.056564741210938,7.44443,8.001844741210938Q7.526322,7.947124741210938,7.617317,7.909434741210937Q7.708311,7.871744741210938,7.80491,7.852534741210937Q7.9015086,7.833314741210938,8,7.833314741210938Q8.0984914,7.833314741210938,8.19509,7.852534741210937Q8.291689,7.871744741210938,8.382683,7.909434741210937Q8.473678,7.947124741210938,8.55557,8.001844741210938Q8.637463,8.056564741210938,8.707107,8.126214741210937Q8.776751,8.195854741210937,8.83147,8.277744741210938Q8.886188,8.359634741210938,8.923879,8.450634741210937Q8.96157,8.541624741210939,8.980785000000001,8.638224741210937Q9,8.734824741210938,9,8.833314741210938ZM14.83333,2.9999847412109375Q14.83333,3.0984761412109374,14.814119999999999,3.1950747412109375Q14.7949,3.2916737412109374,14.75721,3.3826677412109376Q14.71952,3.4736627412109375,14.6648,3.5555547412109374Q14.61008,3.6374477412109374,14.54044,3.7070917412109377Q14.470790000000001,3.7767357412109375,14.3889,3.8314547412109374Q14.30701,3.8861727412109373,14.21602,3.9238637412109374Q14.12502,3.9615547412109375,14.02842,3.9807697412109375Q13.93182,3.9999847412109375,13.83333,3.9999847412109375Q13.73484,3.9999847412109375,13.63824,3.9807697412109375Q13.541640000000001,3.9615547412109375,13.45065,3.9238637412109374Q13.35965,3.8861727412109373,13.27776,3.8314547412109374Q13.19587,3.7767357412109375,13.12623,3.7070917412109377Q13.05658,3.6374477412109374,13.00186,3.5555547412109374Q12.947140000000001,3.4736627412109375,12.90945,3.3826677412109376Q12.87176,3.2916737412109374,12.85255,3.1950747412109375Q12.83333,3.0984761412109374,12.83333,2.9999847412109375Q12.83333,2.9014933412109376,12.85255,2.8048947412109375Q12.87176,2.7082957412109376,12.90945,2.6173017412109374Q12.947140000000001,2.5263067412109375,13.00186,2.4444147412109376Q13.05658,2.3625217412109376,13.12623,2.2928777412109373Q13.19587,2.2232337412109375,13.27776,2.1685147412109376Q13.35965,2.1137967412109377,13.45065,2.0761057412109376Q13.541640000000001,2.0384147412109375,13.63824,2.0191997412109375Q13.73484,1.9999847412109375,13.83333,1.9999847412109375Q13.93182,1.9999847412109375,14.02842,2.0191997412109375Q14.12502,2.0384147412109375,14.21602,2.0761057412109376Q14.30701,2.1137967412109377,14.3889,2.1685147412109376Q14.4708,2.2232337412109375,14.54044,2.2928777412109373Q14.61008,2.3625217412109376,14.6648,2.4444147412109376Q14.71952,2.5263067412109375,14.75721,2.6173017412109374Q14.7949,2.7082957412109376,14.814119999999999,2.8048947412109375Q14.83333,2.9014933412109376,14.83333,2.9999847412109375Z" fill="#222222" fill-opacity="1"/></g></g></svg>