<svg xmlns="http://www.w3.org/2000/svg" xmlns:xlink="http://www.w3.org/1999/xlink" fill="none" version="1.1" width="40" height="40" viewBox="0 0 40 40"><defs><clipPath id="master_svg0_28_094"><rect x="0" y="0" width="40" height="40" rx="0"/></clipPath></defs><g clip-path="url(#master_svg0_28_094)"><g><path d="M7,34Q7,34.0985,7.019215,34.1951Q7.03843,34.2917,7.076121,34.3827Q7.113812,34.4737,7.16853,34.5556Q7.223249,34.6375,7.292893,34.7071Q7.362537,34.776700000000005,7.44443,34.8315Q7.526322,34.8862,7.617317,34.9239Q7.708311,34.961600000000004,7.80491,34.9808Q7.9015086,35,8,35L34,35Q34.0985,35,34.1951,34.9808Q34.2917,34.961600000000004,34.3827,34.9239Q34.4737,34.8862,34.5556,34.8315Q34.6375,34.776700000000005,34.7071,34.7071Q34.776700000000005,34.6375,34.8315,34.5556Q34.8862,34.4737,34.9239,34.3827Q34.961600000000004,34.2917,34.9808,34.1951Q35,34.0985,35,34L35,7Q35,6.9015086,34.9808,6.80491Q34.961600000000004,6.708311,34.9239,6.617317Q34.8862,6.526322,34.8315,6.44443Q34.776700000000005,6.362537,34.7071,6.292893Q34.6375,6.223249,34.5556,6.16853Q34.4737,6.113812,34.3827,6.076121Q34.2917,6.03843,34.1951,6.019215Q34.0985,6,34,6L31.8333,6Q31.7258,6,31.6208,6.022848Q31.5157,6.045697,31.418,6.090349Q31.3202,6.135001,31.2341,6.199417Q31.148,6.263833,31.0776,6.345069L24.8767,13.5L12.33333,13.5Q12.12951,13.5,11.94195,13.57977Q11.75439,13.65954,11.61301,13.80636L7.27968,18.3064Q7.145104,18.4461,7.072552,18.625999999999998Q7,18.805999999999997,7,19L7,34ZM9,33L33,33L33,8L32.29,8L26.089,15.15493Q26.0186,15.23617,25.9326,15.30058Q25.8465,15.365,25.7487,15.40965Q25.6509,15.4543,25.5459,15.47715Q25.4408,15.5,25.3333,15.5L12.75864,15.5L9,19.4032L9,33Z" fill-rule="evenodd" fill="#222222" fill-opacity="1"/></g><g><path d="M20.5519,8L33,8Q33.0985,8,33.1951,7.980785Q33.2917,7.96157,33.3827,7.923879Q33.4737,7.886188,33.5556,7.83147Q33.6375,7.776751,33.7071,7.707107Q33.776700000000005,7.637463,33.8315,7.55557Q33.8862,7.473678,33.9239,7.382683Q33.961600000000004,7.291689,33.9808,7.19509Q34,7.0984914,34,7Q34,6.9015086,33.9808,6.80491Q33.961600000000004,6.708311,33.9239,6.617317Q33.8862,6.526322,33.8315,6.44443Q33.776700000000005,6.362537,33.7071,6.292893Q33.6375,6.223249,33.5556,6.16853Q33.4737,6.113812,33.3827,6.076121Q33.2917,6.03843,33.1951,6.019215Q33.0985,6,33,6L20.14286,6Q19.94624,6,19.76426,6.074436Q19.58229,6.148873,19.44203,6.286664L11.299178,14.286660000000001Q11.155646,14.427679999999999,11.077823,14.61323Q11,14.79879,11,15Q11,15.02146,11.000921,15.0429Q11.008879,15.22822,11.082772,15.39836Q11.156666,15.5685,11.286664,15.70082Q11.427678,15.84435,11.613233,15.92218Q11.798787,16,12,16Q12.0214608,16,12.0429026,15.99908Q12.228225,15.99112,12.398364,15.91723Q12.568503,15.84333,12.700822,15.71334L12.701384000000001,15.71278L20.5519,8Z" fill-rule="evenodd" fill="#222222" fill-opacity="1"/></g><g><path d="M19.54692,29.2991Q20.38575,30,21.35874,30Q22.25926,30,23.071550000000002,29.48776Q23.79428,29.032,24.292749999999998,28.268610000000002Q25.389319999999998,26.58923,24.82801,24.81927Q24.49936,23.78311,23.58601,21.97725Q22.82458,20.471785,22.2099,19.475083Q22.119880000000002,19.329117,21.98637,19.221484Q21.85286,19.113851,21.69112,19.056852Q21.50351,18.99074,21.30489,19.001451Q21.10627,19.012164,20.92686,19.098071Q20.74746,19.183978,20.61458,19.332000999999998Q20.48171,19.480024,20.4156,19.667628Q19.397714,22.556,18.557434,23.8808Q18.000002,24.75957,18,25.87634Q18,26.85256,18.421104,27.782Q18.841364,28.70957,19.54692,29.2991ZM22.61813,27.175150000000002Q22.07953,28,21.35874,28Q21.11134,28,20.82931,27.76435Q20.47448,27.46786,20.24284,26.95661Q19.714499,25.79048,20.24631,24.95211Q20.86279,23.98016,21.53319,22.35709Q21.66451,22.60947,21.80129,22.87992Q22.64177,24.54168,22.9216,25.42393Q23.19621,26.289830000000002,22.61813,27.175150000000002Z" fill-rule="evenodd" fill="#D91B1B" fill-opacity="1"/></g><g><path d="M12.70673,9.707482L12.70711,9.707107Q12.847760000000001,9.566455,12.92388,9.382683Q13,9.198912,13,9Q13,8.801088,12.92388,8.617317Q12.847760000000001,8.433545,12.70711,8.292893L12.70653,8.292321Q12.70253,8.28832,12.69847,8.284365L12.6979,8.2838Q12.557839999999999,8.147326,12.3767,8.073663Q12.19555,8,12,8Q11.80109,8,11.61732,8.07612Q11.43355,8.152241,11.29289,8.292893L11.29252,8.293268L6.293268,13.29252L6.292893,13.29289Q6.152241,13.43355,6.076121,13.61732Q6,13.80109,6,14Q6,14.19891,6.0761199999999995,14.38268Q6.152241,14.56645,6.292893,14.70711Q6.433545,14.847760000000001,6.617317,14.92388Q6.801088,15,7,15Q7.198912,15,7.382683,14.92388Q7.566455,14.847760000000001,7.707107,14.70711L7.707482,14.70673L12.70673,9.707482Z" fill-rule="evenodd" fill="#D91B1B" fill-opacity="1"/></g></g></svg>