<svg xmlns="http://www.w3.org/2000/svg" xmlns:xlink="http://www.w3.org/1999/xlink" fill="none" version="1.1" width="40" height="40" viewBox="0 0 40 40"><defs><clipPath id="master_svg0_28_157"><rect x="0" y="0" width="40" height="40" rx="0"/></clipPath></defs><g clip-path="url(#master_svg0_28_157)"><g><path d="M34,30.4286Q34.0985,30.4286,34.1951,30.4094Q34.2917,30.3901,34.3827,30.3525Q34.4737,30.3148,34.5556,30.26Q34.6375,30.2053,34.7071,30.1357Q34.776700000000005,30.066,34.8315,29.9841Q34.8862,29.9022,34.9239,29.8113Q34.961600000000004,29.7203,34.9808,29.6237Q35,29.5271,35,29.4286L35,8Q35,7.9015086,34.9808,7.80491Q34.961600000000004,7.708311,34.9239,7.617317Q34.8862,7.526322,34.8315,7.44443Q34.776700000000005,7.362537,34.7071,7.292893Q34.6375,7.223249,34.5556,7.16853Q34.4737,7.113812,34.3827,7.076121Q34.2917,7.03843,34.1951,7.019215Q34.0985,7,34,7L6,7Q5.9015086,7,5.80491,7.019215Q5.708311,7.03843,5.617317,7.076121Q5.526322,7.113812,5.44443,7.16853Q5.362537,7.223249,5.292893,7.292893Q5.223249,7.362537,5.16853,7.44443Q5.113812,7.526322,5.076121,7.617317Q5.03843,7.708311,5.019215,7.80491Q5,7.9015086,5,8L5,29.4286Q5,29.5271,5.019215,29.6237Q5.03843,29.7203,5.076121,29.8113Q5.113812,29.9022,5.16853,29.9841Q5.223249,30.066,5.292893,30.1357Q5.362537,30.2053,5.44443,30.26Q5.526322,30.3148,5.617317,30.3524Q5.708311,30.3901,5.80491,30.4094Q5.9015086,30.4286,6,30.4286L9.9,30.4286L9.9,33Q9.9,33.0985,9.91921,33.1951Q9.93843,33.2917,9.97612,33.3827Q10.01381,33.4737,10.068529999999999,33.5556Q10.123249999999999,33.6375,10.19289,33.7071Q10.262540000000001,33.776700000000005,10.34443,33.8315Q10.42632,33.8862,10.51732,33.9239Q10.60831,33.961600000000004,10.70491,33.9808Q10.80151,34,10.9,34Q11.140360000000001,34,11.35447,33.8908L18.1404,30.4286L34,30.4286ZM33,28.4286L17.9,28.4286Q17.659599999999998,28.4286,17.4455,28.5378L11.9,31.3672L11.9,29.4286Q11.9,29.3301,11.88078,29.2335Q11.86157,29.1369,11.823879999999999,29.0459Q11.786190000000001,28.9549,11.73147,28.873Q11.67675,28.7911,11.607109999999999,28.7215Q11.53746,28.6518,11.45557,28.5971Q11.37368,28.5424,11.28268,28.5047Q11.191690000000001,28.467,11.095089999999999,28.4478Q10.99849,28.4286,10.9,28.4286L7,28.4286L7,9L33,9L33,28.4286Z" fill-rule="evenodd" fill="#222222" fill-opacity="1"/></g><g><path d="M24,14L24,15Q24,15.09849,24.019215,15.19509Q24.038429999999998,15.29169,24.076121,15.38268Q24.113812,15.47368,24.16853,15.55557Q24.223249,15.63746,24.292893,15.70711Q24.362537,15.77675,24.44443,15.83147Q24.526322,15.88619,24.617317,15.92388Q24.708311,15.96157,24.80491,15.98079Q24.9015086,16,25,16Q25.0984914,16,25.19509,15.98079Q25.291689,15.96157,25.382683,15.92388Q25.473678,15.88619,25.55557,15.83147Q25.637463,15.77675,25.707107,15.70711Q25.776751,15.63746,25.83147,15.55557Q25.886188,15.47368,25.923879,15.38268Q25.961570000000002,15.29169,25.980785,15.19509Q26,15.09849,26,15L26,14Q26,13.9015086,25.980785,13.80491Q25.961570000000002,13.708311,25.923879,13.617317Q25.886188,13.526322,25.83147,13.44443Q25.776751,13.362537,25.707107,13.292893Q25.637463,13.223249,25.55557,13.16853Q25.473678,13.113812,25.382683,13.076121Q25.291689,13.03843,25.19509,13.019214999999999Q25.0984914,13,25,13Q24.9015086,13,24.80491,13.019214999999999Q24.708311,13.03843,24.617317,13.076121Q24.526322,13.113812,24.44443,13.16853Q24.362537,13.223249,24.292893,13.292893Q24.223249,13.362537,24.16853,13.44443Q24.113812,13.526322,24.076121,13.617317Q24.038429999999998,13.708311,24.019215,13.80491Q24,13.9015086,24,14Z" fill-rule="evenodd" fill="#D91B1B" fill-opacity="1"/></g><g><path d="M14,14L14,15Q14,15.09849,14.019214999999999,15.19509Q14.03843,15.29169,14.076121,15.38268Q14.113812,15.47368,14.16853,15.55557Q14.223249,15.63746,14.292893,15.70711Q14.362537,15.77675,14.44443,15.83147Q14.526322,15.88619,14.617317,15.92388Q14.708311,15.96157,14.80491,15.98079Q14.9015086,16,15,16Q15.0984914,16,15.19509,15.98079Q15.291689,15.96157,15.382683,15.92388Q15.473678,15.88619,15.55557,15.83147Q15.637463,15.77675,15.707107,15.70711Q15.776751,15.63746,15.83147,15.55557Q15.886188,15.47368,15.923879,15.38268Q15.96157,15.29169,15.980785000000001,15.19509Q16,15.09849,16,15L16,14Q16,13.9015086,15.980785000000001,13.80491Q15.96157,13.708311,15.923879,13.617317Q15.886188,13.526322,15.83147,13.44443Q15.776751,13.362537,15.707107,13.292893Q15.637463,13.223249,15.55557,13.16853Q15.473678,13.113812,15.382683,13.076121Q15.291689,13.03843,15.19509,13.019214999999999Q15.0984914,13,15,13Q14.9015086,13,14.80491,13.019214999999999Q14.708311,13.03843,14.617317,13.076121Q14.526322,13.113812,14.44443,13.16853Q14.362537,13.223249,14.292893,13.292893Q14.223249,13.362537,14.16853,13.44443Q14.113812,13.526322,14.076121,13.617317Q14.03843,13.708311,14.019214999999999,13.80491Q14,13.9015086,14,14Z" fill-rule="evenodd" fill="#D91B1B" fill-opacity="1"/></g><g><path d="M20,22Q16.94319,22,15.813733,20.418762Q15.744345,20.321618,15.654038,20.243538Q15.563731,20.165459,15.457582,20.110832Q15.351432,20.056206,15.235407,20.028103Q15.119381,20,15.0000001502,20Q14.9793858,20,14.9587891,20.00085Q14.661159,20.013126,14.418762,20.186267Q14.321618,20.255655,14.243538000000001,20.345962Q14.165459,20.436269,14.110832,20.542418Q14.056206,20.648568,14.028103,20.764594Q14,20.880619,14,21Q14,21.0206141,14.00085,21.0412109Q14.013126,21.338841,14.186267,21.581238Q15.913954,24,20,24Q24.0855,24,25.813299999999998,21.581883L25.8137,21.581238Q25.904600000000002,21.454039,25.9523,21.30518Q26,21.156322,26,21.00000621034Q26,20.9691464,25.9981,20.9383515Q25.9912,20.826997,25.96,20.719896Q25.9287,20.612795,25.8746,20.515215Q25.8205,20.417635,25.746299999999998,20.334374Q25.672,20.251113,25.581200000000003,20.186266Q25.454,20.095409,25.3052,20.047705Q25.1563,20,25,20L24.99243,20.000029Q24.91348,20.000626,24.8356,20.013606Q24.63939,20.046307,24.47064,20.151604Q24.30188,20.2569,24.18627,20.418762Q23.05681,22,20,22Z" fill-rule="evenodd" fill="#D91B1B" fill-opacity="1"/></g></g></svg>