<svg xmlns="http://www.w3.org/2000/svg" xmlns:xlink="http://www.w3.org/1999/xlink" fill="none" version="1.1" width="40" height="40" viewBox="0 0 40 40"><defs><clipPath id="master_svg0_34_0"><rect x="0" y="0" width="40" height="40" rx="0"/></clipPath></defs><g clip-path="url(#master_svg0_34_0)"><g><path d="M6,34.283203125L6,8.283203125Q6,7.040562125,6.87868,6.161883125Q7.757359,5.283203125,9,5.283203125L31,5.283203125Q32.242599999999996,5.283203125,33.121300000000005,6.161883125Q34,7.040563125,34,8.283203125L34,34.283203125Q34,35.525803124999996,33.121300000000005,36.404503125000005Q32.242599999999996,37.283203125,31,37.283203125L9,37.283203125Q7.757358,37.283203125,6.87868,36.404503125000005Q6,35.525803124999996,6,34.283203125ZM8,34.283203125Q8,34.697403125,8.29289,34.990303125Q8.58579,35.283203125,9,35.283203125L31,35.283203125Q31.4142,35.283203125,31.7071,34.990303125Q32,34.697403125,32,34.283203125L32,8.283203125Q32,7.868993125,31.7071,7.576093125Q31.4142,7.283203125,31,7.283203125L9,7.283203125Q8.58579,7.283203125,8.29289,7.576093125Q8,7.868993125,8,8.283203125L8,34.283203125Z" fill="#222222" fill-opacity="1"/></g><g><path d="M13,7.6165313720703125L13,2.6165313720703125Q13,2.5180399720703126,13.019214999999999,2.4214413720703125Q13.03843,2.3248423720703126,13.076121,2.2338483720703124Q13.113812,2.1428533720703125,13.16853,2.0609613720703126Q13.223249,1.9790683720703126,13.292893,1.9094243720703123Q13.362537,1.8397803720703125,13.44443,1.7850613720703126Q13.526322,1.7303433720703125,13.617317,1.6926523720703126Q13.708311,1.6549613720703125,13.80491,1.6357463720703125Q13.9015086,1.6165313720703125,14,1.6165313720703125Q14.0984914,1.6165313720703125,14.19509,1.6357463720703125Q14.291689,1.6549613720703125,14.382683,1.6926523720703126Q14.473678,1.7303433720703125,14.55557,1.7850613720703126Q14.637463,1.8397803720703125,14.707107,1.9094243720703123Q14.776751,1.9790683720703126,14.83147,2.0609613720703126Q14.886188,2.1428533720703125,14.923879,2.2338483720703124Q14.96157,2.3248423720703126,14.980785000000001,2.4214413720703125Q15,2.5180399720703126,15,2.6165313720703125L15,7.6165313720703125Q15,7.7150213720703125,14.980785000000001,7.811621372070313Q14.96157,7.9082213720703125,14.923879,7.999211372070312Q14.886188,8.090211372070312,14.83147,8.172101372070312Q14.776751,8.253991372070313,14.707107,8.323641372070313Q14.637463,8.393281372070312,14.55557,8.448001372070312Q14.473678,8.502721372070312,14.382683,8.540411372070313Q14.291689,8.578101372070313,14.19509,8.597311372070312Q14.0984914,8.616531372070312,14,8.616531372070312Q13.9015086,8.616531372070312,13.80491,8.597311372070312Q13.708311,8.578101372070313,13.617317,8.540411372070313Q13.526322,8.502721372070312,13.44443,8.448001372070312Q13.362537,8.393281372070312,13.292893,8.323641372070313Q13.223249,8.253991372070313,13.16853,8.172101372070312Q13.113812,8.090211372070312,13.076121,7.999211372070312Q13.03843,7.9082213720703125,13.019214999999999,7.811621372070313Q13,7.7150213720703125,13,7.6165313720703125ZM15,7.6165313720703125Q15,7.7150213720703125,14.980785000000001,7.811621372070313Q14.96157,7.9082213720703125,14.923879,7.999211372070312Q14.886188,8.090211372070312,14.83147,8.172101372070312Q14.776751,8.253991372070313,14.707107,8.323641372070313Q14.637463,8.393281372070312,14.55557,8.448001372070312Q14.473678,8.502721372070312,14.382683,8.540411372070313Q14.291689,8.578101372070313,14.19509,8.597311372070312Q14.0984914,8.616531372070312,14,8.616531372070312Q13.9015086,8.616531372070312,13.80491,8.597311372070312Q13.708311,8.578101372070313,13.617317,8.540411372070313Q13.526322,8.502721372070312,13.44443,8.448001372070312Q13.362537,8.393281372070312,13.292893,8.323641372070313Q13.223249,8.253991372070313,13.16853,8.172101372070312Q13.113812,8.090211372070312,13.076121,7.999211372070312Q13.03843,7.9082213720703125,13.019214999999999,7.811621372070313Q13,7.7150213720703125,13,7.6165313720703125Q13,7.5180413720703125,13.019214999999999,7.421441372070312Q13.03843,7.3248413720703125,13.076121,7.233851372070313Q13.113812,7.142851372070313,13.16853,7.060961372070312Q13.223249,6.979071372070313,13.292893,6.909421372070312Q13.362537,6.839781372070313,13.44443,6.785061372070312Q13.526322,6.7303413720703125,13.617317,6.692651372070313Q13.708311,6.6549613720703125,13.80491,6.635741372070313Q13.9015086,6.6165313720703125,14,6.6165313720703125Q14.0984914,6.6165313720703125,14.19509,6.635741372070313Q14.291689,6.6549613720703125,14.382683,6.692651372070313Q14.473678,6.7303413720703125,14.55557,6.785061372070312Q14.637463,6.839781372070313,14.707107,6.909421372070312Q14.776751,6.979071372070313,14.83147,7.060961372070312Q14.886188,7.142851372070313,14.923879,7.233851372070313Q14.96157,7.3248413720703125,14.980785000000001,7.421441372070312Q15,7.5180413720703125,15,7.6165313720703125ZM15,2.6165313720703125Q15,2.7150227720703124,14.980785000000001,2.8116213720703125Q14.96157,2.9082203720703124,14.923879,2.9992143720703126Q14.886188,3.0902093720703125,14.83147,3.1721013720703124Q14.776751,3.2539943720703124,14.707107,3.3236383720703127Q14.637463,3.3932823720703125,14.55557,3.4480013720703124Q14.473678,3.5027193720703123,14.382683,3.5404103720703124Q14.291689,3.5781013720703125,14.19509,3.5973163720703125Q14.0984914,3.6165313720703125,14,3.6165313720703125Q13.9015086,3.6165313720703125,13.80491,3.5973163720703125Q13.708311,3.5781013720703125,13.617317,3.5404103720703124Q13.526322,3.5027193720703123,13.44443,3.4480013720703124Q13.362537,3.3932823720703125,13.292893,3.3236383720703127Q13.223249,3.2539943720703124,13.16853,3.1721013720703124Q13.113812,3.0902093720703125,13.076121,2.9992143720703126Q13.03843,2.9082203720703124,13.019214999999999,2.8116213720703125Q13,2.7150227720703124,13,2.6165313720703125Q13,2.5180399720703126,13.019214999999999,2.4214413720703125Q13.03843,2.3248423720703126,13.076121,2.2338483720703124Q13.113812,2.1428533720703125,13.16853,2.0609613720703126Q13.223249,1.9790683720703126,13.292893,1.9094243720703123Q13.362537,1.8397803720703125,13.44443,1.7850613720703126Q13.526322,1.7303433720703125,13.617317,1.6926523720703126Q13.708311,1.6549613720703125,13.80491,1.6357463720703125Q13.9015086,1.6165313720703125,14,1.6165313720703125Q14.0984914,1.6165313720703125,14.19509,1.6357463720703125Q14.291689,1.6549613720703125,14.382683,1.6926523720703126Q14.473678,1.7303433720703125,14.55557,1.7850613720703126Q14.637463,1.8397803720703125,14.707107,1.9094243720703123Q14.776751,1.9790683720703126,14.83147,2.0609613720703126Q14.886188,2.1428533720703125,14.923879,2.2338483720703124Q14.96157,2.3248423720703126,14.980785000000001,2.4214413720703125Q15,2.5180399720703126,15,2.6165313720703125Z" fill="#222222" fill-opacity="1"/></g><g><path d="M25,7.6165313720703125L25,2.6165313720703125Q25,2.5180399720703126,25.019215,2.4214413720703125Q25.038429999999998,2.3248423720703126,25.076121,2.2338483720703124Q25.113812,2.1428533720703125,25.16853,2.0609613720703126Q25.223249,1.9790683720703126,25.292893,1.9094243720703123Q25.362537,1.8397803720703125,25.44443,1.7850613720703126Q25.526322,1.7303433720703125,25.617317,1.6926523720703126Q25.708311,1.6549613720703125,25.80491,1.6357463720703125Q25.9015086,1.6165313720703125,26,1.6165313720703125Q26.0984914,1.6165313720703125,26.19509,1.6357463720703125Q26.291689,1.6549613720703125,26.382683,1.6926523720703126Q26.473678,1.7303433720703125,26.55557,1.7850613720703126Q26.637463,1.8397803720703125,26.707107,1.9094243720703123Q26.776751,1.9790683720703126,26.83147,2.0609613720703126Q26.886188,2.1428533720703125,26.923879,2.2338483720703124Q26.961570000000002,2.3248423720703126,26.980785,2.4214413720703125Q27,2.5180399720703126,27,2.6165313720703125L27,7.6165313720703125Q27,7.7150213720703125,26.980785,7.811621372070313Q26.961570000000002,7.9082213720703125,26.923879,7.999211372070312Q26.886188,8.090211372070312,26.83147,8.172101372070312Q26.776751,8.253991372070313,26.707107,8.323641372070313Q26.637463,8.393281372070312,26.55557,8.448001372070312Q26.473678,8.502721372070312,26.382683,8.540411372070313Q26.291689,8.578101372070313,26.19509,8.597311372070312Q26.0984914,8.616531372070312,26,8.616531372070312Q25.9015086,8.616531372070312,25.80491,8.597311372070312Q25.708311,8.578101372070313,25.617317,8.540411372070313Q25.526322,8.502721372070312,25.44443,8.448001372070312Q25.362537,8.393281372070312,25.292893,8.323641372070313Q25.223249,8.253991372070313,25.16853,8.172101372070312Q25.113812,8.090211372070312,25.076121,7.999211372070312Q25.038429999999998,7.9082213720703125,25.019215,7.811621372070313Q25,7.7150213720703125,25,7.6165313720703125ZM27,7.6165313720703125Q27,7.7150213720703125,26.980785,7.811621372070313Q26.961570000000002,7.9082213720703125,26.923879,7.999211372070312Q26.886188,8.090211372070312,26.83147,8.172101372070312Q26.776751,8.253991372070313,26.707107,8.323641372070313Q26.637463,8.393281372070312,26.55557,8.448001372070312Q26.473678,8.502721372070312,26.382683,8.540411372070313Q26.291689,8.578101372070313,26.19509,8.597311372070312Q26.0984914,8.616531372070312,26,8.616531372070312Q25.9015086,8.616531372070312,25.80491,8.597311372070312Q25.708311,8.578101372070313,25.617317,8.540411372070313Q25.526322,8.502721372070312,25.44443,8.448001372070312Q25.362537,8.393281372070312,25.292893,8.323641372070313Q25.223249,8.253991372070313,25.16853,8.172101372070312Q25.113812,8.090211372070312,25.076121,7.999211372070312Q25.038429999999998,7.9082213720703125,25.019215,7.811621372070313Q25,7.7150213720703125,25,7.6165313720703125Q25,7.5180413720703125,25.019215,7.421441372070312Q25.038429999999998,7.3248413720703125,25.076121,7.233851372070313Q25.113812,7.142851372070313,25.16853,7.060961372070312Q25.223249,6.979071372070313,25.292893,6.909421372070312Q25.362537,6.839781372070313,25.44443,6.785061372070312Q25.526322,6.7303413720703125,25.617317,6.692651372070313Q25.708311,6.6549613720703125,25.80491,6.635741372070313Q25.9015086,6.6165313720703125,26,6.6165313720703125Q26.0984914,6.6165313720703125,26.19509,6.635741372070313Q26.291689,6.6549613720703125,26.382683,6.692651372070313Q26.473678,6.7303413720703125,26.55557,6.785061372070312Q26.637463,6.839781372070313,26.707107,6.909421372070312Q26.776751,6.979071372070313,26.83147,7.060961372070312Q26.886188,7.142851372070313,26.923879,7.233851372070313Q26.961570000000002,7.3248413720703125,26.980785,7.421441372070312Q27,7.5180413720703125,27,7.6165313720703125ZM27,2.6165313720703125Q27,2.7150227720703124,26.980785,2.8116213720703125Q26.961570000000002,2.9082203720703124,26.923879,2.9992143720703126Q26.886188,3.0902093720703125,26.83147,3.1721013720703124Q26.776751,3.2539943720703124,26.707107,3.3236383720703127Q26.637463,3.3932823720703125,26.55557,3.4480013720703124Q26.473678,3.5027193720703123,26.382683,3.5404103720703124Q26.291689,3.5781013720703125,26.19509,3.5973163720703125Q26.0984914,3.6165313720703125,26,3.6165313720703125Q25.9015086,3.6165313720703125,25.80491,3.5973163720703125Q25.708311,3.5781013720703125,25.617317,3.5404103720703124Q25.526322,3.5027193720703123,25.44443,3.4480013720703124Q25.362537,3.3932823720703125,25.292893,3.3236383720703127Q25.223249,3.2539943720703124,25.16853,3.1721013720703124Q25.113812,3.0902093720703125,25.076121,2.9992143720703126Q25.038429999999998,2.9082203720703124,25.019215,2.8116213720703125Q25,2.7150227720703124,25,2.6165313720703125Q25,2.5180399720703126,25.019215,2.4214413720703125Q25.038429999999998,2.3248423720703126,25.076121,2.2338483720703124Q25.113812,2.1428533720703125,25.16853,2.0609613720703126Q25.223249,1.9790683720703126,25.292893,1.9094243720703123Q25.362537,1.8397803720703125,25.44443,1.7850613720703126Q25.526322,1.7303433720703125,25.617317,1.6926523720703126Q25.708311,1.6549613720703125,25.80491,1.6357463720703125Q25.9015086,1.6165313720703125,26,1.6165313720703125Q26.0984914,1.6165313720703125,26.19509,1.6357463720703125Q26.291689,1.6549613720703125,26.382683,1.6926523720703126Q26.473678,1.7303433720703125,26.55557,1.7850613720703126Q26.637463,1.8397803720703125,26.707107,1.9094243720703123Q26.776751,1.9790683720703126,26.83147,2.0609613720703126Q26.886188,2.1428533720703125,26.923879,2.2338483720703124Q26.961570000000002,2.3248423720703126,26.980785,2.4214413720703125Q27,2.5180399720703126,27,2.6165313720703125Z" fill="#222222" fill-opacity="1"/></g><g><path d="M25.666643505859376,16.116531372070312L12.333343505859375,16.116531372070312Q12.234852105859375,16.116531372070312,12.138253505859375,16.097316372070313Q12.041654505859375,16.078101372070314,11.950660505859375,16.040410372070312Q11.859665505859375,16.002719372070313,11.777773505859376,15.948001372070312Q11.695880505859375,15.893282372070313,11.626236505859374,15.823638372070313Q11.556592505859374,15.753994372070313,11.501873505859376,15.672101372070312Q11.447155505859374,15.590209372070312,11.409464505859376,15.499214372070313Q11.371773505859375,15.408220372070312,11.352558505859374,15.311621372070313Q11.333343505859375,15.215022772070313,11.333343505859375,15.116531372070312Q11.333343505859375,15.018039972070312,11.352558505859374,14.921441372070312Q11.371773505859375,14.824842372070313,11.409464505859376,14.733848372070312Q11.447155505859374,14.642853372070313,11.501873505859376,14.560961372070313Q11.556592505859374,14.479068372070312,11.626236505859374,14.409424372070312Q11.695880505859375,14.339780372070312,11.777773505859376,14.285061372070313Q11.859665505859375,14.230343372070312,11.950660505859375,14.192652372070313Q12.041654505859375,14.154961372070312,12.138253505859375,14.135746372070312Q12.234852105859375,14.116531372070312,12.333343505859375,14.116531372070312L25.666643505859376,14.116531372070312Q25.765143505859378,14.116531372070312,25.861743505859373,14.135746372070312Q25.958343505859375,14.154961372070312,26.049343505859376,14.192652372070313Q26.140343505859377,14.230343372070312,26.222243505859375,14.285061372070313Q26.304143505859376,14.339780372070312,26.373743505859373,14.409424372070312Q26.443443505859374,14.479068372070312,26.498143505859375,14.560961372070313Q26.552843505859375,14.642853372070313,26.590543505859372,14.733848372070312Q26.628243505859373,14.824842372070313,26.647443505859375,14.921441372070312Q26.666643505859376,15.018039972070312,26.666643505859376,15.116531372070312Q26.666643505859376,15.215022772070313,26.647443505859375,15.311621372070313Q26.628243505859373,15.408220372070312,26.590543505859372,15.499214372070313Q26.552843505859375,15.590209372070312,26.498143505859375,15.672101372070312Q26.443443505859374,15.753994372070313,26.373743505859373,15.823638372070313Q26.304143505859376,15.893282372070313,26.222243505859375,15.948001372070312Q26.140343505859377,16.002719372070313,26.049343505859376,16.040410372070312Q25.958343505859375,16.078101372070314,25.861743505859373,16.097316372070313Q25.765143505859378,16.116531372070312,25.666643505859376,16.116531372070312ZM26.666643505859376,15.116531372070312Q26.666643505859376,15.215022772070313,26.647443505859375,15.311621372070313Q26.628243505859373,15.408220372070312,26.590543505859372,15.499214372070313Q26.552843505859375,15.590209372070312,26.498143505859375,15.672101372070312Q26.443443505859374,15.753994372070313,26.373743505859373,15.823638372070313Q26.304143505859376,15.893282372070313,26.222243505859375,15.948001372070312Q26.140343505859377,16.002719372070313,26.049343505859376,16.040410372070312Q25.958343505859375,16.078101372070314,25.861743505859373,16.097316372070313Q25.765143505859378,16.116531372070312,25.666643505859376,16.116531372070312Q25.568143505859375,16.116531372070312,25.471543505859373,16.097316372070313Q25.374943505859378,16.078101372070314,25.283943505859376,16.040410372070312Q25.193043505859375,16.002719372070313,25.111143505859374,15.948001372070312Q25.029243505859377,15.893282372070313,24.959543505859376,15.823638372070313Q24.889943505859375,15.753994372070313,24.835243505859374,15.672101372070312Q24.780443505859374,15.590209372070312,24.742843505859376,15.499214372070313Q24.705143505859375,15.408220372070312,24.685843505859374,15.311621372070313Q24.666643505859376,15.215022772070313,24.666643505859376,15.116531372070312Q24.666643505859376,15.018039972070312,24.685843505859374,14.921441372070312Q24.705143505859375,14.824842372070313,24.742843505859376,14.733848372070312Q24.780443505859374,14.642853372070313,24.835243505859374,14.560961372070313Q24.889943505859375,14.479068372070312,24.959543505859376,14.409424372070312Q25.029243505859377,14.339780372070312,25.111143505859374,14.285061372070313Q25.193043505859375,14.230343372070312,25.283943505859376,14.192652372070313Q25.374943505859378,14.154961372070312,25.471543505859373,14.135746372070312Q25.568143505859375,14.116531372070312,25.666643505859376,14.116531372070312Q25.765143505859378,14.116531372070312,25.861743505859373,14.135746372070312Q25.958343505859375,14.154961372070312,26.049343505859376,14.192652372070313Q26.140343505859377,14.230343372070312,26.222243505859375,14.285061372070313Q26.304143505859376,14.339780372070312,26.373743505859373,14.409424372070312Q26.443443505859374,14.479068372070312,26.498143505859375,14.560961372070313Q26.552843505859375,14.642853372070313,26.590543505859372,14.733848372070312Q26.628243505859373,14.824842372070313,26.647443505859375,14.921441372070312Q26.666643505859376,15.018039972070312,26.666643505859376,15.116531372070312ZM13.333343505859375,15.116531372070312Q13.333343505859375,15.215022772070313,13.314128505859376,15.311621372070313Q13.294913505859375,15.408220372070312,13.257222505859374,15.499214372070313Q13.219531505859376,15.590209372070312,13.164813505859374,15.672101372070312Q13.110094505859376,15.753994372070313,13.040450505859376,15.823638372070313Q12.970806505859375,15.893282372070313,12.888913505859374,15.948001372070312Q12.807021505859375,16.002719372070313,12.716026505859375,16.040410372070312Q12.625032505859375,16.078101372070314,12.528433505859375,16.097316372070313Q12.431834905859375,16.116531372070312,12.333343505859375,16.116531372070312Q12.234852105859375,16.116531372070312,12.138253505859375,16.097316372070313Q12.041654505859375,16.078101372070314,11.950660505859375,16.040410372070312Q11.859665505859375,16.002719372070313,11.777773505859376,15.948001372070312Q11.695880505859375,15.893282372070313,11.626236505859374,15.823638372070313Q11.556592505859374,15.753994372070313,11.501873505859376,15.672101372070312Q11.447155505859374,15.590209372070312,11.409464505859376,15.499214372070313Q11.371773505859375,15.408220372070312,11.352558505859374,15.311621372070313Q11.333343505859375,15.215022772070313,11.333343505859375,15.116531372070312Q11.333343505859375,15.018039972070312,11.352558505859374,14.921441372070312Q11.371773505859375,14.824842372070313,11.409464505859376,14.733848372070312Q11.447155505859374,14.642853372070313,11.501873505859376,14.560961372070313Q11.556592505859374,14.479068372070312,11.626236505859374,14.409424372070312Q11.695880505859375,14.339780372070312,11.777773505859376,14.285061372070313Q11.859665505859375,14.230343372070312,11.950660505859375,14.192652372070313Q12.041654505859375,14.154961372070312,12.138253505859375,14.135746372070312Q12.234852105859375,14.116531372070312,12.333343505859375,14.116531372070312Q12.431834905859375,14.116531372070312,12.528433505859375,14.135746372070312Q12.625032505859375,14.154961372070312,12.716026505859375,14.192652372070313Q12.807021505859375,14.230343372070312,12.888913505859374,14.285061372070313Q12.970806505859375,14.339780372070312,13.040450505859376,14.409424372070312Q13.110094505859376,14.479068372070312,13.164813505859374,14.560961372070313Q13.219531505859376,14.642853372070313,13.257222505859374,14.733848372070312Q13.294913505859375,14.824842372070313,13.314128505859376,14.921441372070312Q13.333343505859375,15.018039972070312,13.333343505859375,15.116531372070312Z" fill="#222222" fill-opacity="1"/></g><g><path d="M22.333343505859375,22.783203125L12.333343505859375,22.783203125Q12.234852105859375,22.783203125,12.138253505859375,22.763988125Q12.041654505859375,22.744773125000002,11.950660505859375,22.707082125Q11.859665505859375,22.669391125,11.777773505859376,22.614673125Q11.695880505859375,22.559954125,11.626236505859374,22.490310125Q11.556592505859374,22.420666125,11.501873505859376,22.338773125Q11.447155505859374,22.256881125,11.409464505859376,22.165886125Q11.371773505859375,22.074892125,11.352558505859374,21.978293125Q11.333343505859375,21.881694525,11.333343505859375,21.783203125Q11.333343505859375,21.684711725,11.352558505859374,21.588113125Q11.371773505859375,21.491514125,11.409464505859376,21.400520125Q11.447155505859374,21.309525125,11.501873505859376,21.227633125Q11.556592505859374,21.145740125,11.626236505859374,21.076096125Q11.695880505859375,21.006452125,11.777773505859376,20.951733125Q11.859665505859375,20.897015125,11.950660505859375,20.859324125Q12.041654505859375,20.821633124999998,12.138253505859375,20.802418125Q12.234852105859375,20.783203125,12.333343505859375,20.783203125L22.333343505859375,20.783203125Q22.431843505859376,20.783203125,22.528443505859375,20.802418125Q22.625043505859374,20.821633124999998,22.716043505859375,20.859324125Q22.807043505859376,20.897015125,22.888943505859373,20.951733125Q22.970843505859374,21.006452125,23.040443505859376,21.076096125Q23.110043505859373,21.145740125,23.164843505859373,21.227633125Q23.219543505859377,21.309525125,23.257243505859375,21.400520125Q23.294943505859376,21.491514125,23.314143505859377,21.588113125Q23.333343505859375,21.684711725,23.333343505859375,21.783203125Q23.333343505859375,21.881694525,23.314143505859377,21.978293125Q23.294943505859376,22.074892125,23.257243505859375,22.165886125Q23.219543505859377,22.256881125,23.164843505859373,22.338773125Q23.110043505859373,22.420666125,23.040443505859376,22.490310125Q22.970843505859374,22.559954125,22.888943505859373,22.614673125Q22.807043505859376,22.669391125,22.716043505859375,22.707082125Q22.625043505859374,22.744773125000002,22.528443505859375,22.763988125Q22.431843505859376,22.783203125,22.333343505859375,22.783203125ZM23.333343505859375,21.783203125Q23.333343505859375,21.881694525,23.314143505859377,21.978293125Q23.294943505859376,22.074892125,23.257243505859375,22.165886125Q23.219543505859377,22.256881125,23.164843505859373,22.338773125Q23.110043505859373,22.420666125,23.040443505859376,22.490310125Q22.970843505859374,22.559954125,22.888943505859373,22.614673125Q22.807043505859376,22.669391125,22.716043505859375,22.707082125Q22.625043505859374,22.744773125000002,22.528443505859375,22.763988125Q22.431843505859376,22.783203125,22.333343505859375,22.783203125Q22.234853505859377,22.783203125,22.138253505859375,22.763988125Q22.041653505859376,22.744773125000002,21.950663505859374,22.707082125Q21.859663505859373,22.669391125,21.777773505859376,22.614673125Q21.695883505859374,22.559954125,21.626233505859375,22.490310125Q21.556593505859375,22.420666125,21.501873505859376,22.338773125Q21.447153505859376,22.256881125,21.409463505859375,22.165886125Q21.371773505859373,22.074892125,21.352553505859376,21.978293125Q21.333343505859375,21.881694525,21.333343505859375,21.783203125Q21.333343505859375,21.684711725,21.352553505859376,21.588113125Q21.371773505859373,21.491514125,21.409463505859375,21.400520125Q21.447153505859376,21.309525125,21.501873505859376,21.227633125Q21.556593505859375,21.145740125,21.626233505859375,21.076096125Q21.695883505859374,21.006452125,21.777773505859376,20.951733125Q21.859663505859373,20.897015125,21.950663505859374,20.859324125Q22.041653505859376,20.821633124999998,22.138253505859375,20.802418125Q22.234853505859377,20.783203125,22.333343505859375,20.783203125Q22.431843505859376,20.783203125,22.528443505859375,20.802418125Q22.625043505859374,20.821633124999998,22.716043505859375,20.859324125Q22.807043505859376,20.897015125,22.888943505859373,20.951733125Q22.970843505859374,21.006452125,23.040443505859376,21.076096125Q23.110043505859373,21.145740125,23.164843505859373,21.227633125Q23.219543505859377,21.309525125,23.257243505859375,21.400520125Q23.294943505859376,21.491514125,23.314143505859377,21.588113125Q23.333343505859375,21.684711725,23.333343505859375,21.783203125ZM13.333343505859375,21.783203125Q13.333343505859375,21.881694525,13.314128505859376,21.978293125Q13.294913505859375,22.074892125,13.257222505859374,22.165886125Q13.219531505859376,22.256881125,13.164813505859374,22.338773125Q13.110094505859376,22.420666125,13.040450505859376,22.490310125Q12.970806505859375,22.559954125,12.888913505859374,22.614673125Q12.807021505859375,22.669391125,12.716026505859375,22.707082125Q12.625032505859375,22.744773125000002,12.528433505859375,22.763988125Q12.431834905859375,22.783203125,12.333343505859375,22.783203125Q12.234852105859375,22.783203125,12.138253505859375,22.763988125Q12.041654505859375,22.744773125000002,11.950660505859375,22.707082125Q11.859665505859375,22.669391125,11.777773505859376,22.614673125Q11.695880505859375,22.559954125,11.626236505859374,22.490310125Q11.556592505859374,22.420666125,11.501873505859376,22.338773125Q11.447155505859374,22.256881125,11.409464505859376,22.165886125Q11.371773505859375,22.074892125,11.352558505859374,21.978293125Q11.333343505859375,21.881694525,11.333343505859375,21.783203125Q11.333343505859375,21.684711725,11.352558505859374,21.588113125Q11.371773505859375,21.491514125,11.409464505859376,21.400520125Q11.447155505859374,21.309525125,11.501873505859376,21.227633125Q11.556592505859374,21.145740125,11.626236505859374,21.076096125Q11.695880505859375,21.006452125,11.777773505859376,20.951733125Q11.859665505859375,20.897015125,11.950660505859375,20.859324125Q12.041654505859375,20.821633124999998,12.138253505859375,20.802418125Q12.234852105859375,20.783203125,12.333343505859375,20.783203125Q12.431834905859375,20.783203125,12.528433505859375,20.802418125Q12.625032505859375,20.821633124999998,12.716026505859375,20.859324125Q12.807021505859375,20.897015125,12.888913505859374,20.951733125Q12.970806505859375,21.006452125,13.040450505859376,21.076096125Q13.110094505859376,21.145740125,13.164813505859374,21.227633125Q13.219531505859376,21.309525125,13.257222505859374,21.400520125Q13.294913505859375,21.491514125,13.314128505859376,21.588113125Q13.333343505859375,21.684711725,13.333343505859375,21.783203125Z" fill="#222222" fill-opacity="1"/></g><g><path d="M19.000013505859375,29.44989013671875L12.333343505859375,29.44989013671875Q12.234852105859375,29.44989013671875,12.138253505859375,29.43067513671875Q12.041654505859375,29.411460136718752,11.950660505859375,29.37376913671875Q11.859665505859375,29.33607813671875,11.777773505859376,29.28136013671875Q11.695880505859375,29.22664113671875,11.626236505859374,29.15699713671875Q11.556592505859374,29.08735313671875,11.501873505859376,29.00546013671875Q11.447155505859374,28.92356813671875,11.409464505859376,28.83257313671875Q11.371773505859375,28.74157913671875,11.352558505859374,28.64498013671875Q11.333343505859375,28.54838153671875,11.333343505859375,28.44989013671875Q11.333343505859375,28.35139873671875,11.352558505859374,28.25480013671875Q11.371773505859375,28.15820113671875,11.409464505859376,28.06720713671875Q11.447155505859374,27.97621213671875,11.501873505859376,27.89432013671875Q11.556592505859374,27.81242713671875,11.626236505859374,27.74278313671875Q11.695880505859375,27.67313913671875,11.777773505859376,27.61842013671875Q11.859665505859375,27.56370213671875,11.950660505859375,27.52601113671875Q12.041654505859375,27.488320136718748,12.138253505859375,27.46910513671875Q12.234852105859375,27.44989013671875,12.333343505859375,27.44989013671875L19.000013505859375,27.44989013671875Q19.098503505859377,27.44989013671875,19.195103505859375,27.46910513671875Q19.291693505859374,27.488320136718748,19.382693505859375,27.52601113671875Q19.473683505859377,27.56370213671875,19.555583505859374,27.61842013671875Q19.637473505859376,27.67313913671875,19.707113505859375,27.74278313671875Q19.776763505859375,27.81242713671875,19.831483505859374,27.89432013671875Q19.886193505859374,27.97621213671875,19.923893505859375,28.06720713671875Q19.961583505859373,28.15820113671875,19.980793505859374,28.25480013671875Q20.000013505859375,28.35139873671875,20.000013505859375,28.44989013671875Q20.000013505859375,28.54838153671875,19.980793505859374,28.64498013671875Q19.961583505859373,28.74157913671875,19.923893505859375,28.83257313671875Q19.886193505859374,28.92356813671875,19.831483505859374,29.00546013671875Q19.776763505859375,29.08735313671875,19.707113505859375,29.15699713671875Q19.637473505859376,29.22664113671875,19.555583505859374,29.28136013671875Q19.473683505859377,29.33607813671875,19.382693505859375,29.37376913671875Q19.291693505859374,29.411460136718752,19.195103505859375,29.43067513671875Q19.098503505859377,29.44989013671875,19.000013505859375,29.44989013671875ZM20.000013505859375,28.44989013671875Q20.000013505859375,28.54838153671875,19.980793505859374,28.64498013671875Q19.961583505859373,28.74157913671875,19.923893505859375,28.83257313671875Q19.886193505859374,28.92356813671875,19.831483505859374,29.00546013671875Q19.776763505859375,29.08735313671875,19.707113505859375,29.15699713671875Q19.637473505859376,29.22664113671875,19.555583505859374,29.28136013671875Q19.473683505859377,29.33607813671875,19.382693505859375,29.37376913671875Q19.291693505859374,29.411460136718752,19.195103505859375,29.43067513671875Q19.098503505859377,29.44989013671875,19.000013505859375,29.44989013671875Q18.901523505859373,29.44989013671875,18.804923505859374,29.43067513671875Q18.708323505859376,29.411460136718752,18.617323505859375,29.37376913671875Q18.526333505859377,29.33607813671875,18.444443505859375,29.28136013671875Q18.362543505859374,29.22664113671875,18.292903505859375,29.15699713671875Q18.223253505859375,29.08735313671875,18.168543505859375,29.00546013671875Q18.113823505859376,28.92356813671875,18.076133505859374,28.83257313671875Q18.038433505859373,28.74157913671875,18.019223505859376,28.64498013671875Q18.000013505859375,28.54838153671875,18.000013505859375,28.44989013671875Q18.000013505859375,28.35139873671875,18.019223505859376,28.25480013671875Q18.038433505859373,28.15820113671875,18.076133505859374,28.06720713671875Q18.113823505859376,27.97621213671875,18.168543505859375,27.89432013671875Q18.223253505859375,27.81242713671875,18.292903505859375,27.74278313671875Q18.362543505859374,27.67313913671875,18.444443505859375,27.61842013671875Q18.526333505859377,27.56370213671875,18.617323505859375,27.52601113671875Q18.708323505859376,27.488320136718748,18.804923505859374,27.46910513671875Q18.901523505859373,27.44989013671875,19.000013505859375,27.44989013671875Q19.098503505859377,27.44989013671875,19.195103505859375,27.46910513671875Q19.291693505859374,27.488320136718748,19.382693505859375,27.52601113671875Q19.473683505859377,27.56370213671875,19.555583505859374,27.61842013671875Q19.637473505859376,27.67313913671875,19.707113505859375,27.74278313671875Q19.776763505859375,27.81242713671875,19.831483505859374,27.89432013671875Q19.886193505859374,27.97621213671875,19.923893505859375,28.06720713671875Q19.961583505859373,28.15820113671875,19.980793505859374,28.25480013671875Q20.000013505859375,28.35139873671875,20.000013505859375,28.44989013671875ZM13.333343505859375,28.44989013671875Q13.333343505859375,28.54838153671875,13.314128505859376,28.64498013671875Q13.294913505859375,28.74157913671875,13.257222505859374,28.83257313671875Q13.219531505859376,28.92356813671875,13.164813505859374,29.00546013671875Q13.110094505859376,29.08735313671875,13.040450505859376,29.15699713671875Q12.970806505859375,29.22664113671875,12.888913505859374,29.28136013671875Q12.807021505859375,29.33607813671875,12.716026505859375,29.37376913671875Q12.625032505859375,29.411460136718752,12.528433505859375,29.43067513671875Q12.431834905859375,29.44989013671875,12.333343505859375,29.44989013671875Q12.234852105859375,29.44989013671875,12.138253505859375,29.43067513671875Q12.041654505859375,29.411460136718752,11.950660505859375,29.37376913671875Q11.859665505859375,29.33607813671875,11.777773505859376,29.28136013671875Q11.695880505859375,29.22664113671875,11.626236505859374,29.15699713671875Q11.556592505859374,29.08735313671875,11.501873505859376,29.00546013671875Q11.447155505859374,28.92356813671875,11.409464505859376,28.83257313671875Q11.371773505859375,28.74157913671875,11.352558505859374,28.64498013671875Q11.333343505859375,28.54838153671875,11.333343505859375,28.44989013671875Q11.333343505859375,28.35139873671875,11.352558505859374,28.25480013671875Q11.371773505859375,28.15820113671875,11.409464505859376,28.06720713671875Q11.447155505859374,27.97621213671875,11.501873505859376,27.89432013671875Q11.556592505859374,27.81242713671875,11.626236505859374,27.74278313671875Q11.695880505859375,27.67313913671875,11.777773505859376,27.61842013671875Q11.859665505859375,27.56370213671875,11.950660505859375,27.52601113671875Q12.041654505859375,27.488320136718748,12.138253505859375,27.46910513671875Q12.234852105859375,27.44989013671875,12.333343505859375,27.44989013671875Q12.431834905859375,27.44989013671875,12.528433505859375,27.46910513671875Q12.625032505859375,27.488320136718748,12.716026505859375,27.52601113671875Q12.807021505859375,27.56370213671875,12.888913505859374,27.61842013671875Q12.970806505859375,27.67313913671875,13.040450505859376,27.74278313671875Q13.110094505859376,27.81242713671875,13.164813505859374,27.89432013671875Q13.219531505859376,27.97621213671875,13.257222505859374,28.06720713671875Q13.294913505859375,28.15820113671875,13.314128505859376,28.25480013671875Q13.333343505859375,28.35139873671875,13.333343505859375,28.44989013671875Z" fill="#222222" fill-opacity="1"/></g></g></svg>