<svg xmlns="http://www.w3.org/2000/svg" xmlns:xlink="http://www.w3.org/1999/xlink" fill="none" version="1.1" width="100" height="100" viewBox="0 0 100 100"><defs><clipPath id="master_svg0_311_18"><rect x="0" y="0" width="100" height="100" rx="0"/></clipPath></defs><g clip-path="url(#master_svg0_311_18)"><g><rect x="0" y="-7" width="100" height="100" rx="0" fill="#FFFFFF" fill-opacity="0.009999999776482582"/></g><g><path d="M33.175,18C21.48037,18,12,27.32578,12,38.8296C12,59.6591,37.025,78.5951,50.5,83C63.975,78.5951,89,59.6591,89,38.8296C89,27.32578,79.5196,18,67.825,18C60.6634,18,54.3321,21.49729,50.5,26.8503C46.6679,21.49729,40.336600000000004,18,33.175,18Z" fill="#D91B1B" fill-opacity="1"/><path d="M50.5,22.19866Q53.1205,19.53565,56.5258,17.758252Q61.8102,15,67.825,15Q72.7322,15,77.2197,16.86708Q81.5565,18.671498,84.9018,21.96217Q88.2522,25.2579,90.092,29.5367Q92,33.974199999999996,92,38.8296Q92,46.9588,87.5238,55.3157Q83.6889,62.4755,76.9174,69.2024Q70.9759,75.1048,63.82,79.6944Q57.1187,83.9926,51.4321,85.8515Q50.9779,86,50.5,86Q50.0221,86,49.5679,85.8515Q43.881299999999996,83.9926,37.18,79.6944Q30.0241,75.10470000000001,24.0826,69.2024Q17.31109,62.4755,13.47616,55.3157Q9,46.9587,9,38.8296Q9,33.974199999999996,10.90801,29.5368Q12.747823,25.25791,16.09821,21.96217Q19.44344,18.671502,23.7803,16.86708Q28.2678,15,33.175,15Q39.189800000000005,15,44.4742,17.758251Q47.8795,19.53565,50.5,22.19866ZM41.697900000000004,23.077289999999998Q45.5482,25.08697,48.0606,28.596600000000002Q48.3498,29.000500000000002,48.7537,29.2897Q48.994,29.4617,49.2632,29.5835Q49.5324,29.7053,49.8201,29.772199999999998Q50.1079,29.839199999999998,50.4033,29.8487Q50.6986,29.8583,50.9901,29.810000000000002Q51.2816,29.761699999999998,51.5581,29.6575Q51.8346,29.5533,52.0854,29.397199999999998Q52.3362,29.241,52.5518,29.038899999999998Q52.7674,28.8368,52.9394,28.596600000000002Q55.4518,25.08697,59.3021,23.077289999999998Q63.2819,21,67.825,21Q71.5338,21,74.9148,22.40672Q78.178,23.764409999999998,80.6942,26.23956Q83.2052,28.709600000000002,84.5799,31.9068Q86,35.2095,86,38.8296Q86,45.4531,82.2347,52.4828Q78.8236,58.8514,72.6888,64.9457Q67.1997,70.3986,60.5807,74.644Q55.0887,78.1665,50.5,79.82730000000001Q45.9113,78.1665,40.4193,74.644Q33.800200000000004,70.3986,28.3112,64.9457Q22.1764,58.8514,18.76525,52.4828Q15,45.4531,15,38.8296Q15,35.2095,16.42007,31.9068Q17.794800000000002,28.709600000000002,20.30582,26.23955Q22.822,23.764409999999998,26.0852,22.40672Q29.4662,21,33.175,21Q37.7181,21,41.697900000000004,23.077289999999998Z" fill-rule="evenodd" fill="#D91B1B" fill-opacity="1"/></g></g></svg>