<svg xmlns="http://www.w3.org/2000/svg" xmlns:xlink="http://www.w3.org/1999/xlink" fill="none" version="1.1" width="40" height="40" viewBox="0 0 40 40"><defs><clipPath id="master_svg0_58_9"><rect x="0" y="0" width="40" height="40" rx="0"/></clipPath></defs><g clip-path="url(#master_svg0_58_9)"><g><path d="M6.57895,35L20,35Q20.0985,35,20.1951,34.9808Q20.2917,34.961600000000004,20.3827,34.9239Q20.4737,34.8862,20.5556,34.8315Q20.6375,34.776700000000005,20.7071,34.7071Q20.776699999999998,34.6375,20.8315,34.5556Q20.886200000000002,34.4737,20.9239,34.3827Q20.9616,34.2917,20.980800000000002,34.1951Q21,34.0985,21,34Q21,33.9015,20.980800000000002,33.8049Q20.9616,33.7083,20.9239,33.6173Q20.886200000000002,33.5263,20.8315,33.4444Q20.776699999999998,33.3625,20.7071,33.2929Q20.6375,33.2232,20.5556,33.1685Q20.4737,33.1138,20.3827,33.0761Q20.2917,33.038399999999996,20.1951,33.0192Q20.0985,33,20,33L6.57895,33Q6.33995,33,6.17055,32.8301Q6,32.659099999999995,6,32.4167L6,16L34,16L34,26.0833Q34,26.181800000000003,34.0192,26.278399999999998Q34.038399999999996,26.375,34.0761,26.466Q34.1138,26.557000000000002,34.1685,26.6389Q34.2232,26.7208,34.2929,26.790399999999998Q34.3625,26.8601,34.4444,26.9148Q34.5263,26.9695,34.6173,27.007199999999997Q34.7083,27.0449,34.8049,27.0641Q34.9015,27.0833,35,27.0833Q35.0985,27.0833,35.1951,27.0641Q35.2917,27.0449,35.3827,27.007199999999997Q35.4737,26.9695,35.5556,26.9148Q35.6375,26.8601,35.7071,26.790399999999998Q35.776700000000005,26.7208,35.8315,26.6389Q35.8862,26.557000000000002,35.9239,26.466Q35.961600000000004,26.375,35.9808,26.278399999999998Q36,26.181800000000003,36,26.0833L36,15Q36,14.9015086,35.9808,14.80491Q35.961600000000004,14.708311,35.9239,14.617317Q35.8862,14.526322,35.8315,14.44443Q35.776700000000005,14.362537,35.7071,14.292893Q35.6375,14.223249,35.5556,14.16853Q35.4737,14.113812,35.3827,14.076121Q35.2917,14.03843,35.1951,14.019214999999999Q35.0985,14,35,14L5,14Q4.9015086,14,4.80491,14.019214999999999Q4.708311,14.03843,4.617317,14.076121Q4.526322,14.113812,4.44443,14.16853Q4.362537,14.223249,4.292893,14.292893Q4.223249,14.362537,4.16853,14.44443Q4.113812,14.526322,4.076121,14.617317Q4.03843,14.708311,4.019215,14.80491Q4,14.9015086,4,15L4,32.4167Q4,33.4859,4.754379,34.2424Q5.5098970000000005,35,6.57895,35Z" fill-rule="evenodd" fill="#D91B1B" fill-opacity="1"/></g><g><path d="M4,8.45455L4,15Q4,15.09849,4.019215,15.19509Q4.03843,15.29169,4.076121,15.38268Q4.113812,15.47368,4.16853,15.55557Q4.223249,15.63746,4.292893,15.70711Q4.362537,15.77675,4.44443,15.83147Q4.526322,15.88619,4.617317,15.92388Q4.708311,15.96157,4.80491,15.98078Q4.9015086,16,5,16L35,16Q35.0985,16,35.1951,15.98078Q35.2917,15.96157,35.3827,15.92388Q35.4737,15.88619,35.5556,15.83147Q35.6375,15.77675,35.7071,15.70711Q35.776700000000005,15.63746,35.8315,15.55557Q35.8862,15.47368,35.9239,15.38268Q35.961600000000004,15.29169,35.9808,15.19509Q36,15.09849,36,15L36,8.45455Q36,7.413619,35.2151,6.690543Q34.4655,6,33.421099999999996,6L6.57895,6Q5.534523,6,4.784924,6.690539Q4,7.41362,4,8.45455ZM6,14L34,14L34,8.45455Q34,8.29048,33.86,8.16151Q33.6847,8,33.421099999999996,8L6.57895,8Q6.31533,8,6.14,8.16151Q6,8.29048,6,8.45455L6,14Z" fill-rule="evenodd" fill="#D91B1B" fill-opacity="1"/></g><g><path d="M13,4L13,10Q13,10.09849,13.019214999999999,10.19509Q13.03843,10.29169,13.076121,10.38268Q13.113812,10.47368,13.16853,10.55557Q13.223249,10.63746,13.292893,10.70711Q13.362537,10.77675,13.44443,10.83147Q13.526322,10.88619,13.617317,10.92388Q13.708311,10.96157,13.80491,10.98078Q13.9015086,11,14,11Q14.0984914,11,14.19509,10.98078Q14.291689,10.96157,14.382683,10.92388Q14.473678,10.88619,14.55557,10.83147Q14.637463,10.77675,14.707107,10.70711Q14.776751,10.63746,14.83147,10.55557Q14.886188,10.47368,14.923879,10.38268Q14.96157,10.29169,14.980785000000001,10.19509Q15,10.09849,15,10L15,4Q15,3.9015086,14.980785000000001,3.80491Q14.96157,3.708311,14.923879,3.617317Q14.886188,3.526322,14.83147,3.44443Q14.776751,3.362537,14.707107,3.292893Q14.637463,3.223249,14.55557,3.16853Q14.473678,3.1138120000000002,14.382683,3.076121Q14.291689,3.03843,14.19509,3.019215Q14.0984914,3,14,3Q13.9015086,3,13.80491,3.019215Q13.708311,3.03843,13.617317,3.076121Q13.526322,3.1138120000000002,13.44443,3.16853Q13.362537,3.223249,13.292893,3.292893Q13.223249,3.362537,13.16853,3.44443Q13.113812,3.526322,13.076121,3.617317Q13.03843,3.708311,13.019214999999999,3.80491Q13,3.9015086,13,4Z" fill-rule="evenodd" fill="#D91B1B" fill-opacity="1"/></g><g><path d="M25,4L25,10Q25,10.09849,25.019215,10.19509Q25.038429999999998,10.29169,25.076121,10.38268Q25.113812,10.47368,25.16853,10.55557Q25.223249,10.63746,25.292893,10.70711Q25.362537,10.77675,25.44443,10.83147Q25.526322,10.88619,25.617317,10.92388Q25.708311,10.96157,25.80491,10.98078Q25.9015086,11,26,11Q26.0984914,11,26.19509,10.98078Q26.291689,10.96157,26.382683,10.92388Q26.473678,10.88619,26.55557,10.83147Q26.637463,10.77675,26.707107,10.70711Q26.776751,10.63746,26.83147,10.55557Q26.886188,10.47368,26.923879,10.38268Q26.961570000000002,10.29169,26.980785,10.19509Q27,10.09849,27,10L27,4Q27,3.9015086,26.980785,3.80491Q26.961570000000002,3.708311,26.923879,3.617317Q26.886188,3.526322,26.83147,3.44443Q26.776751,3.362537,26.707107,3.292893Q26.637463,3.223249,26.55557,3.16853Q26.473678,3.1138120000000002,26.382683,3.076121Q26.291689,3.03843,26.19509,3.019215Q26.0984914,3,26,3Q25.9015086,3,25.80491,3.019215Q25.708311,3.03843,25.617317,3.076121Q25.526322,3.1138120000000002,25.44443,3.16853Q25.362537,3.223249,25.292893,3.292893Q25.223249,3.362537,25.16853,3.44443Q25.113812,3.526322,25.076121,3.617317Q25.038429999999998,3.708311,25.019215,3.80491Q25,3.9015086,25,4Z" fill-rule="evenodd" fill="#D91B1B" fill-opacity="1"/></g><g><ellipse cx="24.5" cy="25.5" rx="5.5" ry="5.5" fill-opacity="0" stroke-opacity="1" stroke="#D91B1B" fill="none" stroke-width="2"/></g><g><path d="M33.29258,33.70679L33.29289,33.70711Q33.43355,33.84776,33.61732,33.92388Q33.80109,34,34,34Q34.025890000000004,34,34.05174,33.99866Q34.23699,33.98906,34.40647,33.913669999999996Q34.57594,33.83827,34.70711,33.70711Q34.84776,33.56645,34.92388,33.38268Q35,33.19891,35,33Q35,32.80109,34.92388,32.61732Q34.84776,32.43355,34.70711,32.29289L30.707107,28.292893Q30.566455,28.152241,30.382683,28.07612Q30.198912,28,30,28Q29.801088,28,29.617317,28.07612Q29.433545,28.152241,29.292893,28.292893Q29.152241,28.433545,29.07612,28.617317Q29,28.801088,29,29Q29,29.198912,29.07612,29.382683Q29.152241,29.566455,29.292893,29.707107L33.29258,33.70679Z" fill-rule="evenodd" fill="#D91B1B" fill-opacity="1"/></g></g></svg>