<svg xmlns="http://www.w3.org/2000/svg" xmlns:xlink="http://www.w3.org/1999/xlink" fill="none" version="1.1" width="40" height="40" viewBox="0 0 40 40"><defs><clipPath id="master_svg0_58_08"><rect x="0" y="0" width="40" height="40" rx="0"/></clipPath></defs><g clip-path="url(#master_svg0_58_08)"><g><path d="M5,33L5,8Q5,6.757359,5.87868,5.87868Q6.757359,5,8,5L33,5Q34.242599999999996,5,35.121300000000005,5.87868Q36,6.757358,36,8L36,33Q36,34.242599999999996,35.121300000000005,35.121300000000005Q34.242599999999996,36,33,36L8,36Q6.757358,36,5.87868,35.121300000000005Q5,34.242599999999996,5,33ZM7,33Q7,33.4142,7.29289,33.7071Q7.58579,34,8,34L33,34Q33.4142,34,33.7071,33.7071Q34,33.4142,34,33L34,8Q34,7.58579,33.7071,7.29289Q33.4142,7,33,7L8,7Q7.58579,7,7.29289,7.29289Q7,7.58579,7,8L7,33Z" fill="#D91B1B" fill-opacity="1"/></g><g><path d="M10,6L10,19Q10,19.1577,10.048507,19.3077Q10.097013,19.457700000000003,10.189321,19.5855Q10.246987,19.665300000000002,10.319120999999999,19.7324Q10.391256,19.799500000000002,10.475088,19.8512Q10.558919,19.902900000000002,10.651226,19.9372Q10.743533,19.971600000000002,10.840768,19.9872Q10.9380023,20.0029,11.0364283,19.999299999999998Q11.134854,19.9957,11.230689,19.973Q11.326524,19.9503,11.416085,19.9093Q11.505646,19.868299999999998,11.585491,19.8107L15.5,16.9835L19.41451,19.8107Q19.54232,19.903,19.69233,19.9515Q19.84234,20,20,20Q20.098489999999998,20,20.19509,19.980800000000002Q20.29169,19.9616,20.38268,19.9239Q20.47368,19.886200000000002,20.55557,19.8315Q20.63746,19.776699999999998,20.70711,19.7071Q20.77675,19.6375,20.83147,19.5556Q20.88619,19.4737,20.92388,19.3827Q20.961570000000002,19.2917,20.98078,19.1951Q21,19.0985,21,19L21,6Q21,5.9015086,20.98078,5.80491Q20.961570000000002,5.708311,20.92388,5.617317Q20.88619,5.526322,20.83147,5.44443Q20.77675,5.362537,20.70711,5.292893Q20.63746,5.223249,20.55557,5.16853Q20.47368,5.113812,20.38268,5.076121Q20.29169,5.03843,20.19509,5.019215Q20.098489999999998,5,20,5L11,5Q10.9015086,5,10.80491,5.019215Q10.708311,5.03843,10.617317,5.076121Q10.526322,5.113812,10.44443,5.16853Q10.362537,5.223249,10.292893,5.292893Q10.223249,5.362537,10.16853,5.44443Q10.113812,5.526322,10.076121,5.617317Q10.03843,5.708311,10.019214999999999,5.80491Q10,5.9015086,10,6ZM12,17.0442L14.91451,14.93932Q14.97802,14.89345,15.0479,14.85803Q15.11779,14.82261,15.19233,14.79851Q15.26688,14.7744,15.34426,14.7622Q15.42165,14.75,15.5,14.75Q15.57835,14.75,15.65574,14.7622Q15.73312,14.7744,15.80767,14.79851Q15.88221,14.82261,15.9521,14.85803Q16.02198,14.89345,16.08549,14.93932L19,17.0442L19,7L12,7L12,17.0442Z" fill-rule="evenodd" fill="#D91B1B" fill-opacity="1"/></g><g><path d="M11,26L22,26Q22.0985,26,22.1951,25.980785Q22.2917,25.961570000000002,22.3827,25.923879Q22.4737,25.886188,22.5556,25.83147Q22.6375,25.776751,22.7071,25.707107Q22.776699999999998,25.637463,22.8315,25.55557Q22.886200000000002,25.473678,22.9239,25.382683Q22.9616,25.291689,22.980800000000002,25.19509Q23,25.0984914,23,25Q23,24.9015086,22.980800000000002,24.80491Q22.9616,24.708311,22.9239,24.617317Q22.886200000000002,24.526322,22.8315,24.44443Q22.776699999999998,24.362537,22.7071,24.292893Q22.6375,24.223249,22.5556,24.16853Q22.4737,24.113812,22.3827,24.076121Q22.2917,24.038429999999998,22.1951,24.019215Q22.0985,24,22,24L11,24Q10.9015086,24,10.80491,24.019215Q10.708311,24.038429999999998,10.617317,24.076121Q10.526322,24.113812,10.44443,24.16853Q10.362537,24.223249,10.292893,24.292893Q10.223249,24.362537,10.16853,24.44443Q10.113812,24.526322,10.076121,24.617317Q10.03843,24.708311,10.019214999999999,24.80491Q10,24.9015086,10,25Q10,25.0984914,10.019214999999999,25.19509Q10.03843,25.291689,10.076121,25.382683Q10.113812,25.473678,10.16853,25.55557Q10.223249,25.637463,10.292893,25.707107Q10.362537,25.776751,10.44443,25.83147Q10.526322,25.886188,10.617317,25.923879Q10.708311,25.961570000000002,10.80491,25.980785Q10.9015086,26,11,26Z" fill-rule="evenodd" fill="#D91B1B" fill-opacity="1"/></g><g><path d="M11,31L28,31Q28.0985,31,28.1951,30.980785Q28.2917,30.961570000000002,28.3827,30.923879Q28.4737,30.886188,28.5556,30.83147Q28.6375,30.776751,28.7071,30.707107Q28.7767,30.637463,28.8315,30.55557Q28.8862,30.473678,28.9239,30.382683Q28.9616,30.291689,28.9808,30.19509Q29,30.0984914,29,30Q29,29.9015086,28.9808,29.80491Q28.9616,29.708311,28.9239,29.617317Q28.8862,29.526322,28.8315,29.44443Q28.7767,29.362537,28.7071,29.292893Q28.6375,29.223249,28.5556,29.16853Q28.4737,29.113812,28.3827,29.076121Q28.2917,29.038429999999998,28.1951,29.019215Q28.0985,29,28,29L11,29Q10.9015086,29,10.80491,29.019215Q10.708311,29.038429999999998,10.617317,29.076121Q10.526322,29.113812,10.44443,29.16853Q10.362537,29.223249,10.292893,29.292893Q10.223249,29.362537,10.16853,29.44443Q10.113812,29.526322,10.076121,29.617317Q10.03843,29.708311,10.019214999999999,29.80491Q10,29.9015086,10,30Q10,30.0984914,10.019214999999999,30.19509Q10.03843,30.291689,10.076121,30.382683Q10.113812,30.473678,10.16853,30.55557Q10.223249,30.637463,10.292893,30.707107Q10.362537,30.776751,10.44443,30.83147Q10.526322,30.886188,10.617317,30.923879Q10.708311,30.961570000000002,10.80491,30.980785Q10.9015086,31,11,31Z" fill-rule="evenodd" fill="#D91B1B" fill-opacity="1"/></g></g></svg>