<svg xmlns="http://www.w3.org/2000/svg" xmlns:xlink="http://www.w3.org/1999/xlink" fill="none" version="1.1" width="40" height="40" viewBox="0 0 40 40"><defs><clipPath id="master_svg0_62_17"><rect x="0" y="0" width="40" height="40" rx="0"/></clipPath></defs><g clip-path="url(#master_svg0_62_17)"><g><path d="M5,32L5,9Q5,7.34315,6.171573,6.171573Q7.34315,5,9,5L32,5Q33.6569,5,34.8284,6.171573Q36,7.34315,36,9L36,32Q36,33.6569,34.8284,34.8284Q33.6569,36,32,36L9,36Q7.34315,36,6.171573,34.8284Q5,33.6569,5,32ZM7,32Q7,32.8284,7.58579,33.4142Q8.17157,34,9,34L32,34Q32.8284,34,33.4142,33.4142Q34,32.8284,34,32L34,9Q34,8.17157,33.4142,7.58579Q32.8284,7,32,7L9,7Q8.17157,7,7.58579,7.58579Q7,8.17157,7,9L7,32Z" fill="#D91B1B" fill-opacity="1"/></g><g><path d="M15,20.5L15,27Q15,27.2534,15.120708,27.476300000000002Q15.167618000000001,27.5629,15.230522,27.6387Q15.293426,27.7145,15.369906,27.7765Q15.446386,27.8386,15.533504,27.8845Q15.620622000000001,27.930500000000002,15.71503,27.9585Q15.809437,27.9866,15.9075065,27.9957Q16.00557572,28.0048,16.103538,27.9946Q16.2015,27.9844,16.29559,27.9553Q16.38968,27.9262,16.476283,27.8793L28.476300000000002,21.37929Q28.7377,21.23769,28.8793,20.97628Q28.9262,20.88968,28.9553,20.79559Q28.9844,20.7015,28.9946,20.60354Q29.0048,20.505580000000002,28.9957,20.407510000000002Q28.9866,20.309440000000002,28.9585,20.21503Q28.930500000000002,20.12062,28.8845,20.0335Q28.8386,19.94639,28.7765,19.86991Q28.7145,19.79342,28.6387,19.73052Q28.5629,19.66762,28.476300000000002,19.62071L16.476283,13.120708Q16.253438,13,16,13Q15.9015086,13,15.80491,13.019214999999999Q15.708311,13.03843,15.617317,13.076121Q15.526322,13.113812,15.44443,13.16853Q15.362537,13.223249,15.292893,13.292893Q15.223249,13.362537,15.16853,13.44443Q15.113812,13.526322,15.076121,13.617317Q15.03843,13.708311,15.019214999999999,13.80491Q15,13.9015086,15,14L15,20.5ZM17,25.3211L21.52372,22.870710000000003L25.90041,20.5L21.52372,18.12929L17,15.67895L17,25.3211Z" fill-rule="evenodd" fill="#D91B1B" fill-opacity="1"/></g></g></svg>