<svg xmlns="http://www.w3.org/2000/svg" xmlns:xlink="http://www.w3.org/1999/xlink" fill="none" version="1.1" width="40" height="40" viewBox="0 0 40 40"><defs><clipPath id="master_svg0_58_1"><rect x="0" y="0" width="40" height="40" rx="0"/></clipPath></defs><g clip-path="url(#master_svg0_58_1)"><g><rect x="0" y="0" width="40" height="40" rx="0" fill="#FFFFFF" fill-opacity="0.009999999776482582"/></g><g><path d="M7.69940185546875,34.00002824707031L7.69940185546875,18.333328247070312Q7.69940185546875,18.234836847070312,7.68018685546875,18.138238247070312Q7.66097185546875,18.04163924707031,7.62328085546875,17.950645247070312Q7.58558985546875,17.859650247070313,7.53087185546875,17.777758247070313Q7.47615285546875,17.695865247070312,7.40650885546875,17.626221247070312Q7.33686485546875,17.55657724707031,7.25497185546875,17.501858247070313Q7.17307985546875,17.447140247070312,7.08208485546875,17.409449247070313Q6.99109085546875,17.37175824707031,6.89449185546875,17.35254324707031Q6.79789325546875,17.333328247070312,6.69940185546875,17.333328247070312Q6.60091045546875,17.333328247070312,6.50431185546875,17.35254324707031Q6.40771285546875,17.37175824707031,6.31671885546875,17.409449247070313Q6.22572385546875,17.447140247070312,6.14383185546875,17.501858247070313Q6.06193885546875,17.55657724707031,5.99229485546875,17.626221247070312Q5.92265085546875,17.695865247070312,5.86793185546875,17.777758247070313Q5.81321385546875,17.859650247070313,5.77552285546875,17.950645247070312Q5.73783185546875,18.04163924707031,5.71861685546875,18.138238247070312Q5.69940185546875,18.234836847070312,5.69940185546875,18.333328247070312L5.69940185546875,35.00002824707031Q5.69940185546875,35.09852824707031,5.71861685546875,35.195128247070315Q5.73783185546875,35.29172824707031,5.77552285546875,35.382628247070315Q5.81321385546875,35.47362824707031,5.86793185546875,35.55552824707031Q5.92265085546875,35.63742824707031,5.99229485546875,35.707128247070315Q6.06193885546875,35.77672824707031,6.14383185546875,35.83142824707031Q6.22572385546875,35.886228247070314,6.31671885546875,35.92382824707031Q6.40771285546875,35.96152824707031,6.50431185546875,35.98072824707032Q6.60091045546875,36.00002824707031,6.69940185546875,36.00002824707031L33.36610185546875,36.00002824707031Q33.464501855468754,36.00002824707031,33.56110185546875,35.98072824707032Q33.65770185546875,35.96152824707031,33.74870185546875,35.92382824707031Q33.839701855468746,35.886228247070314,33.92160185546875,35.83142824707031Q34.00350185546875,35.77672824707031,34.07320185546875,35.707128247070315Q34.14280185546875,35.63742824707031,34.19750185546875,35.55552824707031Q34.252201855468755,35.47362824707031,34.28990185546875,35.382628247070315Q34.32760185546875,35.29172824707031,34.346801855468755,35.195128247070315Q34.36610185546875,35.09852824707031,34.36610185546875,35.00002824707031L34.36610185546875,18.333328247070312Q34.36610185546875,18.234836847070312,34.346801855468755,18.138238247070312Q34.32760185546875,18.04163924707031,34.28990185546875,17.950645247070312Q34.252201855468755,17.859650247070313,34.19750185546875,17.777758247070313Q34.14280185546875,17.695865247070312,34.07320185546875,17.626221247070312Q34.00350185546875,17.55657724707031,33.92160185546875,17.501858247070313Q33.839701855468746,17.447140247070312,33.74870185546875,17.409449247070313Q33.65770185546875,17.37175824707031,33.56110185546875,17.35254324707031Q33.464501855468754,17.333328247070312,33.36610185546875,17.333328247070312Q33.267601855468754,17.333328247070312,33.171001855468745,17.35254324707031Q33.07440185546875,17.37175824707031,32.98340185546875,17.409449247070313Q32.89240185546875,17.447140247070312,32.81050185546875,17.501858247070313Q32.72860185546875,17.55657724707031,32.65890185546875,17.626221247070312Q32.58930185546875,17.695865247070312,32.53460185546875,17.777758247070313Q32.47990185546875,17.859650247070313,32.44220185546875,17.950645247070312Q32.40450185546875,18.04163924707031,32.385301855468754,18.138238247070312Q32.36610185546875,18.234836847070312,32.36610185546875,18.333328247070312L32.36610185546875,34.00002824707031L7.69940185546875,34.00002824707031Z" fill-rule="evenodd" fill="#D91B1B" fill-opacity="1"/></g><g><path d="M7.370987890625,4Q7.295707890625,4,7.2212678906250005,4.011272Q7.146827890625,4.022543,7.0749178906250005,4.044833Q7.003007890625,4.067122,6.935247890625,4.099926Q6.867487890625,4.132731,6.805397890625001,4.175311Q6.743317890625001,4.217891,6.6883078906249995,4.269287Q6.633287890625001,4.320682,6.586597890625,4.379735Q6.539897890624999,4.438788,6.502567890625,4.504166Q6.465237890625,4.569545,6.438117890625,4.639776L3.9356888906250003,11.120280000000001Q3.377917890625,12.56476,3.579917890625,14.07629Q3.771470890625,15.5096,4.601842490625,16.7128Q5.431190890625,17.9144,6.703837890625,18.605600000000003Q8.044017890625,19.3333,9.590957890624999,19.3333Q12.076457890625,19.3333,13.839767890625,17.5775Q14.275637890625,17.1434,14.603987890625,16.6652Q14.930387890625,17.142699999999998,15.363687890625,17.576Q17.120987890625003,19.3333,19.606287890624998,19.3333L20.454987890625,19.3333Q22.940187890625,19.3333,24.697587890625,17.576Q25.130987890625,17.1426,25.457487890625,16.665Q25.785887890625,17.1434,26.221987890625,17.5776Q27.985687890625,19.3333,30.471187890625,19.3333Q32.018787890625,19.3333,33.359787890625,18.6052Q34.633087890625,17.913800000000002,35.462987890625,16.7116Q36.293887890625,15.5079,36.485587890625,14.07396Q36.687787890625,12.56166,36.129587890625004,11.116579999999999L33.627487890625005,4.639647Q33.600387890625,4.569428,33.563087890625,4.504061Q33.525787890625,4.438695,33.479087890624996,4.379654Q33.432387890625,4.320613,33.377387890625,4.269228Q33.322287890625,4.217843,33.260287890625,4.175272Q33.198187890625,4.132701,33.130387890625,4.099904Q33.062687890625,4.067107,32.990787890625,4.044822Q32.918887890625,4.022538,32.844387890625,4.011269Q32.769987890625,4,32.694687890625005,4L7.370987890625,4ZM26.454987890625,13.33333Q26.454987890625,13.23484,26.435787890625,13.13824Q26.416487890625,13.04164,26.378787890625,12.95065Q26.341187890625,12.85965,26.286387890625,12.77776Q26.231687890625,12.69587,26.162087890625,12.62623Q26.092387890625,12.55658,26.010487890625,12.50186Q25.928587890625,12.447140000000001,25.837687890625,12.40945Q25.746687890625,12.37176,25.650087890625,12.35255Q25.553487890625,12.33333,25.454987890625,12.33333Q25.356487890625,12.33333,25.259887890625,12.35255Q25.163287890625,12.37176,25.072287890625,12.40945Q24.981287890625,12.447140000000001,24.899387890625,12.50186Q24.817487890625,12.55658,24.747887890625,12.62623Q24.678187890625,12.69587,24.623487890625,12.77776Q24.568787890625,12.85965,24.531087890625,12.95065Q24.493387890625,13.04164,24.474187890625,13.13824Q24.454987890625,13.23484,24.454987890625,13.33333Q24.454987890625,14.99018,23.283387890625,16.1618Q22.111787890625,17.3333,20.454987890625,17.3333L19.606287890624998,17.3333Q17.949487890625,17.3333,16.777887890625,16.1618Q15.606287890625,14.99018,15.606287890625,13.33333Q15.606287890625,13.23484,15.587087890625,13.13824Q15.567887890625,13.04164,15.530187890625,12.95065Q15.492487890625,12.85965,15.437787890625,12.77776Q15.383087890625,12.69587,15.313387890625,12.62623Q15.243787890625,12.55658,15.161887890625,12.50186Q15.079987890625,12.447140000000001,14.988987890625,12.40945Q14.897987890625,12.37176,14.801387890625,12.35255Q14.704787890625,12.33333,14.606287890625,12.33333Q14.507807890625,12.33333,14.411207890625,12.35255Q14.314607890625,12.37176,14.223607890625,12.40945Q14.132617890625,12.447140000000001,14.050727890625,12.50186Q13.968827890625,12.55658,13.899187890625,12.62623Q13.829547890625,12.69587,13.774827890625,12.77776Q13.720107890625,12.85965,13.682417890625,12.95065Q13.644727890625,13.04164,13.625507890625,13.13824Q13.606297890625,13.23484,13.606297890625,13.33333Q13.606297890625,14.98749,12.428547890625001,16.1603Q11.250507890625,17.3333,9.590957890624999,17.3333Q8.552027890625,17.3333,7.6582778906249995,16.848Q6.8057078906249995,16.384999999999998,6.247877890625,15.5767Q5.690247890625,14.76877,5.5622978906250005,13.81136Q5.428127890625,12.80745,5.801417890625,11.840720000000001L8.056807890625,6L32.008987890625,6L34.263987890625,11.837250000000001Q34.637587890625,12.80443,34.503287890625,13.80892Q34.375187890625,14.76689,33.817087890625004,15.5754Q33.258687890625,16.3843,32.405387890625,16.8476Q31.510887890625,17.3333,30.471187890625,17.3333Q28.811487890625,17.3333,27.633087890625,16.1602Q26.454987890625,14.98733,26.454987890625,13.33333Z" fill-rule="evenodd" fill="#D91B1B" fill-opacity="1"/></g></g></svg>