<svg xmlns="http://www.w3.org/2000/svg" xmlns:xlink="http://www.w3.org/1999/xlink" fill="none" version="1.1" width="40" height="40" viewBox="0 0 40 40"><defs><clipPath id="master_svg0_58_20"><rect x="0" y="0" width="40" height="40" rx="0"/></clipPath></defs><g clip-path="url(#master_svg0_58_20)"><g><path d="M33.416669999999996,34.166669999999996L28,34.166669999999996Q27.9015086,34.166669999999996,27.80491,34.18588Q27.708311,34.2051,27.617317,34.24279Q27.526322,34.28048,27.44443,34.3352Q27.362537,34.38991,27.292893,34.459559999999996Q27.223249,34.5292,27.16853,34.611090000000004Q27.113812,34.69299,27.076121,34.78398Q27.038429999999998,34.87498,27.019215,34.97157Q27,35.06817,27,35.166669999999996Q27,35.26516,27.019215,35.361760000000004Q27.038429999999998,35.458349999999996,27.076121,35.549350000000004Q27.113812,35.64034,27.16853,35.722229999999996Q27.223249,35.80413,27.292893,35.87377Q27.362537,35.94341,27.44443,35.99813Q27.526322,36.0529,27.617317,36.0905Q27.708311,36.1282,27.80491,36.1475Q27.9015086,36.1667,28,36.1667L33.416669999999996,36.1667Q34.52125,36.1667,35.30229,35.38563Q36.083330000000004,34.60459,36.083330000000004,33.5L36.083330000000004,26Q36.083330000000004,25.9015086,36.06412,25.80491Q36.0449,25.708311,36.00721,25.617317Q35.96952,25.526322,35.9148,25.44443Q35.860079999999996,25.362537,35.790440000000004,25.292893Q35.7208,25.223249,35.6389,25.16853Q35.55701,25.113812,35.46602,25.076121Q35.37502,25.038429999999998,35.27842,25.019215Q35.18182,25,35.083330000000004,25Q34.98484,25,34.888239999999996,25.019215Q34.79164,25.038429999999998,34.70065,25.076121Q34.60965,25.113812,34.52776,25.16853Q34.44587,25.223249,34.37623,25.292893Q34.30658,25.362537,34.25186,25.44443Q34.19714,25.526322,34.15945,25.617317Q34.12176,25.708311,34.10255,25.80491Q34.083330000000004,25.9015086,34.083330000000004,26L34.083330000000004,33.5Q34.083330000000004,33.77616,33.88808,33.97141Q33.69283,34.166669999999996,33.416669999999996,34.166669999999996Z" fill-rule="evenodd" fill="#222222" fill-opacity="1"/></g><g><path d="M7.8125,36L13.25,36Q13.341750000000001,36,13.43196,35.9833Q13.51747,35.9675,13.59896,35.9371Q13.68045,35.906800000000004,13.75548,35.8628Q13.83051,35.8189,13.89682,35.7626Q13.96314,35.7064,14.01875,35.6395Q14.07436,35.5727,14.1176,35.497299999999996Q14.16084,35.421800000000005,14.19041,35.34Q14.21998,35.2583,14.23499,35.1726Q14.25,35.087,14.25,35Q14.25,34.9015,14.23078,34.8049Q14.21157,34.7083,14.17388,34.6173Q14.13619,34.5263,14.08147,34.4444Q14.02675,34.3625,13.95711,34.2929Q13.88746,34.2232,13.80557,34.1685Q13.72368,34.1138,13.63268,34.0761Q13.54169,34.038399999999996,13.44509,34.0192Q13.34849,34,13.25,34L7.8125,34Q7.41251,34,7.1555599999999995,33.794399999999996Q7,33.67,7,33.55L7,7.45Q7,7.33001,7.1555599999999995,7.20556Q7.41252,7,7.8125,7L33.1875,7Q33.5875,7,33.8444,7.20556Q34,7.33001,34,7.45L34,14.7Q34,14.79849,34.0192,14.89509Q34.038399999999996,14.99169,34.0761,15.08268Q34.1138,15.17368,34.1685,15.25557Q34.2232,15.33746,34.2929,15.40711Q34.3625,15.47675,34.4444,15.53147Q34.5263,15.58619,34.6173,15.62388Q34.7083,15.66157,34.8049,15.68078Q34.9015,15.7,35,15.7Q35.0985,15.7,35.1951,15.68078Q35.2917,15.66157,35.3827,15.62388Q35.4737,15.58619,35.5556,15.53147Q35.6375,15.47675,35.7071,15.40711Q35.776700000000005,15.33746,35.8315,15.25557Q35.8862,15.17368,35.9239,15.08268Q35.961600000000004,14.99169,35.9808,14.89509Q36,14.79849,36,14.7L36,7.45Q36,6.368764,35.0938,5.643829Q34.289100000000005,5,33.1875,5L7.8125,5Q6.710956,5,5.9061735,5.643826Q5,6.368765,5,7.45L5,33.55Q5,34.6312,5.9061768,35.3562Q6.710957,36,7.8125,36Z" fill-rule="evenodd" fill="#222222" fill-opacity="1"/></g><g><path d="M13,13L24.6667,13Q24.7652,13,24.861800000000002,12.980785000000001Q24.958399999999997,12.96157,25.049300000000002,12.923879Q25.1403,12.886188,25.2222,12.83147Q25.3041,12.776751,25.3738,12.707107Q25.4434,12.637463,25.4981,12.55557Q25.5529,12.473678,25.5905,12.382683Q25.6282,12.291689,25.6475,12.19509Q25.6667,12.0984914,25.6667,12Q25.6667,11.9015086,25.6475,11.80491Q25.6282,11.708311,25.5905,11.617317Q25.5529,11.526322,25.4981,11.44443Q25.4434,11.362537,25.3738,11.292893Q25.3041,11.223249,25.2222,11.16853Q25.1403,11.113812,25.049300000000002,11.076121Q24.958399999999997,11.03843,24.861800000000002,11.019214999999999Q24.7652,11,24.6667,11L13,11Q12.9015086,11,12.80491,11.019214999999999Q12.708311,11.03843,12.617317,11.076121Q12.526322,11.113812,12.44443,11.16853Q12.362537,11.223249,12.292893,11.292893Q12.223249,11.362537,12.16853,11.44443Q12.113812,11.526322,12.076121,11.617317Q12.03843,11.708311,12.019214999999999,11.80491Q12,11.9015086,12,12Q12,12.0984914,12.019214999999999,12.19509Q12.03843,12.291689,12.076121,12.382683Q12.113812,12.473678,12.16853,12.55557Q12.223249,12.637463,12.292893,12.707107Q12.362537,12.776751,12.44443,12.83147Q12.526322,12.886188,12.617317,12.923879Q12.708311,12.96157,12.80491,12.980785000000001Q12.9015086,13,13,13Z" fill-rule="evenodd" fill="#222222" fill-opacity="1"/></g><g><path d="M34.11018701171875,19.79642475292969L34.11058701171875,19.795869752929686Q34.112187011718746,19.793911752929688,34.11378701171875,19.791946752929686Q34.22038701171875,19.658891752929687,34.27688701171875,19.498028752929688Q34.33338701171875,19.337166752929686,34.33338701171875,19.16667175292969Q34.33338701171875,19.054925752929687,34.308687011718746,18.945936752929686Q34.28398701171875,18.83694775292969,34.23588701171875,18.73609175292969Q34.187787011718754,18.635235752929688,34.11858701171875,18.547487752929687Q34.04938701171875,18.45973975292969,33.96258701171875,18.389429752929686Q33.958087011718746,18.385812752929688,33.95358701171875,18.382249752929688Q33.82118701171875,18.27753375292969,33.66168701171875,18.222102752929686Q33.502187011718746,18.166671752929688,33.33338701171875,18.166671752929688Q33.28088701171875,18.166671752929688,33.22868701171875,18.172165752929686L33.22638701171875,18.172410752929686Q33.02918701171875,18.193627752929686,32.85508701171875,18.28848275292969Q32.68088701171875,18.383336752929686,32.55608701171875,18.53747375292969L32.555687011718746,18.538028752929687L18.38972101171875,36.03717175292969L18.38944201171875,36.03747175292969Q18.28135201171875,36.17097175292969,18.22401901171875,36.33297175292969Q18.16668701171875,36.49487175292968,18.16668701171875,36.66667175292969L18.16672201171875,36.67507175292969Q18.16712601171875,36.72337175292969,18.17218201171875,36.77137175292969Q18.19300501171875,36.96917175292968,18.28794501171875,37.14397175292969Q18.38288501171875,37.31877175292969,18.53748901171875,37.44387175292969Q18.67101201171875,37.55197175292969,18.83295401171875,37.60937175292969Q18.99489601171875,37.66667175292969,19.16668701171875,37.66667175292969L19.16810297171875,37.66667175292969Q19.27967001171875,37.66647175292969,19.38845801171875,37.641771752929685Q19.49724701171875,37.61707175292969,19.59790801171875,37.56887175292969Q19.69856901171875,37.52077175292969,19.78615101171875,37.451671752929684Q19.87373401171875,37.38257175292969,19.94393201171875,37.295871752929685L19.94421001171875,37.29557175292969L34.11018701171875,19.79642475292969Z" fill-rule="evenodd" fill="#222222" fill-opacity="1"/></g><g><path d="M13,19.666671752929688L19.66667,19.666671752929688Q19.76516,19.666671752929688,19.86176,19.64745675292969Q19.95835,19.62824175292969,20.04935,19.590550752929687Q20.140340000000002,19.552859752929688,20.22224,19.498141752929687Q20.30413,19.44342275292969,20.37377,19.373778752929688Q20.44342,19.304134752929688,20.49814,19.222241752929687Q20.55285,19.140349752929687,20.59055,19.049354752929688Q20.628239999999998,18.95836075292969,20.64745,18.861761752929688Q20.66667,18.765163152929688,20.66667,18.666671752929688Q20.66667,18.568180352929687,20.64745,18.471581752929687Q20.628239999999998,18.374982752929686,20.59055,18.283988752929687Q20.55285,18.192993752929688,20.49814,18.111101752929688Q20.44342,18.029208752929687,20.37377,17.959564752929687Q20.30413,17.889920752929687,20.22224,17.835201752929688Q20.140340000000002,17.780483752929687,20.04935,17.742792752929688Q19.95835,17.705101752929686,19.86176,17.685886752929687Q19.76516,17.666671752929688,19.66667,17.666671752929688L13,17.666671752929688Q12.9015086,17.666671752929688,12.80491,17.685886752929687Q12.708311,17.705101752929686,12.617317,17.742792752929688Q12.526322,17.780483752929687,12.44443,17.835201752929688Q12.362537,17.889920752929687,12.292893,17.959564752929687Q12.223249,18.029208752929687,12.16853,18.111101752929688Q12.113812,18.192993752929688,12.076121,18.283988752929687Q12.03843,18.374982752929686,12.019214999999999,18.471581752929687Q12,18.568180352929687,12,18.666671752929688Q12,18.765163152929688,12.019214999999999,18.861761752929688Q12.03843,18.95836075292969,12.076121,19.049354752929688Q12.113812,19.140349752929687,12.16853,19.222241752929687Q12.223249,19.304134752929688,12.292893,19.373778752929688Q12.362537,19.44342275292969,12.44443,19.498141752929687Q12.526322,19.552859752929688,12.617317,19.590550752929687Q12.708311,19.62824175292969,12.80491,19.64745675292969Q12.9015086,19.666671752929688,13,19.666671752929688Z" fill-rule="evenodd" fill="#222222" fill-opacity="1"/></g></g></svg>