<svg xmlns="http://www.w3.org/2000/svg" xmlns:xlink="http://www.w3.org/1999/xlink" fill="none" version="1.1" width="40" height="40" viewBox="0 0 40 40"><defs><clipPath id="master_svg0_18_04"><rect x="0" y="0" width="40" height="40" rx="0"/></clipPath></defs><g clip-path="url(#master_svg0_18_04)"><g><rect x="0" y="0" width="40" height="40" rx="0" fill="#FFFFFF" fill-opacity="0.009999999776482582"/></g><g><path d="M6,18L6,35Q6,36,7,36L33,36Q34,36,34,35L34,18L36,18L36,35Q36,36.242599999999996,35.121300000000005,37.121300000000005Q34.242599999999996,38,33,38L7,38Q5.757358,38,4.87868,37.121300000000005Q4,36.242599999999996,4,35L4,18L6,18ZM6,18Q6,18.0984914,5.980785,18.19509Q5.96157,18.291689,5.923879,18.382683Q5.886188,18.473678,5.83147,18.55557Q5.776751,18.637463,5.707107,18.707107Q5.637463,18.776751,5.55557,18.83147Q5.473678,18.886188,5.382683,18.923879Q5.291689,18.961570000000002,5.19509,18.980785Q5.0984914,19,5,19Q4.9015086,19,4.80491,18.980785Q4.708311,18.961570000000002,4.617317,18.923879Q4.526322,18.886188,4.44443,18.83147Q4.362537,18.776751,4.292893,18.707107Q4.223249,18.637463,4.16853,18.55557Q4.113812,18.473678,4.076121,18.382683Q4.03843,18.291689,4.019215,18.19509Q4,18.0984914,4,18Q4,17.9015086,4.019215,17.80491Q4.03843,17.708311,4.076121,17.617317Q4.113812,17.526322,4.16853,17.44443Q4.223249,17.362537,4.292893,17.292893Q4.362537,17.223249,4.44443,17.16853Q4.526322,17.113812,4.617317,17.076121Q4.708311,17.038429999999998,4.80491,17.019215Q4.9015086,17,5,17Q5.0984914,17,5.19509,17.019215Q5.291689,17.038429999999998,5.382683,17.076121Q5.473678,17.113812,5.55557,17.16853Q5.637463,17.223249,5.707107,17.292893Q5.776751,17.362537,5.83147,17.44443Q5.886188,17.526322,5.923879,17.617317Q5.96157,17.708311,5.980785,17.80491Q6,17.9015086,6,18ZM36,18Q36,18.0984914,35.9808,18.19509Q35.961600000000004,18.291689,35.9239,18.382683Q35.8862,18.473678,35.8315,18.55557Q35.776700000000005,18.637463,35.7071,18.707107Q35.6375,18.776751,35.5556,18.83147Q35.4737,18.886188,35.3827,18.923879Q35.2917,18.961570000000002,35.1951,18.980785Q35.0985,19,35,19Q34.9015,19,34.8049,18.980785Q34.7083,18.961570000000002,34.6173,18.923879Q34.5263,18.886188,34.4444,18.83147Q34.3625,18.776751,34.2929,18.707107Q34.2232,18.637463,34.1685,18.55557Q34.1138,18.473678,34.0761,18.382683Q34.038399999999996,18.291689,34.0192,18.19509Q34,18.0984914,34,18Q34,17.9015086,34.0192,17.80491Q34.038399999999996,17.708311,34.0761,17.617317Q34.1138,17.526322,34.1685,17.44443Q34.2232,17.362537,34.2929,17.292893Q34.3625,17.223249,34.4444,17.16853Q34.5263,17.113812,34.6173,17.076121Q34.7083,17.038429999999998,34.8049,17.019215Q34.9015,17,35,17Q35.0985,17,35.1951,17.019215Q35.2917,17.038429999999998,35.3827,17.076121Q35.4737,17.113812,35.5556,17.16853Q35.6375,17.223249,35.7071,17.292893Q35.776700000000005,17.362537,35.8315,17.44443Q35.8862,17.526322,35.9239,17.617317Q35.961600000000004,17.708311,35.9808,17.80491Q36,17.9015086,36,18Z" fill="#333333" fill-opacity="1"/></g><g><path d="M6.22987,3.370166L3.32479,10.660730000000001Q2.41751,12.93768,3.85618,14.9577Q5.31065,17,7.87807,17Q9.88025,17,11.29697,15.6329Q12.7004,14.2786,12.7004,12.375L13.7004,12.375L14.7004,12.375Q14.7004,14.2815,16.0964,15.6343Q17.5056,17,19.5049,17L20.4901,17Q22.4893,17,23.8986,15.6343Q25.2946,14.2815,25.2946,12.375L26.2946,12.375L27.2946,12.375Q27.2946,14.2784,28.6984,15.6328Q30.1156,17,32.117999999999995,17Q34.6872,17,36.143,14.9563Q37.583,12.93483,36.6749,10.65681L33.7703,3.370297L34.6992,3L34.6992,4L5.3009,4L5.3009,3L6.22987,3.370166ZM4.37194,2.629834Q4.39956,2.560521,4.43716,2.496074Q4.47476,2.4316269999999998,4.5215,2.373473Q4.56825,2.315319,4.6231100000000005,2.264747Q4.67797,2.214174,4.73973,2.172303Q4.801489999999999,2.1304309999999997,4.86877,2.098189Q4.9360599999999994,2.065946,5.00739,2.044046Q5.07871,2.022145,5.1525,2.011073Q5.2262900000000005,2,5.3009,2L34.6992,2Q34.7738,2,34.8476,2.01107Q34.9214,2.0221400000000003,34.9927,2.044035Q35.064,2.06593,35.1313,2.098166Q35.1986,2.130401,35.2603,2.172263Q35.3221,2.214125,35.3769,2.264687Q35.4318,2.315248,35.4785,2.37339Q35.5253,2.431532,35.5629,2.4959670000000003Q35.6005,2.560402,35.6281,2.629703L38.5328,9.916260000000001Q39.8446,13.2071,37.772,16.1167Q35.718,19,32.117999999999995,19Q29.3081,19,27.3098,17.072200000000002Q25.2946,15.128,25.2946,12.375Q25.2946,12.27651,25.3138,12.17991Q25.333,12.08331,25.3707,11.99232Q25.4084,11.90132,25.4631,11.81943Q25.5178,11.73754,25.5875,11.66789Q25.6571,11.59825,25.739,11.54353Q25.8209,11.48881,25.9119,11.45112Q26.0029,11.41343,26.0995,11.39421Q26.1961,11.375,26.2946,11.375Q26.3931,11.375,26.4897,11.39421Q26.5863,11.41343,26.6773,11.45112Q26.7683,11.48881,26.8502,11.54353Q26.932,11.59825,27.0017,11.66789Q27.0713,11.73754,27.126,11.81943Q27.1808,11.90132,27.2185,11.99232Q27.2561,12.08331,27.2754,12.17991Q27.2946,12.27651,27.2946,12.375Q27.2946,15.1284,25.2904,17.0706Q23.2994,19,20.4901,19L19.5049,19Q16.6955,19,14.7046,17.0706Q12.7004,15.1284,12.7004,12.375Q12.7004,12.27651,12.7196,12.17991Q12.7388,12.08331,12.7765,11.99232Q12.8142,11.90132,12.8689,11.81943Q12.9236,11.73754,12.9933,11.66789Q13.0629,11.59825,13.1448,11.54353Q13.2267,11.48881,13.3177,11.45112Q13.4087,11.41343,13.5053,11.39421Q13.6019,11.375,13.7004,11.375Q13.7989,11.375,13.8955,11.39421Q13.9921,11.41343,14.0831,11.45112Q14.174,11.48881,14.2559,11.54353Q14.3378,11.59825,14.4075,11.66789Q14.4771,11.73754,14.5318,11.81943Q14.5866,11.90132,14.6242,11.99232Q14.6619,12.08331,14.6812,12.17991Q14.7004,12.27651,14.7004,12.375Q14.7004,15.128,12.6858,17.0721Q10.68788,19,7.87807,19Q4.27966,19,2.227102,16.118000000000002Q0.15606999999999993,13.21,1.466863,9.9204L4.37194,2.629834Z" fill="#333333" fill-opacity="1"/></g></g></svg>