<svg xmlns="http://www.w3.org/2000/svg" xmlns:xlink="http://www.w3.org/1999/xlink" fill="none" version="1.1" width="40" height="40" viewBox="0 0 40 40"><defs><clipPath id="master_svg0_166_242"><rect x="0" y="0" width="40" height="40" rx="0"/></clipPath></defs><g clip-path="url(#master_svg0_166_242)"><g><path d="M7.862355258789062,34.4179L5.3302942587890625,16.4179Q5.1398332587890625,15.06393,6.036792758789063,14.0319663Q6.933752258789062,13,8.301045258789063,13L31.699015258789064,13Q33.06631525878906,13,33.96321525878906,14.031966Q34.86021525878906,15.06393,34.66971525878906,16.4179L32.13771525878906,34.4179Q31.981415258789063,35.5285,31.13491525878906,36.2643Q30.28851525878906,37,29.16691525878906,37L10.833105258789063,37Q9.711555258789062,37,8.865065258789063,36.2643Q8.018585258789063,35.5285,7.862355258789062,34.4179L7.862355258789062,34.4179ZM9.842855258789061,34.1393Q9.894925258789062,34.5095,10.177095258789063,34.7548Q10.459255258789064,35,10.833105258789063,35L29.16691525878906,35Q29.540815258789063,35,29.822915258789063,34.7548Q30.105115258789063,34.5095,30.157215258789062,34.1393L32.68921525878906,16.1393Q32.75271525878907,15.68798,32.45371525878906,15.34399Q32.15471525878906,15,31.699015258789064,15L8.301045258789063,15Q7.845285258789063,15,7.546295258789063,15.34399Q7.247305258789062,15.68798,7.310795258789063,16.1393L9.842855258789061,34.1393L9.842855258789061,34.1393Z" fill="#222222" fill-opacity="1"/></g><g><path d="M10.000015258789062,14Q10.000015258789062,11.78161,10.772708258789063,9.75179Q11.522256258789062,7.78276,12.892775258789062,6.25997Q14.273545258789063,4.725779,16.07148525878906,3.880816Q17.945715258789065,3.000001,20.000015258789062,3.000001Q22.05431525878906,3,23.928515258789062,3.880814Q25.726515258789064,4.725779,27.10721525878906,6.25997Q28.47781525878906,7.78277,29.227315258789062,9.75179Q30.000015258789062,11.78161,30.000015258789062,14Q30.000015258789062,14.0985,29.98081525878906,14.1951Q29.961615258789063,14.2917,29.923915258789062,14.3827Q29.88621525878906,14.4737,29.83151525878906,14.5556Q29.776715258789064,14.6375,29.707115258789063,14.7071Q29.637515258789062,14.7767,29.55561525878906,14.8315Q29.473715258789063,14.8862,29.382715258789062,14.9239Q29.29171525878906,14.9616,29.195115258789063,14.9808Q29.098515258789064,15,29.000015258789062,15Q28.90151525878906,15,28.804915258789062,14.9808Q28.708315258789064,14.9616,28.617315258789063,14.9239Q28.52631525878906,14.8862,28.444415258789064,14.8315Q28.362515258789063,14.7767,28.292915258789062,14.7071Q28.22321525878906,14.6375,28.168515258789064,14.5556Q28.113815258789064,14.4737,28.076115258789063,14.3827Q28.038415258789062,14.2917,28.019215258789064,14.1951Q28.000015258789062,14.0985,28.000015258789062,14Q28.000015258789062,10.24161,25.620715258789062,7.5979Q23.28251525878906,5,20.000015258789062,5Q16.71747525878906,5,14.379355258789062,7.5979Q12.000015258789062,10.24161,12.000015258789062,14Q12.000015258789062,14.0985,11.980800258789063,14.1951Q11.961585258789063,14.2917,11.923894258789062,14.3827Q11.886203258789063,14.4737,11.831485258789062,14.5556Q11.776766258789063,14.6375,11.707122258789063,14.7071Q11.637478258789063,14.7767,11.555585258789062,14.8315Q11.473693258789062,14.8862,11.382698258789063,14.9239Q11.291704258789062,14.9616,11.195105258789063,14.9808Q11.098506658789063,15,11.000015258789062,15Q10.901523858789062,15,10.804925258789062,14.9808Q10.708326258789063,14.9616,10.617332258789062,14.9239Q10.526337258789063,14.8862,10.444445258789063,14.8315Q10.362552258789062,14.7767,10.292908258789062,14.7071Q10.223264258789062,14.6375,10.168545258789063,14.5556Q10.113827258789062,14.4737,10.076136258789063,14.3827Q10.038445258789062,14.2917,10.019230258789062,14.1951Q10.000015258789062,14.0985,10.000015258789062,14ZM12.000015258789062,14Q12.000015258789062,14.0985,11.980800258789063,14.1951Q11.961585258789063,14.2917,11.923894258789062,14.3827Q11.886203258789063,14.4737,11.831485258789062,14.5556Q11.776766258789063,14.6375,11.707122258789063,14.7071Q11.637478258789063,14.7767,11.555585258789062,14.8315Q11.473693258789062,14.8862,11.382698258789063,14.9239Q11.291704258789062,14.9616,11.195105258789063,14.9808Q11.098506658789063,15,11.000015258789062,15Q10.901523858789062,15,10.804925258789062,14.9808Q10.708326258789063,14.9616,10.617332258789062,14.9239Q10.526337258789063,14.8862,10.444445258789063,14.8315Q10.362552258789062,14.7767,10.292908258789062,14.7071Q10.223264258789062,14.6375,10.168545258789063,14.5556Q10.113827258789062,14.4737,10.076136258789063,14.3827Q10.038445258789062,14.2917,10.019230258789062,14.1951Q10.000015258789062,14.0985,10.000015258789062,14Q10.000015258789062,13.90151,10.019230258789062,13.80491Q10.038445258789062,13.70831,10.076136258789063,13.61732Q10.113827258789062,13.52632,10.168545258789063,13.44443Q10.223264258789062,13.36254,10.292908258789062,13.29289Q10.362552258789062,13.22325,10.444445258789063,13.16853Q10.526337258789063,13.11381,10.617332258789062,13.07612Q10.708326258789063,13.03843,10.804925258789062,13.01921Q10.901523858789062,13,11.000015258789062,13Q11.098506658789063,13,11.195105258789063,13.01921Q11.291704258789062,13.03843,11.382698258789063,13.07612Q11.473693258789062,13.11381,11.555585258789062,13.16853Q11.637478258789063,13.22325,11.707122258789063,13.29289Q11.776766258789063,13.36254,11.831485258789062,13.44443Q11.886203258789063,13.52632,11.923894258789062,13.61732Q11.961585258789063,13.70831,11.980800258789063,13.80491Q12.000015258789062,13.90151,12.000015258789062,14ZM30.000015258789062,14Q30.000015258789062,14.0985,29.98081525878906,14.1951Q29.961615258789063,14.2917,29.923915258789062,14.3827Q29.88621525878906,14.4737,29.83151525878906,14.5556Q29.776715258789064,14.6375,29.707115258789063,14.7071Q29.637515258789062,14.7767,29.55561525878906,14.8315Q29.473715258789063,14.8862,29.382715258789062,14.9239Q29.29171525878906,14.9616,29.195115258789063,14.9808Q29.098515258789064,15,29.000015258789062,15Q28.90151525878906,15,28.804915258789062,14.9808Q28.708315258789064,14.9616,28.617315258789063,14.9239Q28.52631525878906,14.8862,28.444415258789064,14.8315Q28.362515258789063,14.7767,28.292915258789062,14.7071Q28.22321525878906,14.6375,28.168515258789064,14.5556Q28.113815258789064,14.4737,28.076115258789063,14.3827Q28.038415258789062,14.2917,28.019215258789064,14.1951Q28.000015258789062,14.0985,28.000015258789062,14Q28.000015258789062,13.90151,28.019215258789064,13.80491Q28.038415258789062,13.70831,28.076115258789063,13.61732Q28.113815258789064,13.52632,28.168515258789064,13.44443Q28.22321525878906,13.36254,28.292915258789062,13.29289Q28.362515258789063,13.22325,28.444415258789064,13.16853Q28.52631525878906,13.11381,28.617315258789063,13.07612Q28.708315258789064,13.03843,28.804915258789062,13.01921Q28.90151525878906,13,29.000015258789062,13Q29.098515258789064,13,29.195115258789063,13.01921Q29.29171525878906,13.03843,29.382715258789062,13.07612Q29.473715258789063,13.11381,29.55561525878906,13.16853Q29.637515258789062,13.22325,29.707115258789063,13.29289Q29.776715258789064,13.36254,29.83151525878906,13.44443Q29.88621525878906,13.52632,29.923915258789062,13.61732Q29.961615258789063,13.70831,29.98081525878906,13.80491Q30.000015258789062,13.90151,30.000015258789062,14Z" fill="#222222" fill-opacity="1"/></g><g><ellipse cx="14.166666626930237" cy="21.666666626930237" rx="1.6666666269302368" ry="1.6666666269302368" fill="#222222" fill-opacity="1"/></g><g><path d="M25.8321,28.0547Q23.86852,31,20,31Q16.13148,31,14.16795,28.0547Q14.113317,27.97275,14.075721,27.881717Q14.038125,27.790683,14.019011,27.694064Q13.9999,27.5974453,14.000001,27.49895397Q14.000104,27.4004626,14.019419,27.303884Q14.038734999999999,27.207305,14.076521,27.11635Q14.114308,27.025396,14.169112,26.94356Q14.223917,26.861725,14.293633,26.792154Q14.36335,26.722583,14.4453,26.66795Q14.52725,26.613317,14.618283,26.575721Q14.709317,26.538125,14.805936,26.519011Q14.9025547,26.4999,15.00104603,26.500001Q15.099537399999999,26.500104,15.196116,26.519419Q15.292695,26.538735,15.38365,26.576521Q15.474604,26.614308,15.55644,26.669112Q15.638275,26.723917,15.707846,26.793633Q15.777417,26.86335,15.83205,26.9453Q17.20185,29,20,29Q22.79815,29,24.167949999999998,26.9453Q24.22258,26.86335,24.29215,26.793633Q24.36172,26.723917,24.443559999999998,26.669112Q24.525399999999998,26.614308,24.61635,26.576521Q24.7073,26.538735,24.80388,26.519419Q24.900460000000002,26.500104,24.99895,26.500001Q25.0974,26.4999,25.1941,26.519011Q25.2907,26.538125,25.381700000000002,26.575721Q25.4727,26.613317,25.5547,26.66795Q25.6366,26.722583,25.706400000000002,26.792154Q25.7761,26.861725,25.8309,26.94356Q25.8857,27.025396,25.9235,27.11635Q25.9613,27.207305,25.980600000000003,27.303884Q25.9999,27.4004627,26,27.49895405Q26.0001,27.5974454,25.981,27.694064Q25.9619,27.790683,25.924300000000002,27.881717Q25.886699999999998,27.97275,25.8321,28.0547ZM26,27.5Q26,27.5984914,25.980800000000002,27.69509Q25.9616,27.791689,25.9239,27.882683Q25.886200000000002,27.973678,25.8315,28.05557Q25.776699999999998,28.137463,25.7071,28.207107Q25.6375,28.276751,25.5556,28.33147Q25.4737,28.386188,25.3827,28.423879Q25.2917,28.461570000000002,25.1951,28.480785Q25.0985,28.5,25,28.5Q24.901510000000002,28.5,24.80491,28.480785Q24.70831,28.461570000000002,24.61732,28.423879Q24.52632,28.386188,24.44443,28.33147Q24.36254,28.276751,24.29289,28.207107Q24.22325,28.137463,24.16853,28.05557Q24.11381,27.973678,24.07612,27.882683Q24.038429999999998,27.791689,24.01921,27.69509Q24,27.5984914,24,27.5Q24,27.4015086,24.01921,27.30491Q24.038429999999998,27.208311,24.07612,27.117317Q24.11381,27.026322,24.16853,26.94443Q24.22325,26.862537,24.29289,26.792893Q24.36254,26.723249,24.44443,26.66853Q24.52632,26.613812,24.61732,26.576121Q24.70831,26.538429999999998,24.80491,26.519215Q24.901510000000002,26.5,25,26.5Q25.0985,26.5,25.1951,26.519215Q25.2917,26.538429999999998,25.3827,26.576121Q25.4737,26.613812,25.5556,26.66853Q25.6375,26.723249,25.7071,26.792893Q25.776699999999998,26.862537,25.8315,26.94443Q25.886200000000002,27.026322,25.9239,27.117317Q25.9616,27.208311,25.980800000000002,27.30491Q26,27.4015086,26,27.5ZM16,27.5Q16,27.5984914,15.980785000000001,27.69509Q15.96157,27.791689,15.923879,27.882683Q15.886188,27.973678,15.83147,28.05557Q15.776751,28.137463,15.707107,28.207107Q15.637463,28.276751,15.55557,28.33147Q15.473678,28.386188,15.382683,28.423879Q15.291689,28.461570000000002,15.19509,28.480785Q15.0984914,28.5,15,28.5Q14.9015086,28.5,14.80491,28.480785Q14.708311,28.461570000000002,14.617317,28.423879Q14.526322,28.386188,14.44443,28.33147Q14.362537,28.276751,14.292893,28.207107Q14.223249,28.137463,14.16853,28.05557Q14.113812,27.973678,14.076121,27.882683Q14.03843,27.791689,14.019214999999999,27.69509Q14,27.5984914,14,27.5Q14,27.4015086,14.019214999999999,27.30491Q14.03843,27.208311,14.076121,27.117317Q14.113812,27.026322,14.16853,26.94443Q14.223249,26.862537,14.292893,26.792893Q14.362537,26.723249,14.44443,26.66853Q14.526322,26.613812,14.617317,26.576121Q14.708311,26.538429999999998,14.80491,26.519215Q14.9015086,26.5,15,26.5Q15.0984914,26.5,15.19509,26.519215Q15.291689,26.538429999999998,15.382683,26.576121Q15.473678,26.613812,15.55557,26.66853Q15.637463,26.723249,15.707107,26.792893Q15.776751,26.862537,15.83147,26.94443Q15.886188,27.026322,15.923879,27.117317Q15.96157,27.208311,15.980785000000001,27.30491Q16,27.4015086,16,27.5Z" fill="#222222" fill-opacity="1"/></g><g><ellipse cx="25.83336889743805" cy="21.666666626930237" rx="1.6666666269302368" ry="1.6666666269302368" fill="#222222" fill-opacity="1"/></g></g></svg>