<svg xmlns="http://www.w3.org/2000/svg" xmlns:xlink="http://www.w3.org/1999/xlink" fill="none" version="1.1" width="40" height="40" viewBox="0 0 40 40"><defs><clipPath id="master_svg0_207_368"><rect x="0" y="0" width="40" height="40" rx="0"/></clipPath></defs><g clip-path="url(#master_svg0_207_368)"><g><path d="M27.424,9.26563896484375L30.0825,15.39769896484375Q30.1616,15.580198964843749,30.3046,15.718528964843749Q30.4475,15.856858964843749,30.6325,15.929958964843749Q30.8096,15.99993896484375,31,15.99993896484375Q31.0082,15.99993896484375,31.0164,15.99980896484375Q31.2153,15.99654896484375,31.3978,15.91742896484375Q31.4645,15.88849896484375,31.5263,15.85020896484375Q31.5882,15.81192896484375,31.6438,15.76509896484375Q31.6995,15.71826896484375,31.7478,15.66387896484375Q31.7961,15.609488964843749,31.836,15.548678964843749Q31.8759,15.48787896484375,31.9066,15.42193896484375Q31.9373,15.35599896484375,31.9581,15.28630896484375Q31.9789,15.21661896484375,31.9895,15.14464896484375Q32,15.07267896484375,32,14.99994896484375Q32,14.98387896484375,31.9995,14.96782896484375Q31.9934,14.777178964843749,31.9175,14.60217896484375L28.8827,7.60217396484375Q28.8449,7.51502196484375,28.7914,7.43654196484375Q28.7379,7.35806196484375,28.6706,7.29106196484375Q28.6032,7.22406196484375,28.5245,7.17093896484375Q28.4457,7.11781596484375,28.3584,7.0804689648437495Q28.2711,7.04312296484375,28.1783,7.02288896484375Q28.0854,7.00265496484375,27.9905,7.00025696484375Q27.8955,6.99785896484375,27.8018,7.01338496484375Q27.7081,7.02890996484375,27.619,7.06180196484375L8.653737,14.06179896484375Q8.467130000000001,14.13067896484375,8.321085,14.26571896484375Q8.175041,14.40076896484375,8.091792,14.581418964843749Q8,14.78060896484375,8,14.99993896484375L8.000056,15.01053896484375Q8.001893,15.18372896484375,8.061863,15.346198964843751Q8.088256,15.41770896484375,8.125182,15.484388964843749Q8.162108,15.55106896484375,8.208714,15.61138896484375Q8.25532,15.671698964843749,8.31053,15.72424896484375Q8.365739,15.776808964843749,8.428276,15.820388964843751Q8.490812,15.86396896484375,8.559232,15.89755896484375Q8.627651,15.93115896484375,8.700372,15.95399896484375Q8.773093,15.97683896484375,8.848435,15.98838896484375Q8.9237772,15.99993896484375,9,15.99993896484375L9.00138444,15.99993896484375Q9.179328,15.999688964843749,9.346263,15.93807896484375L27.424,9.26563896484375Z" fill-rule="evenodd" fill="#222222" fill-opacity="1"/></g><g><path d="M4,14.99993896484375L4,19.49993896484375Q4,19.598428964843748,4.019215,19.69502896484375Q4.03843,19.79162896484375,4.076121,19.88261896484375Q4.113812,19.97361896484375,4.16853,20.05550896484375Q4.223249,20.13739896484375,4.292893,20.20704896484375Q4.362537,20.27668896484375,4.44443,20.33140896484375Q4.526322,20.38612896484375,4.617317,20.42381896484375Q4.708311,20.461508964843752,4.80491,20.48071896484375Q4.9015086,20.49993896484375,5,20.49993896484375Q6.51813,20.49993896484375,7.54474,21.38303896484375Q8.65,22.33379896484375,8.65,23.99993896484375Q8.65,25.66613896484375,7.544779999999999,26.61683896484375Q6.5182,27.49993896484375,5,27.49993896484375Q4.9015086,27.49993896484375,4.80491,27.519138964843748Q4.708311,27.53833896484375,4.617317,27.57603896484375Q4.526322,27.613738964843748,4.44443,27.66843896484375Q4.362537,27.72313896484375,4.292893,27.79283896484375Q4.223249,27.86243896484375,4.16853,27.94433896484375Q4.113812,28.02623896484375,4.076121,28.11723896484375Q4.03843,28.20823896484375,4.019215,28.30483896484375Q4,28.40143896484375,4,28.49993896484375L4,32.99993896484375Q4,33.09843896484375,4.019215,33.19503896484375Q4.03843,33.29163896484375,4.076121,33.38263896484375Q4.113812,33.47363896484375,4.16853,33.55553896484375Q4.223249,33.63743896484375,4.292893,33.70703896484375Q4.362537,33.776638964843755,4.44443,33.83143896484375Q4.526322,33.88613896484375,4.617317,33.92383896484375Q4.708311,33.961538964843754,4.80491,33.98073896484375Q4.9015086,33.99993896484375,5,33.99993896484375L36,33.99993896484375Q36.0985,33.99993896484375,36.1951,33.98073896484375Q36.2917,33.961538964843754,36.3827,33.92383896484375Q36.4737,33.88613896484375,36.5556,33.83143896484375Q36.6375,33.776638964843755,36.7071,33.70703896484375Q36.776700000000005,33.63743896484375,36.8315,33.55553896484375Q36.8862,33.47363896484375,36.9239,33.38263896484375Q36.961600000000004,33.29163896484375,36.9808,33.19503896484375Q37,33.09843896484375,37,32.99993896484375L37,28.49993896484375Q37,28.40143896484375,36.9808,28.30483896484375Q36.961600000000004,28.20823896484375,36.9239,28.11723896484375Q36.8862,28.02623896484375,36.8315,27.94433896484375Q36.776700000000005,27.86243896484375,36.7071,27.79283896484375Q36.6375,27.72313896484375,36.5556,27.66843896484375Q36.4737,27.613738964843748,36.3827,27.57603896484375Q36.2917,27.53833896484375,36.1951,27.519138964843748Q36.0985,27.49993896484375,36,27.49993896484375Q34.646100000000004,27.49993896484375,33.517700000000005,26.34723896484375Q32.35,25.15443896484375,32.35,23.62493896484375Q32.35,22.22814896484375,33.4309,21.35647896484375Q34.492999999999995,20.49993896484375,36,20.49993896484375Q36.0985,20.49993896484375,36.1951,20.48071896484375Q36.2917,20.461508964843752,36.3827,20.42381896484375Q36.4737,20.38612896484375,36.5556,20.33140896484375Q36.6375,20.27668896484375,36.7071,20.20704896484375Q36.776700000000005,20.13739896484375,36.8315,20.05550896484375Q36.8862,19.97361896484375,36.9239,19.88261896484375Q36.961600000000004,19.79162896484375,36.9808,19.69502896484375Q37,19.598428964843748,37,19.49993896484375L37,14.99993896484375Q37,14.90144756484375,36.9808,14.80484896484375Q36.961600000000004,14.70824996484375,36.9239,14.61725596484375Q36.8862,14.52626096484375,36.8315,14.44436896484375Q36.776700000000005,14.36247596484375,36.7071,14.29283196484375Q36.6375,14.22318796484375,36.5556,14.16846896484375Q36.4737,14.11375096484375,36.3827,14.07605996484375Q36.2917,14.03836896484375,36.1951,14.019153964843749Q36.0985,13.99993896484375,36,13.99993896484375L5,13.99993896484375Q4.9015086,13.99993896484375,4.80491,14.019153964843749Q4.708311,14.03836896484375,4.617317,14.07605996484375Q4.526322,14.11375096484375,4.44443,14.16846896484375Q4.362537,14.22318796484375,4.292893,14.29283196484375Q4.223249,14.36247596484375,4.16853,14.44436896484375Q4.113812,14.52626096484375,4.076121,14.61725596484375Q4.03843,14.70824996484375,4.019215,14.80484896484375Q4,14.90144756484375,4,14.99993896484375ZM6,18.57163896484375Q7.62392,18.81298896484375,8.84901,19.86683896484375Q10.65,21.41607896484375,10.65,23.99993896484375Q10.65,26.58383896484375,8.84906,28.13303896484375Q7.6239799999999995,29.186938964843748,6,29.42823896484375L6,31.99993896484375L35,31.99993896484375L35,29.40413896484375Q33.4039,29.09003896484375,32.088499999999996,27.74633896484375Q30.35,25.97043896484375,30.35,23.62493896484375Q30.35,21.27171896484375,32.175399999999996,19.79964896484375Q33.411,18.80320896484375,35,18.57069896484375L35,15.99993896484375L6,15.99993896484375L6,18.57163896484375Z" fill-rule="evenodd" fill="#222222" fill-opacity="1"/></g><g><path d="M15,22.99993896484375L20,22.99993896484375Q20.098489999999998,22.99993896484375,20.19509,22.98072396484375Q20.29169,22.961508964843752,20.38268,22.92381796484375Q20.47368,22.88612696484375,20.55557,22.83140896484375Q20.63746,22.77668996484375,20.70711,22.70704596484375Q20.77675,22.63740196484375,20.83147,22.55550896484375Q20.88619,22.47361696484375,20.92388,22.38262196484375Q20.961570000000002,22.29162796484375,20.98078,22.19502896484375Q21,22.09843036484375,21,21.99993896484375Q21,21.90144756484375,20.98078,21.80484896484375Q20.961570000000002,21.70824996484375,20.92388,21.61725596484375Q20.88619,21.52626096484375,20.83147,21.44436896484375Q20.77675,21.36247596484375,20.70711,21.29283196484375Q20.63746,21.22318796484375,20.55557,21.16846896484375Q20.47368,21.11375096484375,20.38268,21.07605996484375Q20.29169,21.038368964843748,20.19509,21.01915396484375Q20.098489999999998,20.99993896484375,20,20.99993896484375L15,20.99993896484375Q14.9015086,20.99993896484375,14.80491,21.01915396484375Q14.708311,21.038368964843748,14.617317,21.07605996484375Q14.526322,21.11375096484375,14.44443,21.16846896484375Q14.362537,21.22318796484375,14.292893,21.29283196484375Q14.223249,21.36247596484375,14.16853,21.44436896484375Q14.113812,21.52626096484375,14.076121,21.61725596484375Q14.03843,21.70824996484375,14.019214999999999,21.80484896484375Q14,21.90144756484375,14,21.99993896484375Q14,22.09843036484375,14.019214999999999,22.19502896484375Q14.03843,22.29162796484375,14.076121,22.38262196484375Q14.113812,22.47361696484375,14.16853,22.55550896484375Q14.223249,22.63740196484375,14.292893,22.70704596484375Q14.362537,22.77668996484375,14.44443,22.83140896484375Q14.526322,22.88612696484375,14.617317,22.92381796484375Q14.708311,22.961508964843752,14.80491,22.98072396484375Q14.9015086,22.99993896484375,15,22.99993896484375Z" fill-rule="evenodd" fill="#222222" fill-opacity="1"/></g><g><path d="M15,27.99993896484375L25,27.99993896484375Q25.0985,27.99993896484375,25.1951,27.98072396484375Q25.2917,27.961508964843752,25.3827,27.92381796484375Q25.4737,27.88612696484375,25.5556,27.83140896484375Q25.6375,27.77668996484375,25.7071,27.70704596484375Q25.776699999999998,27.63740196484375,25.8315,27.55550896484375Q25.886200000000002,27.47361696484375,25.9239,27.38262196484375Q25.9616,27.29162796484375,25.980800000000002,27.19502896484375Q26,27.09843036484375,26,26.99993896484375Q26,26.90144756484375,25.980800000000002,26.80484896484375Q25.9616,26.70824996484375,25.9239,26.61725596484375Q25.886200000000002,26.52626096484375,25.8315,26.44436896484375Q25.776699999999998,26.36247596484375,25.7071,26.29283196484375Q25.6375,26.22318796484375,25.5556,26.16846896484375Q25.4737,26.11375096484375,25.3827,26.07605996484375Q25.2917,26.038368964843748,25.1951,26.01915396484375Q25.0985,25.99993896484375,25,25.99993896484375L15,25.99993896484375Q14.9015086,25.99993896484375,14.80491,26.01915396484375Q14.708311,26.038368964843748,14.617317,26.07605996484375Q14.526322,26.11375096484375,14.44443,26.16846896484375Q14.362537,26.22318796484375,14.292893,26.29283196484375Q14.223249,26.36247596484375,14.16853,26.44436896484375Q14.113812,26.52626096484375,14.076121,26.61725596484375Q14.03843,26.70824996484375,14.019214999999999,26.80484896484375Q14,26.90144756484375,14,26.99993896484375Q14,27.09843036484375,14.019214999999999,27.19502896484375Q14.03843,27.29162796484375,14.076121,27.38262196484375Q14.113812,27.47361696484375,14.16853,27.55550896484375Q14.223249,27.63740196484375,14.292893,27.70704596484375Q14.362537,27.77668996484375,14.44443,27.83140896484375Q14.526322,27.88612696484375,14.617317,27.92381796484375Q14.708311,27.961508964843752,14.80491,27.98072396484375Q14.9015086,27.99993896484375,15,27.99993896484375Z" fill-rule="evenodd" fill="#222222" fill-opacity="1"/></g></g></svg>