<svg xmlns="http://www.w3.org/2000/svg" xmlns:xlink="http://www.w3.org/1999/xlink" fill="none" version="1.1" width="40" height="40" viewBox="0 0 40 40"><defs><clipPath id="master_svg0_202_319"><rect x="0" y="0" width="40" height="40" rx="0"/></clipPath></defs><g clip-path="url(#master_svg0_202_319)"><g><path d="M3,32.92901611328125L3,9.30401611328125Q3,8.19738311328125,3.768267,7.41165511328125Q4.545737,6.61651611328125,5.65,6.61651611328125L35.35,6.61651611328125Q36.4543,6.61651611328125,37.2317,7.41165811328125Q38,8.19738011328125,38,9.30401611328125L38,32.92901611328125Q38,34.035716113281254,37.2317,34.821416113281245Q36.4543,35.61651611328125,35.35,35.61651611328125L5.65,35.61651611328125Q4.545735,35.61651611328125,3.7682700000000002,34.821416113281245Q3,34.03561611328125,3,32.92901611328125L3,32.92901611328125ZM5,32.92901611328125Q5,33.22031611328125,5.1982800000000005,33.42311611328125Q5.38735,33.61651611328125,5.65,33.61651611328125L35.35,33.61651611328125Q35.612700000000004,33.61651611328125,35.8017,33.42311611328125Q36,33.220416113281246,36,32.92901611328125L36,9.30401611328125Q36,9.01266611328125,35.8017,8.80988611328125Q35.612700000000004,8.61651611328125,35.35,8.61651611328125L5.65,8.61651611328125Q5.38736,8.61651611328125,5.1982800000000005,8.80988611328125Q5,9.01267611328125,5,9.30401611328125L5,32.92901611328125L5,32.92901611328125Z" fill="#222222" fill-opacity="1"/></g><g><path d="M37,16.61651611328125L4,16.61651611328125Q3.9015086,16.61651611328125,3.80491,16.59730111328125Q3.708311,16.578086113281252,3.617317,16.54039511328125Q3.526322,16.50270411328125,3.44443,16.44798611328125Q3.362537,16.39326711328125,3.292893,16.32362311328125Q3.223249,16.25397911328125,3.16853,16.17208611328125Q3.1138120000000002,16.09019411328125,3.076121,15.99919911328125Q3.03843,15.90820511328125,3.019215,15.81160611328125Q3,15.71500751328125,3,15.61651611328125Q3,15.51802471328125,3.019215,15.42142611328125Q3.03843,15.32482711328125,3.076121,15.23383311328125Q3.1138120000000002,15.14283811328125,3.16853,15.06094611328125Q3.223249,14.97905311328125,3.292893,14.90940911328125Q3.362537,14.83976511328125,3.44443,14.78504611328125Q3.526322,14.73032811328125,3.617317,14.69263711328125Q3.708311,14.65494611328125,3.80491,14.635731113281249Q3.9015086,14.61651611328125,4,14.61651611328125L37,14.61651611328125Q37.0985,14.61651611328125,37.1951,14.635731113281249Q37.2917,14.65494611328125,37.3827,14.69263711328125Q37.4737,14.73032811328125,37.5556,14.78504611328125Q37.6375,14.83976511328125,37.7071,14.90940911328125Q37.7768,14.97905311328125,37.8315,15.06094611328125Q37.8862,15.14283811328125,37.9239,15.23383311328125Q37.9616,15.32482711328125,37.9808,15.42142611328125Q38,15.51802471328125,38,15.61651611328125Q38,15.71500751328125,37.9808,15.81160611328125Q37.9616,15.90820511328125,37.9239,15.99919911328125Q37.8862,16.09019411328125,37.8315,16.17208611328125Q37.7768,16.25397911328125,37.7071,16.32362311328125Q37.6375,16.39326711328125,37.5556,16.44798611328125Q37.4737,16.50270411328125,37.3827,16.54039511328125Q37.2917,16.578086113281252,37.1951,16.59730111328125Q37.0985,16.61651611328125,37,16.61651611328125ZM38,15.61651611328125Q38,15.71500751328125,37.9808,15.81160611328125Q37.9616,15.90820511328125,37.9239,15.99919911328125Q37.8862,16.09019411328125,37.8315,16.17208611328125Q37.7768,16.25397911328125,37.7071,16.32362311328125Q37.6375,16.39326711328125,37.5556,16.44798611328125Q37.4737,16.50270411328125,37.3827,16.54039511328125Q37.2917,16.578086113281252,37.1951,16.59730111328125Q37.0985,16.61651611328125,37,16.61651611328125Q36.9015,16.61651611328125,36.8049,16.59730111328125Q36.7083,16.578086113281252,36.6173,16.54039511328125Q36.5263,16.50270411328125,36.4444,16.44798611328125Q36.3625,16.39326711328125,36.2929,16.32362311328125Q36.2232,16.25397911328125,36.1685,16.17208611328125Q36.1138,16.09019411328125,36.0761,15.99919911328125Q36.0384,15.90820511328125,36.0192,15.81160611328125Q36,15.71500751328125,36,15.61651611328125Q36,15.51802471328125,36.0192,15.42142611328125Q36.0384,15.32482711328125,36.0761,15.23383311328125Q36.1138,15.14283811328125,36.1685,15.06094611328125Q36.2232,14.97905311328125,36.2929,14.90940911328125Q36.3625,14.83976511328125,36.4444,14.78504611328125Q36.5263,14.73032811328125,36.6173,14.69263711328125Q36.7083,14.65494611328125,36.8049,14.635731113281249Q36.9015,14.61651611328125,37,14.61651611328125Q37.0985,14.61651611328125,37.1951,14.635731113281249Q37.2917,14.65494611328125,37.3827,14.69263711328125Q37.4737,14.73032811328125,37.5556,14.78504611328125Q37.6375,14.83976511328125,37.7071,14.90940911328125Q37.7768,14.97905311328125,37.8315,15.06094611328125Q37.8862,15.14283811328125,37.9239,15.23383311328125Q37.9616,15.32482711328125,37.9808,15.42142611328125Q38,15.51802471328125,38,15.61651611328125ZM5,15.61651611328125Q5,15.71500751328125,4.980785,15.81160611328125Q4.96157,15.90820511328125,4.923879,15.99919911328125Q4.886188,16.09019411328125,4.83147,16.17208611328125Q4.776751,16.25397911328125,4.707107,16.32362311328125Q4.637463,16.39326711328125,4.55557,16.44798611328125Q4.473678,16.50270411328125,4.382683,16.54039511328125Q4.291689,16.578086113281252,4.19509,16.59730111328125Q4.0984914,16.61651611328125,4,16.61651611328125Q3.9015086,16.61651611328125,3.80491,16.59730111328125Q3.708311,16.578086113281252,3.617317,16.54039511328125Q3.526322,16.50270411328125,3.44443,16.44798611328125Q3.362537,16.39326711328125,3.292893,16.32362311328125Q3.223249,16.25397911328125,3.16853,16.17208611328125Q3.1138120000000002,16.09019411328125,3.076121,15.99919911328125Q3.03843,15.90820511328125,3.019215,15.81160611328125Q3,15.71500751328125,3,15.61651611328125Q3,15.51802471328125,3.019215,15.42142611328125Q3.03843,15.32482711328125,3.076121,15.23383311328125Q3.1138120000000002,15.14283811328125,3.16853,15.06094611328125Q3.223249,14.97905311328125,3.292893,14.90940911328125Q3.362537,14.83976511328125,3.44443,14.78504611328125Q3.526322,14.73032811328125,3.617317,14.69263711328125Q3.708311,14.65494611328125,3.80491,14.635731113281249Q3.9015086,14.61651611328125,4,14.61651611328125Q4.0984914,14.61651611328125,4.19509,14.635731113281249Q4.291689,14.65494611328125,4.382683,14.69263711328125Q4.473678,14.73032811328125,4.55557,14.78504611328125Q4.637463,14.83976511328125,4.707107,14.90940911328125Q4.776751,14.97905311328125,4.83147,15.06094611328125Q4.886188,15.14283811328125,4.923879,15.23383311328125Q4.96157,15.32482711328125,4.980785,15.42142611328125Q5,15.51802471328125,5,15.61651611328125Z" fill="#222222" fill-opacity="1"/></g><g><path d="M30,27.61651611328125L23,27.61651611328125Q22.9015086,27.61651611328125,22.80491,27.59730111328125Q22.708311,27.578086113281252,22.617317,27.54039511328125Q22.526322,27.50270411328125,22.44443,27.44798611328125Q22.362537,27.39326711328125,22.292893,27.32362311328125Q22.223249,27.25397911328125,22.16853,27.17208611328125Q22.113812,27.09019411328125,22.076121,26.99919911328125Q22.038429999999998,26.90820511328125,22.019215,26.81160611328125Q22,26.71500751328125,22,26.61651611328125Q22,26.51802471328125,22.019215,26.42142611328125Q22.038429999999998,26.32482711328125,22.076121,26.23383311328125Q22.113812,26.14283811328125,22.16853,26.06094611328125Q22.223249,25.97905311328125,22.292893,25.90940911328125Q22.362537,25.83976511328125,22.44443,25.78504611328125Q22.526322,25.73032811328125,22.617317,25.69263711328125Q22.708311,25.654946113281248,22.80491,25.63573111328125Q22.9015086,25.61651611328125,23,25.61651611328125L30,25.61651611328125Q30.098489999999998,25.61651611328125,30.19509,25.63573111328125Q30.29169,25.654946113281248,30.38268,25.69263711328125Q30.47368,25.73032811328125,30.55557,25.78504611328125Q30.63746,25.83976511328125,30.70711,25.90940911328125Q30.77675,25.97905311328125,30.83147,26.06094611328125Q30.88619,26.14283811328125,30.92388,26.23383311328125Q30.961570000000002,26.32482711328125,30.98078,26.42142611328125Q31,26.51802471328125,31,26.61651611328125Q31,26.71500751328125,30.98078,26.81160611328125Q30.961570000000002,26.90820511328125,30.92388,26.99919911328125Q30.88619,27.09019411328125,30.83147,27.17208611328125Q30.77675,27.25397911328125,30.70711,27.32362311328125Q30.63746,27.39326711328125,30.55557,27.44798611328125Q30.47368,27.50270411328125,30.38268,27.54039511328125Q30.29169,27.578086113281252,30.19509,27.59730111328125Q30.098489999999998,27.61651611328125,30,27.61651611328125ZM31,26.61651611328125Q31,26.71500751328125,30.98078,26.81160611328125Q30.961570000000002,26.90820511328125,30.92388,26.99919911328125Q30.88619,27.09019411328125,30.83147,27.17208611328125Q30.77675,27.25397911328125,30.70711,27.32362311328125Q30.63746,27.39326711328125,30.55557,27.44798611328125Q30.47368,27.50270411328125,30.38268,27.54039511328125Q30.29169,27.578086113281252,30.19509,27.59730111328125Q30.098489999999998,27.61651611328125,30,27.61651611328125Q29.901510000000002,27.61651611328125,29.80491,27.59730111328125Q29.70831,27.578086113281252,29.61732,27.54039511328125Q29.52632,27.50270411328125,29.44443,27.44798611328125Q29.36254,27.39326711328125,29.29289,27.32362311328125Q29.22325,27.25397911328125,29.16853,27.17208611328125Q29.11381,27.09019411328125,29.07612,26.99919911328125Q29.038429999999998,26.90820511328125,29.01921,26.81160611328125Q29,26.71500751328125,29,26.61651611328125Q29,26.51802471328125,29.01921,26.42142611328125Q29.038429999999998,26.32482711328125,29.07612,26.23383311328125Q29.11381,26.14283811328125,29.16853,26.06094611328125Q29.22325,25.97905311328125,29.29289,25.90940911328125Q29.36254,25.83976511328125,29.44443,25.78504611328125Q29.52632,25.73032811328125,29.61732,25.69263711328125Q29.70831,25.654946113281248,29.80491,25.63573111328125Q29.901510000000002,25.61651611328125,30,25.61651611328125Q30.098489999999998,25.61651611328125,30.19509,25.63573111328125Q30.29169,25.654946113281248,30.38268,25.69263711328125Q30.47368,25.73032811328125,30.55557,25.78504611328125Q30.63746,25.83976511328125,30.70711,25.90940911328125Q30.77675,25.97905311328125,30.83147,26.06094611328125Q30.88619,26.14283811328125,30.92388,26.23383311328125Q30.961570000000002,26.32482711328125,30.98078,26.42142611328125Q31,26.51802471328125,31,26.61651611328125ZM24,26.61651611328125Q24,26.71500751328125,23.980785,26.81160611328125Q23.961570000000002,26.90820511328125,23.923879,26.99919911328125Q23.886188,27.09019411328125,23.83147,27.17208611328125Q23.776751,27.25397911328125,23.707107,27.32362311328125Q23.637463,27.39326711328125,23.55557,27.44798611328125Q23.473678,27.50270411328125,23.382683,27.54039511328125Q23.291689,27.578086113281252,23.19509,27.59730111328125Q23.0984914,27.61651611328125,23,27.61651611328125Q22.9015086,27.61651611328125,22.80491,27.59730111328125Q22.708311,27.578086113281252,22.617317,27.54039511328125Q22.526322,27.50270411328125,22.44443,27.44798611328125Q22.362537,27.39326711328125,22.292893,27.32362311328125Q22.223249,27.25397911328125,22.16853,27.17208611328125Q22.113812,27.09019411328125,22.076121,26.99919911328125Q22.038429999999998,26.90820511328125,22.019215,26.81160611328125Q22,26.71500751328125,22,26.61651611328125Q22,26.51802471328125,22.019215,26.42142611328125Q22.038429999999998,26.32482711328125,22.076121,26.23383311328125Q22.113812,26.14283811328125,22.16853,26.06094611328125Q22.223249,25.97905311328125,22.292893,25.90940911328125Q22.362537,25.83976511328125,22.44443,25.78504611328125Q22.526322,25.73032811328125,22.617317,25.69263711328125Q22.708311,25.654946113281248,22.80491,25.63573111328125Q22.9015086,25.61651611328125,23,25.61651611328125Q23.0984914,25.61651611328125,23.19509,25.63573111328125Q23.291689,25.654946113281248,23.382683,25.69263711328125Q23.473678,25.73032811328125,23.55557,25.78504611328125Q23.637463,25.83976511328125,23.707107,25.90940911328125Q23.776751,25.97905311328125,23.83147,26.06094611328125Q23.886188,26.14283811328125,23.923879,26.23383311328125Q23.961570000000002,26.32482711328125,23.980785,26.42142611328125Q24,26.51802471328125,24,26.61651611328125Z" fill="#222222" fill-opacity="1"/></g><g><path d="M36,22.61651611328125L36,9.61651611328125Q36,9.51802471328125,36.019215,9.42142611328125Q36.03843,9.32482711328125,36.076121,9.23383311328125Q36.113812,9.14283811328125,36.16853,9.06094611328125Q36.223249,8.97905311328125,36.292893,8.90940911328125Q36.362537,8.83976511328125,36.44443,8.78504611328125Q36.526322,8.73032811328125,36.617317,8.69263711328125Q36.708311,8.65494611328125,36.80491,8.635731113281249Q36.9015086,8.61651611328125,37,8.61651611328125Q37.0984914,8.61651611328125,37.19509,8.635731113281249Q37.291689,8.65494611328125,37.382683,8.69263711328125Q37.473678,8.73032811328125,37.55557,8.78504611328125Q37.637463,8.83976511328125,37.707107,8.90940911328125Q37.776751,8.97905311328125,37.83147,9.06094611328125Q37.886188,9.14283811328125,37.923879,9.23383311328125Q37.96157,9.32482711328125,37.980785,9.42142611328125Q38,9.51802471328125,38,9.61651611328125L38,22.61651611328125Q38,22.71501611328125,37.980785,22.81161611328125Q37.96157,22.90821611328125,37.923879,22.99921611328125Q37.886188,23.09021611328125,37.83147,23.17211611328125Q37.776751,23.25401611328125,37.707107,23.32361611328125Q37.637463,23.393216113281248,37.55557,23.44801611328125Q37.473678,23.502716113281252,37.382683,23.54041611328125Q37.291689,23.57811611328125,37.19509,23.597316113281252Q37.0984914,23.61651611328125,37,23.61651611328125Q36.9015086,23.61651611328125,36.80491,23.597316113281252Q36.708311,23.57811611328125,36.617317,23.54041611328125Q36.526322,23.502716113281252,36.44443,23.44801611328125Q36.362537,23.393216113281248,36.292893,23.32361611328125Q36.223249,23.25401611328125,36.16853,23.17211611328125Q36.113812,23.09021611328125,36.076121,22.99921611328125Q36.03843,22.90821611328125,36.019215,22.81161611328125Q36,22.71501611328125,36,22.61651611328125ZM38,22.61651611328125Q38,22.71501611328125,37.980785,22.81161611328125Q37.96157,22.90821611328125,37.923879,22.99921611328125Q37.886188,23.09021611328125,37.83147,23.17211611328125Q37.776751,23.25401611328125,37.707107,23.32361611328125Q37.637463,23.393216113281248,37.55557,23.44801611328125Q37.473678,23.502716113281252,37.382683,23.54041611328125Q37.291689,23.57811611328125,37.19509,23.597316113281252Q37.0984914,23.61651611328125,37,23.61651611328125Q36.9015086,23.61651611328125,36.80491,23.597316113281252Q36.708311,23.57811611328125,36.617317,23.54041611328125Q36.526322,23.502716113281252,36.44443,23.44801611328125Q36.362537,23.393216113281248,36.292893,23.32361611328125Q36.223249,23.25401611328125,36.16853,23.17211611328125Q36.113812,23.09021611328125,36.076121,22.99921611328125Q36.03843,22.90821611328125,36.019215,22.81161611328125Q36,22.71501611328125,36,22.61651611328125Q36,22.51801611328125,36.019215,22.42141611328125Q36.03843,22.32481611328125,36.076121,22.23381611328125Q36.113812,22.14281611328125,36.16853,22.06091611328125Q36.223249,21.97901611328125,36.292893,21.90941611328125Q36.362537,21.83971611328125,36.44443,21.78501611328125Q36.526322,21.730316113281248,36.617317,21.69261611328125Q36.708311,21.65491611328125,36.80491,21.635716113281248Q36.9015086,21.61651611328125,37,21.61651611328125Q37.0984914,21.61651611328125,37.19509,21.635716113281248Q37.291689,21.65491611328125,37.382683,21.69261611328125Q37.473678,21.730316113281248,37.55557,21.78501611328125Q37.637463,21.83971611328125,37.707107,21.90941611328125Q37.776751,21.97901611328125,37.83147,22.06091611328125Q37.886188,22.14281611328125,37.923879,22.23381611328125Q37.96157,22.32481611328125,37.980785,22.42141611328125Q38,22.51801611328125,38,22.61651611328125ZM38,9.61651611328125Q38,9.71500751328125,37.980785,9.81160611328125Q37.96157,9.90820511328125,37.923879,9.99919911328125Q37.886188,10.09019411328125,37.83147,10.17208611328125Q37.776751,10.25397911328125,37.707107,10.32362311328125Q37.637463,10.39326711328125,37.55557,10.44798611328125Q37.473678,10.50270411328125,37.382683,10.54039511328125Q37.291689,10.57808611328125,37.19509,10.597301113281251Q37.0984914,10.61651611328125,37,10.61651611328125Q36.9015086,10.61651611328125,36.80491,10.597301113281251Q36.708311,10.57808611328125,36.617317,10.54039511328125Q36.526322,10.50270411328125,36.44443,10.44798611328125Q36.362537,10.39326711328125,36.292893,10.32362311328125Q36.223249,10.25397911328125,36.16853,10.17208611328125Q36.113812,10.09019411328125,36.076121,9.99919911328125Q36.03843,9.90820511328125,36.019215,9.81160611328125Q36,9.71500751328125,36,9.61651611328125Q36,9.51802471328125,36.019215,9.42142611328125Q36.03843,9.32482711328125,36.076121,9.23383311328125Q36.113812,9.14283811328125,36.16853,9.06094611328125Q36.223249,8.97905311328125,36.292893,8.90940911328125Q36.362537,8.83976511328125,36.44443,8.78504611328125Q36.526322,8.73032811328125,36.617317,8.69263711328125Q36.708311,8.65494611328125,36.80491,8.635731113281249Q36.9015086,8.61651611328125,37,8.61651611328125Q37.0984914,8.61651611328125,37.19509,8.635731113281249Q37.291689,8.65494611328125,37.382683,8.69263711328125Q37.473678,8.73032811328125,37.55557,8.78504611328125Q37.637463,8.83976511328125,37.707107,8.90940911328125Q37.776751,8.97905311328125,37.83147,9.06094611328125Q37.886188,9.14283811328125,37.923879,9.23383311328125Q37.96157,9.32482711328125,37.980785,9.42142611328125Q38,9.51802471328125,38,9.61651611328125Z" fill="#222222" fill-opacity="1"/></g><g><path d="M3,22.61651611328125L3,9.61651611328125Q3,9.51802471328125,3.019215,9.42142611328125Q3.03843,9.32482711328125,3.076121,9.23383311328125Q3.1138120000000002,9.14283811328125,3.16853,9.06094611328125Q3.223249,8.97905311328125,3.292893,8.90940911328125Q3.362537,8.83976511328125,3.44443,8.78504611328125Q3.526322,8.73032811328125,3.617317,8.69263711328125Q3.708311,8.65494611328125,3.80491,8.635731113281249Q3.9015086,8.61651611328125,4,8.61651611328125Q4.0984914,8.61651611328125,4.19509,8.635731113281249Q4.291689,8.65494611328125,4.382683,8.69263711328125Q4.473678,8.73032811328125,4.55557,8.78504611328125Q4.637463,8.83976511328125,4.707107,8.90940911328125Q4.776751,8.97905311328125,4.83147,9.06094611328125Q4.886188,9.14283811328125,4.923879,9.23383311328125Q4.96157,9.32482711328125,4.980785,9.42142611328125Q5,9.51802471328125,5,9.61651611328125L5,22.61651611328125Q5,22.71501611328125,4.980785,22.81161611328125Q4.96157,22.90821611328125,4.923879,22.99921611328125Q4.886188,23.09021611328125,4.83147,23.17211611328125Q4.776751,23.25401611328125,4.707107,23.32361611328125Q4.637463,23.393216113281248,4.55557,23.44801611328125Q4.473678,23.502716113281252,4.382683,23.54041611328125Q4.291689,23.57811611328125,4.19509,23.597316113281252Q4.0984914,23.61651611328125,4,23.61651611328125Q3.9015086,23.61651611328125,3.80491,23.597316113281252Q3.708311,23.57811611328125,3.617317,23.54041611328125Q3.526322,23.502716113281252,3.44443,23.44801611328125Q3.362537,23.393216113281248,3.292893,23.32361611328125Q3.223249,23.25401611328125,3.16853,23.17211611328125Q3.1138120000000002,23.09021611328125,3.076121,22.99921611328125Q3.03843,22.90821611328125,3.019215,22.81161611328125Q3,22.71501611328125,3,22.61651611328125ZM5,22.61651611328125Q5,22.71501611328125,4.980785,22.81161611328125Q4.96157,22.90821611328125,4.923879,22.99921611328125Q4.886188,23.09021611328125,4.83147,23.17211611328125Q4.776751,23.25401611328125,4.707107,23.32361611328125Q4.637463,23.393216113281248,4.55557,23.44801611328125Q4.473678,23.502716113281252,4.382683,23.54041611328125Q4.291689,23.57811611328125,4.19509,23.597316113281252Q4.0984914,23.61651611328125,4,23.61651611328125Q3.9015086,23.61651611328125,3.80491,23.597316113281252Q3.708311,23.57811611328125,3.617317,23.54041611328125Q3.526322,23.502716113281252,3.44443,23.44801611328125Q3.362537,23.393216113281248,3.292893,23.32361611328125Q3.223249,23.25401611328125,3.16853,23.17211611328125Q3.1138120000000002,23.09021611328125,3.076121,22.99921611328125Q3.03843,22.90821611328125,3.019215,22.81161611328125Q3,22.71501611328125,3,22.61651611328125Q3,22.51801611328125,3.019215,22.42141611328125Q3.03843,22.32481611328125,3.076121,22.23381611328125Q3.1138120000000002,22.14281611328125,3.16853,22.06091611328125Q3.223249,21.97901611328125,3.292893,21.90941611328125Q3.362537,21.83971611328125,3.44443,21.78501611328125Q3.526322,21.730316113281248,3.617317,21.69261611328125Q3.708311,21.65491611328125,3.80491,21.635716113281248Q3.9015086,21.61651611328125,4,21.61651611328125Q4.0984914,21.61651611328125,4.19509,21.635716113281248Q4.291689,21.65491611328125,4.382683,21.69261611328125Q4.473678,21.730316113281248,4.55557,21.78501611328125Q4.637463,21.83971611328125,4.707107,21.90941611328125Q4.776751,21.97901611328125,4.83147,22.06091611328125Q4.886188,22.14281611328125,4.923879,22.23381611328125Q4.96157,22.32481611328125,4.980785,22.42141611328125Q5,22.51801611328125,5,22.61651611328125ZM5,9.61651611328125Q5,9.71500751328125,4.980785,9.81160611328125Q4.96157,9.90820511328125,4.923879,9.99919911328125Q4.886188,10.09019411328125,4.83147,10.17208611328125Q4.776751,10.25397911328125,4.707107,10.32362311328125Q4.637463,10.39326711328125,4.55557,10.44798611328125Q4.473678,10.50270411328125,4.382683,10.54039511328125Q4.291689,10.57808611328125,4.19509,10.597301113281251Q4.0984914,10.61651611328125,4,10.61651611328125Q3.9015086,10.61651611328125,3.80491,10.597301113281251Q3.708311,10.57808611328125,3.617317,10.54039511328125Q3.526322,10.50270411328125,3.44443,10.44798611328125Q3.362537,10.39326711328125,3.292893,10.32362311328125Q3.223249,10.25397911328125,3.16853,10.17208611328125Q3.1138120000000002,10.09019411328125,3.076121,9.99919911328125Q3.03843,9.90820511328125,3.019215,9.81160611328125Q3,9.71500751328125,3,9.61651611328125Q3,9.51802471328125,3.019215,9.42142611328125Q3.03843,9.32482711328125,3.076121,9.23383311328125Q3.1138120000000002,9.14283811328125,3.16853,9.06094611328125Q3.223249,8.97905311328125,3.292893,8.90940911328125Q3.362537,8.83976511328125,3.44443,8.78504611328125Q3.526322,8.73032811328125,3.617317,8.69263711328125Q3.708311,8.65494611328125,3.80491,8.635731113281249Q3.9015086,8.61651611328125,4,8.61651611328125Q4.0984914,8.61651611328125,4.19509,8.635731113281249Q4.291689,8.65494611328125,4.382683,8.69263711328125Q4.473678,8.73032811328125,4.55557,8.78504611328125Q4.637463,8.83976511328125,4.707107,8.90940911328125Q4.776751,8.97905311328125,4.83147,9.06094611328125Q4.886188,9.14283811328125,4.923879,9.23383311328125Q4.96157,9.32482711328125,4.980785,9.42142611328125Q5,9.51802471328125,5,9.61651611328125Z" fill="#222222" fill-opacity="1"/></g></g></svg>